<?xml version="1.0" standalone="no"?><!DOCTYPE svg PUBLIC "-//W3C//DTD SVG 1.1//EN" "http://www.w3.org/Graphics/SVG/1.1/DTD/svg11.dtd"><svg t="1513245778475" class="icon" style="" viewBox="0 0 1024 1024" version="1.1" xmlns="http://www.w3.org/2000/svg" p-id="11342" xmlns:xlink="http://www.w3.org/1999/xlink" width="200" height="200"><defs><style type="text/css"></style></defs><path d="M803.942718 222.041302c-33.95076-33.95076-33.95076-89.000682 0-122.951442l76.839689-76.839689 30.735876 92.207627 92.215566 30.743814-76.83969 76.83969c-33.95076 33.95076-89.000682 33.95076-122.951441 0z" fill="#FED766" p-id="11343"></path><path d="M803.942718 222.041302L911.518283 114.465736l92.215566 30.735876-76.83969 76.83969c-33.95076 33.95076-89.000682 33.95076-122.951441 0z" fill="#D6A154" p-id="11344"></path><path d="M873.32864 522.136806c0 204.053829-165.427597 369.473488-369.481426 369.473489S134.373725 726.190636 134.373725 522.136806c0-204.053829 165.419659-369.481426 369.473489-369.481426 204.061767 0 369.481426 165.427597 369.481426 369.481426z" fill="#E8BA52" p-id="11345"></path><path d="M808.126035 522.136806c0 168.047132-136.23169 304.270884-304.278821 304.270884S199.57633 690.183938 199.57633 522.136806s136.223752-304.278822 304.270884-304.278822 304.278822 136.23169 304.278821 304.278822z" fill="#FFD880" p-id="11346"></path><path d="M320.725849 765.674171a16.26493 16.26493 0 0 1-22.972527 1.992434 320.019845 320.019845 0 0 1-114.481612-245.529799A320.011907 320.011907 0 0 1 297.753322 276.607008a16.30462 16.30462 0 0 1 20.980093 24.957023 287.489984 287.489984 0 0 0-102.860403 220.572775 287.489984 287.489984 0 0 0 102.860403 220.572775c6.890171 5.794729 7.779225 16.074419 1.984496 22.96459z" fill="#FFFFFF" p-id="11347"></path><path d="M547.323555 522.136806a43.468403 43.468403 0 1 1-86.944744 0 43.468403 43.468403 0 0 1 86.936806 0z m456.402356 0c0 9.001674-7.295008 16.296682-16.296682 16.296682H698.772361c-7.834791 95.025612-83.594915 170.785736-178.620527 178.620528v288.664806a16.30462 16.30462 0 0 1-32.601303 0V717.061953c-95.025612-7.842729-170.785736-83.594915-178.628465-178.620527H20.265198a16.30462 16.30462 0 0 1 0-32.60924h288.656868c7.842729-95.017674 83.602853-170.777798 178.620527-178.620527V38.554791a16.30462 16.30462 0 0 1 32.609241 0v288.656868c95.017674 7.842729 170.777798 83.594915 178.620527 178.620527h288.656868c9.001674 0 16.296682 7.302946 16.296682 16.30462z m-412.933953 0c0-48.016868-38.927876-86.936806-86.944744-86.936806-48.00893 0-86.928868 38.919938-86.928869 86.936806 0 48.00893 38.919938 86.928868 86.936807 86.928868 48.00893 0 86.928868-38.912 86.928868-86.928868z" fill="#FC8059" p-id="11348"></path><path d="M454.695214 888.736744a16.30462 16.30462 0 0 1-18.900341 13.19293c-158.283411-28.179845-283.552744-153.457116-311.73259-311.732589a16.296682 16.296682 0 1 1 32.093272-5.715349c25.79845 144.876155 140.470574 259.556217 285.346728 285.346729a16.30462 16.30462 0 0 1 13.192931 18.908279z m-317.44-415.751938a16.30462 16.30462 0 0 0 18.900341-13.19293c25.79845-144.884093 140.470574-259.556217 285.346728-285.346729a16.296682 16.296682 0 1 0-5.715348-32.101209c-158.275473 28.179845-283.544806 153.457116-311.724652 311.732589a16.30462 16.30462 0 0 0 13.184993 18.900341z m733.191938 98.304a16.312558 16.312558 0 0 0-18.900341 13.19293c-25.79845 144.876155-140.470574 259.556217-285.354667 285.346729a16.296682 16.296682 0 0 0 5.715349 32.101209c158.283411-28.179845 283.552744-153.457116 311.732589-311.732589a16.30462 16.30462 0 0 0-13.19293-18.908279z m-154.695442-49.152c0-33.077581-7.40614-64.766016-22.027907-94.184186a16.30462 16.30462 0 0 0-29.195907 14.510636 177.477457 177.477457 0 0 1 18.622511 79.67355c0 98.867597-80.435597 179.303194-179.303193 179.303194-98.867597 0-179.303194-80.435597-179.303194-179.303194 0-98.867597 80.435597-179.311132 179.303194-179.311132 28.997457 0 56.653395 6.699659 82.213705 19.916404a16.30462 16.30462 0 0 0 14.971039-28.957768 212.476031 212.476031 0 0 0-97.176806-23.559938c-116.847132 0-211.912434 95.065302-211.912434 211.912434s95.065302 211.904496 211.912434 211.904496 211.896558-95.057364 211.896558-211.904496z m299.500155-365.40924l-76.83969 76.83969a102.55876 102.55876 0 0 1-72.997706 30.235783c-22.059659 0-43.063566-6.874295-60.566821-19.606822l-16.995225 16.987287c48.612217 52.882853 82.689984 119.315845 95.787659 192.893023a16.296682 16.296682 0 1 1-32.093271 5.715349c-11.906977-66.877519-42.753984-127.317333-86.762171-175.548527L587.442128 461.601736a102.661953 102.661953 0 0 1 19.65445 60.527132c0 56.931225-46.31814 103.241426-103.233488 103.241427-56.923287 0-103.241426-46.310202-103.241427-103.233489 0-56.931225 46.310202-103.241426 103.233489-103.241426 22.599442 0 43.516031 7.295008 60.535069 19.654449l177.358388-177.358387c-48.231194-44.000248-108.671008-74.847256-175.540589-86.754233a16.296682 16.296682 0 0 1 5.715349-32.101209c73.56924 13.097674 140.002233 47.175442 192.877147 95.803535l16.995225-17.003163a102.47938 102.47938 0 0 1-19.606822-60.566822c0-27.584496 10.740093-53.502016 30.235783-73.005643l76.83969-76.83969a16.296682 16.296682 0 0 1 26.989147 6.374202l22.400992 67.195038 51.827101-51.835038a16.30462 16.30462 0 0 1 23.051907 23.051907l-51.835039 51.835038 67.195039 22.385117a16.30462 16.30462 0 0 1 6.374202 26.989147zM574.495276 522.136806c0-13.581891-3.85786-26.282667-10.525768-37.062449l-48.580465 48.580465a16.30462 16.30462 0 0 1-23.059845-23.043969l48.588403-48.588403a70.219411 70.219411 0 0 0-37.062449-10.525768c-38.95169 0-70.632186 31.688434-70.632186 70.640124 0 38.943752 31.680496 70.632186 70.632186 70.632186s70.640124-31.688434 70.640124-70.632186z m230.796899-324.48893l87.587721-87.587721-19.209923-57.629767-58.185426 58.193364c-23.583752 23.575814-26.973271 59.804775-10.192372 87.024124z m168.269395-45.325892l-57.629767-19.209922-87.587721 87.587721c27.219349 16.788837 63.44831 13.399318 87.024124-10.184434l58.193364-58.185427z" fill="#4C4C4C" p-id="11349"></path></svg>