<?xml version="1.0" standalone="no"?><!DOCTYPE svg PUBLIC "-//W3C//DTD SVG 1.1//EN" "http://www.w3.org/Graphics/SVG/1.1/DTD/svg11.dtd"><svg t="1513245765813" class="icon" style="" viewBox="0 0 1024 1024" version="1.1" xmlns="http://www.w3.org/2000/svg" p-id="10655" xmlns:xlink="http://www.w3.org/1999/xlink" width="200" height="200"><defs><style type="text/css"></style></defs><path d="M808.357824 1005.972837H215.644398c-47.254822 0-85.563535-38.308713-85.563535-85.563535V171.730357c0-47.254822 38.308713-85.563535 85.563535-85.563535h592.713426c47.254822 0 85.571473 38.308713 85.571473 85.571473v748.671007c-0.007938 47.254822-38.316651 85.563535-85.571473 85.563535z" fill="#84A7B7" p-id="10656"></path><path d="M766.270631 920.409302H257.731592a42.785736 42.785736 0 0 1-42.785736-42.785736V107.55969a42.785736 42.785736 0 0 1 42.785736-42.785737h508.531101a42.785736 42.785736 0 0 1 42.785736 42.785737v770.063876a42.785736 42.785736 0 0 1-42.785736 42.785736z" fill="#F2EFE2" p-id="10657"></path><path d="M483.710135 396.335628v427.817674c0 17.717581-14.248682 32.085333-31.831318 32.085334-17.574698 0-31.82338-14.367752-31.82338-32.085334V396.335628c0-17.717581 14.248682-32.085333 31.831318-32.085333 17.574698 0 31.82338 14.367752 31.82338 32.085333z m208.641984-32.085333c-17.574698 0-31.831318 14.367752-31.831318 32.085333v427.809736c0 17.725519 14.25662 32.093271 31.831318 32.093272 17.582636 0 31.831318-14.367752 31.831318-32.093272V396.343566c0-17.725519-14.25662-32.085333-31.831318-32.085333z" fill="#80A886" p-id="10658"></path><path d="M363.481421 653.026233v171.127069c0 17.717581-14.25662 32.085333-31.831317 32.085334-17.582636 0-31.831318-14.367752-31.831318-32.085334V653.026233c0-17.725519 14.248682-32.085333 31.831318-32.085334 17.574698 0 31.831318 14.367752 31.831317 32.085334z m208.634047-417.12521c-17.574698 0-31.831318 14.367752-31.831318 32.093272v556.159007c0 17.717581 14.25662 32.085333 31.831318 32.085334 17.582636 0 31.831318-14.367752 31.831318-32.085334V267.986357c0-17.717581-14.248682-32.077395-31.831318-32.077396z" fill="#A3CCAA" p-id="10659"></path><path d="M992.050724 305.421891c0 59.066543-47.492961 106.956403-106.083225 106.956404-17.48738 0-19.106729-4.286512-33.657054-11.843473L699.893204 554.206264c-2.99262 3.016434-7.033054 4.699287-11.256062 4.699286h-354.113488L58.051592 838.052713a15.796589 15.796589 0 0 1-11.248124 4.699287c-4.080124 0-22.996341-1.563783-26.115969-4.699287a16.129984 16.129984 0 0 1 0-22.68676L301.835034 531.527442c2.99262-3.016434 7.033054-4.699287 11.256062-4.699287h354.113488l144.177613-145.352434a107.051659 107.051659 0 0 1-31.497923-76.045892c0-59.058605 47.500899-106.948465 106.091163-106.948465 58.582326 0 106.083225 47.881922 106.083225 106.948465z" fill="#FCBB9A" p-id="10660"></path><path d="M366.12477 519.334698c0 23.623442-18.995597 42.785736-42.428527 42.785736-23.440868 0-42.436465-19.154357-42.436465-42.785736s18.995597-42.785736 42.436465-42.785737c23.43293 0 42.436465 19.154357 42.436465 42.785737zM122.134941 669.068899c-23.440868 0-42.436465 19.146419-42.436465 42.785737 0 23.623442 18.995597 42.777798 42.428527 42.777798 23.440868 0 42.436465-19.154357 42.436465-42.785736 0-23.623442-18.995597-42.785736-42.436465-42.785737z m562.263318-192.519938c-23.43293 0-42.428527 19.154357-42.428528 42.785737 0 23.623442 18.995597 42.785736 42.436466 42.785736 23.43293 0 42.428527-19.154357 42.428527-42.785736s-18.995597-42.785736-42.436465-42.785737z m201.577178-213.904868c-23.440868 0-42.436465 19.146419-42.436465 42.785736 0 23.623442 19.003535 42.777798 42.436465 42.777799s42.436465-19.154357 42.436465-42.785737c0-23.623442-19.003535-42.785736-42.436465-42.785736z" fill="#FC8059" p-id="10661"></path><path d="M575.13984 150.345426H448.870321a64.170667 64.170667 0 0 1-64.178605-64.178604 64.170667 64.170667 0 0 1 64.170667-64.170667h126.277457a64.170667 64.170667 0 0 1 0 128.341333z" fill="#FED766" p-id="10662"></path><path d="M630.769235 54.081488a64.257984 64.257984 0 0 1 8.541272 32.085334c0 35.443101-28.497364 64.170667-63.654698 64.170666H448.346414c-35.149395 0-63.654698-28.727566-63.654698-64.170666a64.218295 64.218295 0 0 1 8.541271-32.085334c11.009984 19.178171 31.561426 32.085333 55.121365 32.085334h127.301457c23.552 0 44.103442-12.907163 55.113426-32.085334z" fill="#E8BA52" p-id="10663"></path><path d="M130.080863 631.990574a16.034729 16.034729 0 0 0 16.042667-16.042667v-444.209612c0-32.799752 22.591504-60.360434 52.882853-67.647504-0.063504 1.151008-0.095256 2.302016-0.095256 3.468899v439.224558a16.034729 16.034729 0 1 0 32.085333 0V107.55969c0-4.604031 1.151008-8.954047 3.19107-12.740465a15.796589 15.796589 0 0 0 0.777922-1.349458 26.322357 26.322357 0 0 1 22.416869-12.653147h111.441364c-0.11907 1.770171-0.174636 3.556217-0.174636 5.350202 0 44.23045 35.982884 80.213333 80.213334 80.213333h126.269519c44.23045 0 80.213333-35.982884 80.213333-80.213333 0-1.793984-0.055566-3.572093-0.174635-5.350202h111.441364c9.446202 0 17.757271 5.064434 22.416868 12.645209 0.23814 0.476279 0.500093 0.928744 0.793799 1.365334 2.024186 3.786419 3.183132 8.128496 3.183131 12.732527v64.170667a16.034729 16.034729 0 1 0 32.085334 0V107.55969a59.693643 59.693643 0 0 0-0.103194-3.492713c24.853829 5.913798 44.825798 25.40155 50.993612 51.374635a16.034729 16.034729 0 1 0 31.212155-7.414077c-10.684527-44.992496-49.731473-76.68093-95.478077-77.86369a58.24893 58.24893 0 0 0-45.103628-21.432558H646.065731C632.594972 23.321798 605.851902 5.953488 575.13984 5.953488H448.870321c-30.72 0-57.471008 17.360372-70.93383 42.785737H257.390259a58.24893 58.24893 0 0 0-45.111566 21.42462c-54.414884 1.428837-98.240496 46.437209-98.240496 101.566512v444.21755a16.034729 16.034729 0 0 0 16.042666 16.042667z m318.789458-593.951752h126.269519a48.183566 48.183566 0 0 1 48.128 48.128 48.183566 48.183566 0 0 1-48.128 48.135938H448.870321a48.183566 48.183566 0 0 1-48.135938-48.135938 48.183566 48.183566 0 0 1 48.135938-48.128z m445.051038 149.734201c-67.34586 0-122.133829 55.17693-122.133829 122.99907 0 28.148093 9.430326 54.105302 25.282481 74.855194L713.530662 469.849302a57.883783 57.883783 0 0 0-21.178543-3.992806c-26.719256 0-49.31076 18.114481-56.264434 42.785737H387.914538c-6.953674-24.663318-29.545178-42.785736-56.264434-42.785737-32.244093 0-58.479132 26.393798-58.479132 58.820465 0 7.556961 1.428837 14.788465 4.01662 21.432558L158.475034 665.790512a57.836155 57.836155 0 0 0-28.394171-7.414078c-32.244093 0-58.479132 26.38586-58.479132 58.820465 0 10.406698 2.698915 20.186295 7.437892 28.679938L12.598693 812.849612a16.042667 16.042667 0 0 0 22.782015 22.599442l66.298047-66.837829c8.414264 4.715163 18.098605 7.40614 28.402108 7.406139 32.244093 0 58.471194-26.38586 58.471194-58.820465 0-10.406698-2.698915-20.186295-7.429953-28.679938L296.802352 571.892093a57.971101 57.971101 0 0 0 34.847752 11.613271c26.711318 0 49.302822-18.114481 56.264434-42.785736h248.165209c6.961612 24.671256 29.553116 42.785736 56.272372 42.785736 32.244093 0 58.479132-26.393798 58.479132-58.820465a58.733147 58.733147 0 0 0-11.621209-35.165271l80.483224-81.13414a121.117767 121.117767 0 0 0 58.185427 24.321985v487.701829c0 38.340465-30.87876 69.520868-68.822326 69.520869H214.945856c-37.951504 0-68.830264-31.188341-68.830264-69.520869v-106.956403a16.034729 16.034729 0 1 0-32.085333 0v106.956403c0 56.026295 45.270326 101.606202 100.915597 101.606202h594.102573c55.645271 0 100.907659-45.579907 100.907659-101.606202V432.707473c59.788899-7.937984 106.091163-59.59045 106.091163-121.93538 0-67.82214-54.787969-122.99907-122.13383-122.99907zM130.080863 743.947907c-14.550326 0-26.393798-11.994295-26.393798-26.74307 0-14.740837 11.843473-26.735132 26.393798-26.735132 14.558264 0 26.393798 11.986357 26.393799 26.735132 0 14.748775-11.843473 26.74307-26.393799 26.74307zM331.650104 551.420031a26.282667 26.282667 0 0 1-21.551628-11.327504l-0.142884-0.206387a26.814512 26.814512 0 0 1-4.699287-15.209179c0-14.740837 11.843473-26.735132 26.393799-26.735132 14.550326 0 26.393798 11.986357 26.393798 26.735132 0 14.748775-11.843473 26.74307-26.393798 26.74307z m360.702015 0c-14.550326 0-26.393798-11.994295-26.393798-26.74307 0-14.740837 11.843473-26.735132 26.393798-26.735132 14.550326 0 26.393798 11.986357 26.393799 26.735132 0 14.748775-11.843473 26.74307-26.393799 26.74307z m201.56924-149.734202c-49.652093 0-90.048496-40.785364-90.048496-90.913736 0-50.128372 40.396403-90.913736 90.048496-90.913736 49.652093 0 90.048496 40.785364 90.048497 90.913736 0 50.128372-40.404341 90.913736-90.048497 90.913736zM230.99646 717.196899v160.426667c0 14.748775 11.835535 26.74307 26.385861 26.74307h509.237581c14.550326 0 26.38586-11.994295 26.38586-26.735132V473.342016a16.034729 16.034729 0 1 1 32.085334 0v404.28155c0 32.442543-26.227101 58.828403-58.471194 58.828403H257.390259c-32.252031 0-58.479132-26.393798-58.479132-58.820465V717.196899a16.034729 16.034729 0 1 1 32.085333 0z m662.924899-465.245271c-32.244093 0-58.479132 26.38586-58.479131 58.820465s26.235039 58.820465 58.479131 58.820465c32.244093 0 58.479132-26.38586 58.479132-58.820465s-26.235039-58.820465-58.479132-58.820465z m0 85.563535c-14.558264 0-26.393798-11.994295-26.393798-26.74307 0-14.748775 11.843473-26.735132 26.393798-26.735132 14.550326 0 26.393798 11.986357 26.393799 26.735132 0 14.748775-11.843473 26.74307-26.393799 26.74307z" fill="#4C4C4C" p-id="10664"></path></svg>