<?xml version="1.0" standalone="no"?><!DOCTYPE svg PUBLIC "-//W3C//DTD SVG 1.1//EN" "http://www.w3.org/Graphics/SVG/1.1/DTD/svg11.dtd"><svg t="1513245746786" class="icon" style="" viewBox="0 0 1451 1024" version="1.1" xmlns="http://www.w3.org/2000/svg" p-id="9706" xmlns:xlink="http://www.w3.org/1999/xlink" width="283.3984375" height="200"><defs><style type="text/css"></style></defs><path d="M1271.616703 150.933099v121.304615h-1091.629011v-121.304615a60.652308 60.652308 0 0 1 60.652308-60.652308h970.324396a60.652308 60.652308 0 0 1 60.652307 60.652308z" fill="#A5A5A5" p-id="9707"></path><path d="M1271.616703 507.015033v-265.114725H543.856527V59.977143a30.326154 30.326154 0 0 0-30.314901-30.326154H331.595956a30.326154 30.326154 0 0 0-30.326154 30.326154v181.934417H179.987692v212.271825c-84.283077 3.97222-151.619516 73.761758-151.619516 159.001318 0 85.23956 67.33644 155.040352 151.619516 159.001319v167.170813a60.652308 60.652308 0 0 0 60.652308 60.652308h970.324396a60.652308 60.652308 0 0 0 60.652307-60.652308v-386.756923c59.178198 3.915956 106.135912 53.281758 106.135912 113.427692s-46.957714 109.511736-106.135912 113.427693v45.573626c84.283077-3.97222 151.619516-73.761758 151.619517-159.001319 0-85.23956-67.33644-155.029099-151.619517-159.001318zM73.85178 613.162198c0-60.157187 46.957714-109.511736 106.135912-113.427693v226.855385c-59.178198-3.915956-106.135912-53.281758-106.135912-113.427692z" fill="#E9F2F4" p-id="9708"></path><path d="M1150.323341 545.139341v333.553934a30.326154 30.326154 0 0 1-30.326154 30.314901H331.595956a30.326154 30.326154 0 0 1-30.314901-30.314901V545.139341a30.326154 30.326154 0 0 1 30.314901-30.326154h788.412484a30.326154 30.326154 0 0 1 30.314901 30.326154zM559.036484 332.856264H346.764659a45.483604 45.483604 0 0 0 0 90.967209h212.260572a45.483604 45.483604 0 0 0 0-90.967209z m545.814505 0H710.644747a45.483604 45.483604 0 0 0 0 90.967209h394.194989a45.483604 45.483604 0 0 0 0-90.967209z" fill="#CFDFE2" p-id="9709"></path><path d="M543.856527 59.96589v181.934418H301.269802V59.977143a30.326154 30.326154 0 0 1 30.326154-30.326154h181.94567A30.326154 30.326154 0 0 1 543.845275 59.977143z" fill="#C3E4ED" p-id="9710"></path><path d="M468.058022 181.259253H377.07956a15.157451 15.157451 0 0 1-15.168703-15.157451V105.438242c0-8.372044 6.796659-15.157451 15.168703-15.157451h90.967209c8.372044 0 15.157451 6.785407 15.157451 15.157451v60.652307c0 8.372044-6.785407 15.157451-15.157451 15.157451z" fill="#B2D1D8" p-id="9711"></path><path d="M1050.477714 747.902593l-117.928791 93.06022c-5.918945 4.681143-15.528791 4.681143-21.447736 0-2.835692-2.250549-4.433582-5.288791-4.433583-8.450813v-60.145934H187.572044c-87.793934 0-159.203868-71.409934-159.203868-159.192615 0-85.23956 67.347692-155.029099 151.619516-159.001319v45.573626c-59.178198 3.915956-106.124659 53.281758-106.124659 113.427693 0 62.700308 51.008703 113.709011 113.709011 113.709011h719.09556v-97.426286c0-3.173275 1.59789-6.222769 4.444836-8.462066 5.918945-4.66989 15.517538-4.66989 21.436483 0l117.928791 93.06022c11.83789 9.33978 11.83789 24.497231 0 33.848263z m213.56589-241.090109H544.936791v-97.426286c0-3.173275-1.59789-6.222769-4.433582-8.462066-5.918945-4.66989-15.528791-4.66989-21.447736 0l-117.928792 93.06022c-11.83789 9.351033-11.83789 24.508484 0 33.848263l117.928792 93.06022c5.918945 4.681143 15.528791 4.681143 21.447736 0 2.835692-2.239297 4.433582-5.288791 4.433582-8.450813v-60.134681h719.106813c62.700308 0 113.709011 51.008703 113.709011 113.709011 0 60.157187-46.957714 109.511736-106.135912 113.427692v45.573626c84.283077-3.960967 151.619516-73.761758 151.619517-159.001318 0-87.782681-71.421187-159.203868-159.192616-159.203868z" fill="#FC8059" p-id="9712"></path><path d="M1445.978022 647.370549c0-85.599648-67.809055-155.591736-152.45222-159.035076V150.933099c0-45.978725-37.370374-83.382857-83.304088-83.382857H566.879648v-7.584352c0-29.257143-23.777055-53.067956-53.011692-53.067956H332.203604a53.112967 53.112967 0 0 0-53.011692 53.067956v7.584352h-37.809231c-45.933714 0-83.292835 37.404132-83.292835 83.382857v284.559472C73.435429 438.935912 5.626374 508.928 5.626374 594.527648c0 87.771429 71.319912 159.192615 158.990066 159.192616h719.028044v78.780483c0 10.149978 4.759912 19.737319 13.075692 26.308923a39.992264 39.992264 0 0 0 24.801055 8.383297c8.867165 0 17.745582-2.801934 24.812307-8.383297l117.748748-93.060219c11.128967-8.799648 17.509275-21.470242 17.509274-34.770989 0-13.289495-6.380308-25.960088-17.509274-34.770989L946.333538 603.147253c-14.144703-11.173978-35.479912-11.173978-49.602109 0-8.31578 6.571604-13.075692 16.158945-13.075693 26.308923v78.780483H203.562198v-443.583296h1044.48v223.513318H567.948659v-78.780483c0-10.149978-4.759912-19.737319-13.075692-26.297671-14.144703-11.185231-35.468659-11.185231-49.613363 0l-117.748747 93.06022c-11.128967 8.799648-17.509275 21.458989-17.509275 34.770989 0 13.289495 6.380308 25.960088 17.509275 34.759737l117.748747 93.060219a40.014769 40.014769 0 0 0 24.812308 8.383297c8.867165 0 17.723077-2.790681 24.789802-8.383297 8.327033-6.560352 13.086945-16.147692 13.086945-26.29767v-78.791736h719.028044c62.58778 0 113.506462 51.019956 113.506462 113.720263 0 60.506022-47.419077 110.108132-106.979868 113.506462V636.117802a22.730549 22.730549 0 1 0-45.472352 0v303.22778a37.899253 37.899253 0 0 1-37.809231 37.910506h-968.861538a37.899253 37.899253 0 0 1-37.809231-37.910506v-90.967208a22.741802 22.741802 0 0 0-45.472352 0v90.967208c0 45.989978 37.359121 83.382857 83.292836 83.382858h968.850285c45.922462 0 83.292835-37.392879 83.292835-83.382858V806.394374c84.643165-3.443341 152.45222-73.435429 152.45222-159.035077z m-516.849934 0.157539l105.573275 83.450374-105.573275 83.450373V647.528088zM522.476308 594.37011l-105.584528-83.450374 105.584528-83.450373v166.900747zM324.675516 59.96589c0-4.174769 3.375824-7.584352 7.539341-7.584352h181.653099c4.163516 0 7.539341 3.39833 7.539341 7.584352v159.192615H324.664264V59.977143z m-83.292835 53.067956h37.809231v106.124659h-75.618461v-68.225406a37.899253 37.899253 0 0 1 37.80923-37.899253zM51.109978 594.527648c0-60.506022 47.419077-110.119385 106.968615-113.517714v227.024176c-59.549538-3.409582-106.968615-53.00044-106.968615-113.506462z m515.76967-375.369143v-106.124659h643.342066a37.899253 37.899253 0 0 1 37.809231 37.899253v68.236659H566.879648z m423.879737-54.575824v3.038242a22.730549 22.730549 0 1 1-45.494858 0v-3.038242a22.730549 22.730549 0 1 1 45.494858 0z m90.820923 0v3.038242a22.730549 22.730549 0 1 1-45.483605 0v-3.038242a22.730549 22.730549 0 1 1 45.483605 0z m90.832176 0v3.038242a22.730549 22.730549 0 1 1-45.483605 0v-3.038242a22.730549 22.730549 0 1 1 45.483605 0z" fill="#4C4C4C" p-id="9713"></path></svg>