<?xml version="1.0" standalone="no"?><!DOCTYPE svg PUBLIC "-//W3C//DTD SVG 1.1//EN" "http://www.w3.org/Graphics/SVG/1.1/DTD/svg11.dtd"><svg t="1513245749151" class="icon" style="" viewBox="0 0 1032 1024" version="1.1" xmlns="http://www.w3.org/2000/svg" p-id="9840" xmlns:xlink="http://www.w3.org/1999/xlink" width="201.5625" height="200"><defs><style type="text/css"></style></defs><path d="M1009.832 167.072v64.672H18.168v-64.672c0-47.624 38.608-86.232 86.232-86.232h819.2c47.624 0 86.232 38.608 86.232 86.24z" fill="#A5A5A5" p-id="9841"></path><path d="M1009.832 210.192v603.624c0 47.624-38.608 86.224-86.232 86.224H104.4c-47.624 0-86.232-38.6-86.232-86.224V210.184h129.344V59.28a43.12 43.12 0 0 1 43.12-43.112h172.464a43.12 43.12 0 0 1 43.12 43.12v150.904h603.616z" fill="#E9F2F4" p-id="9842"></path><path d="M406.208 59.28v150.912H147.52V59.28a43.12 43.12 0 0 1 43.12-43.112h172.464a43.12 43.12 0 0 1 43.12 43.12z" fill="#C3E4ED" p-id="9843"></path><path d="M363.096 91.624v43.12a21.56 21.56 0 0 1-21.56 21.552H212.184a21.56 21.56 0 0 1-21.552-21.56v-43.12a21.56 21.56 0 0 1 21.552-21.552h129.352a21.552 21.552 0 0 1 21.56 21.56z" fill="#B2D1D8" p-id="9844"></path><path d="M858.928 803.032H169.072a43.12 43.12 0 0 1-43.12-43.12V522.784a43.12 43.12 0 0 1 43.12-43.12h689.856a43.12 43.12 0 0 1 43.12 43.12V759.92a43.12 43.12 0 0 1-43.12 43.12z m-452.72-452.72a43.12 43.12 0 0 0-43.12-43.112H169.08a43.12 43.12 0 1 0 0 86.232h194.024a43.12 43.12 0 0 0 43.12-43.12z m495.84 0a43.12 43.12 0 0 0-43.12-43.112H514a43.12 43.12 0 1 0 0 86.232h344.928a43.12 43.12 0 0 0 43.12-43.12z" fill="#CFDFE2" p-id="9845"></path><path d="M767 562.8c0 51.872-42.048 93.92-93.92 93.92-51.864 0-93.912-42.056-93.912-93.92 0-51.864 42.048-93.92 93.92-93.92 51.864 0 93.912 42.048 93.912 93.92z" fill="#84A7B7" p-id="9846"></path><path d="M834.08 883.12v124.712H512.088v-124.72c0-88.912 72.08-160.992 160.992-160.992 88.92 0 161 72.08 161 160.992zM651.032 490.432a50.8 50.8 0 1 0 0 101.6 50.8 50.8 0 0 0 0-101.6z" fill="#9AB7C1" p-id="9847"></path><path d="M800.552 784.784a160.192 160.192 0 0 1 33.528 98.328v124.72H512.088v-87.088c4.16 0.544 8.384 0.856 12.688 0.856h64.68c53.576 0 97.008-43.44 97.008-97.016 0-60.584 77.024-87.736 114.08-39.8z" fill="#84A7B7" p-id="9848"></path><path d="M923.6 64.672H422.376v-5.384c0-32.696-26.592-59.288-59.28-59.288H190.632c-32.688 0-59.28 26.6-59.28 59.28v5.392H104.4c-56.464 0-102.4 45.936-102.4 102.4v646.736c0 56.464 45.936 102.4 102.4 102.4h391.52v75.456h-45.056a16.16 16.16 0 1 0 0 32.336h444.44a16.16 16.16 0 1 0 0-32.336h-45.056v-75.456h73.352c56.464 0 102.4-45.936 102.4-102.4V167.072c0-56.464-45.936-102.4-102.4-102.4z m-759.92-5.384a26.976 26.976 0 0 1 26.952-26.952h172.464a26.976 26.976 0 0 1 26.944 26.952v134.736H163.68V59.28zM34.336 167.072c0-38.632 31.432-70.064 70.064-70.064h26.952v97.016H34.336v-26.952z m783.576 824.592H528.256v-108.552c0-79.848 64.968-144.824 144.832-144.824 79.856 0 144.824 64.968 144.824 144.824v108.552z m175.752-177.856c0 38.64-31.432 70.064-70.064 70.064h-73.352v-0.752c0-97.696-79.472-177.168-177.16-177.168S495.92 785.424 495.92 883.12v0.76H104.4c-38.632 0-70.064-31.424-70.064-70.064V226.36h959.328v587.448z m0-619.784h-571.28V97.008h501.216c38.632 0 70.064 31.432 70.064 70.064v26.952z m10.776 813.808a16.16 16.16 0 0 1-16.16 16.168h-3.184a16.16 16.16 0 1 1 0-32.336h3.176a16.16 16.16 0 0 1 16.168 16.168zM673.08 672.88c60.704 0 110.08-49.384 110.08-110.08s-49.376-110.08-110.08-110.08c-60.696 0-110.08 49.376-110.08 110.08 0 60.696 49.384 110.08 110.08 110.08z m0-187.824c42.872 0 77.744 34.872 77.744 77.744 0 42.864-34.872 77.744-77.744 77.744-42.864 0-77.744-34.88-77.744-77.744 0-42.872 34.88-77.744 77.744-77.744z m180.456-340.616v2.16a16.16 16.16 0 1 1-32.336 0v-2.16a16.16 16.16 0 1 1 32.336 0z m-64.672 0v2.16a16.16 16.16 0 1 1-32.336 0v-2.16a16.16 16.16 0 1 1 32.336 0z m129.344 0v2.16a16.16 16.16 0 1 1-32.336 0v-2.16a16.16 16.16 0 1 1 32.336 0z" fill="#4C4C4C" p-id="9849"></path></svg>