<?xml version="1.0" standalone="no"?><!DOCTYPE svg PUBLIC "-//W3C//DTD SVG 1.1//EN" "http://www.w3.org/Graphics/SVG/1.1/DTD/svg11.dtd"><svg t="1513245757523" class="icon" style="" viewBox="0 0 1129 1024" version="1.1" xmlns="http://www.w3.org/2000/svg" p-id="10245" xmlns:xlink="http://www.w3.org/1999/xlink" width="220.5078125" height="200"><defs><style type="text/css"></style></defs><path d="M1112.090483 190.861241v83.252966H17.840552v-83.252966c0-52.550621 42.601931-95.152552 95.152551-95.152551h903.944828c52.550621 0 95.152552 42.601931 95.152552 95.152551z" fill="#A5A5A5" p-id="10246"></path><path d="M1112.090483 238.433103v666.067863c0 52.550621-42.601931 95.152552-95.152552 95.152551H112.993103c-52.550621 0-95.152552-42.601931-95.152551-95.152551V238.441931h142.724414V71.909517a47.58069 47.58069 0 0 1 47.580689-47.580689h190.305104a47.58069 47.58069 0 0 1 47.580689 47.580689v166.523586h666.059035z" fill="#E9F2F4" p-id="10247"></path><path d="M446.022621 71.918345v166.523586H160.573793V71.909517a47.58069 47.58069 0 0 1 47.58069-47.580689h190.305103a47.58069 47.58069 0 0 1 47.58069 47.580689z" fill="#C3E4ED" p-id="10248"></path><path d="M398.450759 107.608276v47.571862a23.790345 23.790345 0 0 1-23.790345 23.790345H231.927172a23.790345 23.790345 0 0 1-23.781517-23.790345v-47.58069a23.790345 23.790345 0 0 1 23.781517-23.781517h142.733242a23.790345 23.790345 0 0 1 23.790345 23.790345z" fill="#B2D1D8" p-id="10249"></path><path d="M945.575724 892.610207H826.632828a47.58069 47.58069 0 0 1-47.58069-47.58069V583.362207a47.58069 47.58069 0 0 1 47.58069-47.58069h118.942896a47.58069 47.58069 0 0 1 47.58069 47.58069v261.66731a47.58069 47.58069 0 0 1-47.58069 47.58069z m47.58069-499.553104a47.58069 47.58069 0 0 0-47.58069-47.580689H826.632828a47.58069 47.58069 0 1 0 0 95.152552h118.942896a47.58069 47.58069 0 0 0 47.58069-47.571863z" fill="#CFDFE2" p-id="10250"></path><path d="M410.341517 345.485241c-151.084138 0-273.566897 122.473931-273.566896 273.566897 0 151.07531 122.482759 273.558069 273.566896 273.558069s273.566897-122.482759 273.566897-273.566897-122.482759-273.566897-273.566897-273.566896z m0 404.391725c-72.253793 0-130.824828-58.571034-130.824827-130.824828 0-72.262621 58.571034-130.842483 130.824827-130.842483 72.262621 0 130.833655 58.579862 130.833655 130.833655 0 72.262621-58.571034 130.833655-130.824827 130.833656z" fill="#FFD880" p-id="10251"></path><path d="M683.908414 619.04331c0 151.084138-122.482759 273.566897-273.566897 273.566897V749.876966c72.262621 0 130.833655-58.571034 130.833655-130.824828 0-72.262621-58.571034-130.842483-130.824827-130.842483V345.485241c151.07531 0 273.558069 122.473931 273.558069 273.566897z" fill="#FC8059" p-id="10252"></path><path d="M410.341517 488.209655V345.485241c151.084138 0 273.566897 122.473931 273.566897 273.566897H541.175172c0-72.262621-58.571034-130.842483-130.824827-130.842483z" fill="#BF5243" p-id="10253"></path><path d="M410.341517 910.450759c160.679724 0 291.398621-130.727724 291.398621-291.398621 0-160.688552-130.718897-291.407448-291.398621-291.407448-160.679724 0-291.398621 130.718897-291.39862 291.39862 0 160.679724 130.718897 291.398621 291.39862 291.398621z m17.840552-36.299035V766.658207c67.751724-8.130207 121.63531-62.013793 129.765517-129.765517h107.502345C656.666483 763.692138 554.990345 865.368276 428.182069 874.142897z m0-510.208c126.817103 8.783448 228.484414 110.450759 237.267862 237.259035H557.956414c-8.139034-67.751724-62.022621-121.63531-129.765517-129.765518V363.943724z m95.161379 255.099586c0 62.305103-50.696828 112.993103-112.993103 112.993104-62.313931 0-112.993103-50.688-112.993104-112.993104 0-62.305103 50.679172-112.993103 112.993104-112.993103 62.296276 0 112.993103 50.688 112.993103 112.993103zM392.492138 363.943724v107.493517c-73.595586 8.827586-130.824828 71.662345-130.824828 147.606069 0 75.952552 57.229241 138.769655 130.824828 147.614897v107.493517C259.795862 864.962207 154.624 754.052414 154.624 619.04331S259.787034 373.142069 392.500966 363.943724z m618.487172-198.064552v2.383449a17.831724 17.831724 0 1 1-35.681103 0v-2.383449a17.831724 17.831724 0 1 1 35.681103 0z m5.949793-88.011034H463.863172v-5.949793c0-36.069517-29.342897-65.412414-65.412413-65.412414H208.145655c-36.069517 0-65.412414 29.342897-65.412414 65.412414v5.949793H112.993103c-62.305103 0-112.993103 50.688-112.993103 112.993103v713.639725c0 62.305103 50.688 112.993103 112.993103 112.993103h903.944828c62.305103 0 112.993103-50.688 112.993103-112.993103V190.861241c0-62.305103-50.688-112.993103-112.993103-112.993103z m-838.532413-5.949793A29.766621 29.766621 0 0 1 208.154483 42.195862h190.305103a29.766621 29.766621 0 0 1 29.731311 29.73131V220.601379H178.405517V71.918345zM35.681103 190.861241c0-42.628414 34.683586-77.312 77.312-77.312h29.740138v107.043311H35.681103v-29.731311z m1058.568828 713.639725c0 42.637241-34.683586 77.312-77.312 77.312H112.993103c-42.628414 0-77.312-34.683586-77.312-77.312V256.282483h1058.568828v648.218483z m0-683.899587h-630.377931V113.540414H1016.937931c42.637241 0 77.312 34.692414 77.312 77.312v29.740138z m-225.986207-54.713379v2.374621a17.831724 17.831724 0 1 1-35.681103 0v-2.383449a17.831724 17.831724 0 1 1 35.681103 0z m71.362207 0v2.374621a17.831724 17.831724 0 1 1-35.681103 0v-2.383449a17.831724 17.831724 0 1 1 35.681103 0z" fill="#4C4C4C" p-id="10254"></path></svg>