<?xml version="1.0" standalone="no"?><!DOCTYPE svg PUBLIC "-//W3C//DTD SVG 1.1//EN" "http://www.w3.org/Graphics/SVG/1.1/DTD/svg11.dtd"><svg t="1513245706086" class="icon" style="" viewBox="0 0 1024 1024" version="1.1" xmlns="http://www.w3.org/2000/svg" p-id="7807" xmlns:xlink="http://www.w3.org/1999/xlink" width="200" height="200"><defs><style type="text/css"></style></defs><path d="M918.424806 510.015504a60.963721 60.963721 0 0 1-60.963721 60.963721h-26.052465a323.314109 323.314109 0 0 1-50.453829 121.768682l18.432 18.439938a60.963721 60.963721 0 0 1-86.21445 86.21445l-18.432-18.432a323.314109 323.314109 0 0 1-121.768682 50.453829v26.052465a60.963721 60.963721 0 0 1-121.93538 0v-26.052465a323.314109 323.314109 0 0 1-121.768682-50.453829l-18.432 18.432a60.963721 60.963721 0 1 1-86.21445-86.21445l18.424062-18.432a323.314109 323.314109 0 0 1-50.453829-121.77662H166.538915a60.963721 60.963721 0 0 1 0-121.927442h26.052465a323.314109 323.314109 0 0 1 50.453829-121.768682l-18.432-18.432a60.963721 60.963721 0 1 1 86.21445-86.21445l18.432 18.424062a323.329984 323.329984 0 0 1 121.77662-50.453829V164.554419a60.963721 60.963721 0 0 1 121.927442 0v26.052465a323.314109 323.314109 0 0 1 121.768682 50.453829l18.439938-18.432a60.963721 60.963721 0 0 1 86.21445 86.21445l-18.432 18.432a323.314109 323.314109 0 0 1 50.453829 121.768682h26.052465a60.963721 60.963721 0 0 1 60.963721 60.971659z" fill="#A5A5A5" p-id="7808"></path><path d="M747.297736 510.015504c0 129.944806-105.344992 235.297736-235.297736 235.297736-129.944806 0-235.297736-105.344992-235.297736-235.297736 0-129.944806 105.344992-235.297736 235.297736-235.297737 129.944806 0 235.297736 105.344992 235.297736 235.297737z" fill="#CCCAC4" p-id="7809"></path><path d="M576.170667 510.015504a64.170667 64.170667 0 0 1-64.170667 64.170667 64.170667 64.170667 0 0 1-64.170667-64.170667 64.170667 64.170667 0 0 1 64.170667-64.170667 64.170667 64.170667 0 0 1 64.170667 64.170667z" fill="#FFFFFF" p-id="7810"></path><path d="M30.219907 613.185488a16.042667 16.042667 0 0 1-18.39231-13.288186l-0.341333-2.103566a16.042667 16.042667 0 0 1 31.680496-5.112062l0.341333 2.111504a16.034729 16.034729 0 0 1-13.288186 18.39231z m40.952062 72.418233a16.034729 16.034729 0 1 0-28.441798 14.844031l0.992248 1.905116a16.034729 16.034729 0 1 0 28.441798-14.851969l-0.992248-1.897178zM36.054326 510.015504v-2.230574a16.042667 16.042667 0 0 0-15.995039-16.090294h-0.047628a16.042667 16.042667 0 0 0-16.034729 16.002976L3.968992 510.015504a16.034729 16.034729 0 1 0 32.085334 0z m916.773705-175.588217a16.034729 16.034729 0 1 0 28.441798-14.844031l-0.98431-1.905116a16.034729 16.034729 0 1 0-28.449736 14.844031l0.992248 1.905116zM656.360186 557.564031a16.034729 16.034729 0 0 0-21.38493 7.588713c-0.444527 0.952558-0.912868 1.88924-1.381209 2.825923a16.042667 16.042667 0 0 0 28.679937 14.391566c0.571535-1.135132 1.127194-2.270264 1.674915-3.42921a16.034729 16.034729 0 0 0-7.588713-21.376992zM22.059659 462.014512a16.050605 16.050605 0 0 0 17.971597-13.843845C70.663938 212.095008 273.56676 34.069829 512 34.069829a16.034729 16.034729 0 1 0 0-32.085333 507.380093 507.380093 0 0 0-336.594357 127.499907c-92.08062 81.499287-151.448806 193.210543-167.189829 314.558512a16.042667 16.042667 0 0 0 13.843845 17.971597z m958.432248-36.776683l0.341333 2.111504a16.042667 16.042667 0 1 0 31.672558-5.112062l-0.333395-2.111504a16.034729 16.034729 0 1 0-31.680496 5.112062zM512 761.355907c-138.597209 0-251.340403-112.751132-251.340403-251.340403 0-138.597209 112.751132-251.340403 251.340403-251.340403 138.597209 0 251.340403 112.751132 251.340403 251.340403 0 138.597209-112.751132 251.340403-251.340403 251.340403z m0-32.085333c120.895504 0 219.25507-98.351628 219.25507-219.25507 0-120.895504-98.351628-219.25507-219.25507-219.25507-120.895504 0-219.25507 98.351628-219.25507 219.25507 0 120.895504 98.351628 219.25507 219.25507 219.25507z m489.932403-171.254078a16.042667 16.042667 0 0 0-17.963659 13.843845c-30.624744 236.075659-233.527566 414.100837-471.968744 414.100837a16.034729 16.034729 0 1 0 0 32.085334 507.372155 507.372155 0 0 0 336.594357-127.499907c92.072682-81.499287 151.448806-193.210543 167.189829-314.558512a16.034729 16.034729 0 0 0-13.843845-17.971597z m2.055938-64.043659a16.042667 16.042667 0 0 0-16.042667 16.050605v2.175008a16.034729 16.034729 0 0 0 15.955349 16.129984h0.07938c8.819101 0 15.995039-7.120372 16.042667-15.955349l0.007938-2.357581a16.034729 16.034729 0 0 0-16.042667-16.034729zM512 932.482977c-42.468217 0-77.006388-34.546109-77.006388-77.006388v-13.026232a336.983318 336.983318 0 0 1-103.590697-42.928621l-9.231876 9.223938c-30.021457 30.029395-78.871814 30.029395-108.909148 0-30.021457-30.021457-30.021457-78.871814 0-108.909147l9.231876-9.216a336.93569 336.93569 0 0 1-42.920682-103.590698H166.538915c-42.468217 0-77.006388-34.546109-77.006388-77.014325 0-42.460279 34.546109-76.99845 77.006388-76.99845h13.026232a336.983318 336.983318 0 0 1 42.92862-103.598635l-9.231876-9.223938c-30.021457-30.029395-30.021457-78.879752 0-108.909148 30.029395-30.021457 78.879752-30.021457 108.909148 0l9.223938 9.223938a336.93569 336.93569 0 0 1 103.590697-42.920682V164.554419c0-42.468217 34.546109-77.006388 77.014326-77.006388 42.460279 0 76.99845 34.546109 76.99845 77.006388v13.026232a336.967442 336.967442 0 0 1 103.598635 42.92862l9.223938-9.231876c30.029395-30.021457 78.88769-30.013519 108.909148 0 30.021457 30.029395 30.021457 78.88769 0 108.909148l-9.223938 9.231876a336.967442 336.967442 0 0 1 42.920682 103.590697h13.03417c42.460279 0 76.99845 34.546109 76.99845 76.99845 0 42.468217-34.538171 77.014326-76.99845 77.014325h-13.03417A336.991256 336.991256 0 0 1 801.506233 690.604651l9.223938 9.223938c30.021457 30.029395 30.021457 78.879752 0 108.909147-30.021457 30.021457-78.879752 30.021457-108.909148 0l-9.223938-9.223938a336.911876 336.911876 0 0 1-103.590697 42.920683v13.026232c0 42.468217-34.546109 77.014326-77.006388 77.014326z m0-32.085334a44.97662 44.97662 0 0 0 44.921054-44.921054v-26.052465c0-7.715721 5.477209-14.328062 13.050047-15.764837a305.715597 305.715597 0 0 0 115.735814-47.945427 16.042667 16.042667 0 0 1 20.376806 1.905117l18.432 18.439938a44.960744 44.960744 0 0 0 63.519752 0 44.968682 44.968682 0 0 0 0-63.52769L769.603473 704.099225a16.042667 16.042667 0 0 1-1.913054-20.376806 305.755287 305.755287 0 0 0 47.953364-115.735814 16.042667 16.042667 0 0 1 15.764837-13.050047h26.052465a44.97662 44.97662 0 0 0 44.921055-44.921054 44.97662 44.97662 0 0 0-44.928993-44.913116h-26.052465c-7.699845 0-14.320124-5.485147-15.756899-13.057985a305.731473 305.731473 0 0 0-47.953364-115.735814 16.050605 16.050605 0 0 1 1.913054-20.368868l18.432-18.432a44.968682 44.968682 0 0 0 0-63.52769 44.968682 44.968682 0 0 0-63.519752 0l-18.439938 18.432a16.042667 16.042667 0 0 1-20.368868 1.920992 305.739411 305.739411 0 0 0-115.735814-47.953364 16.034729 16.034729 0 0 1-13.050047-15.764837V164.554419a44.97662 44.97662 0 0 0-44.921054-44.921055 44.97662 44.97662 0 0 0-44.921054 44.921055v26.052465a16.034729 16.034729 0 0 1-13.057985 15.764837 305.691783 305.691783 0 0 0-115.735814 47.953364 16.042667 16.042667 0 0 1-20.368868-1.920992l-18.432-18.432a44.968682 44.968682 0 0 0-63.519752 0 44.968682 44.968682 0 0 0 0 63.52769l18.432 18.432c5.445457 5.453395 6.255132 14.010543 1.913054 20.376806a305.707659 305.707659 0 0 0-47.945426 115.735814 16.034729 16.034729 0 0 1-15.764837 13.050047H166.538915a44.97662 44.97662 0 0 0-44.921055 44.921054 44.97662 44.97662 0 0 0 44.921055 44.921054h26.052465c7.707783 0 14.328062 5.477209 15.764837 13.050047a305.691783 305.691783 0 0 0 47.945426 115.735814c4.342078 6.366264 3.540341 14.923411-1.905116 20.368868l-18.439938 18.432a44.968682 44.968682 0 0 0 0 63.52769 44.968682 44.968682 0 0 0 63.52769 0l18.432-18.432a16.018853 16.018853 0 0 1 20.368868-1.920993 305.715597 305.715597 0 0 0 115.735814 47.961303 16.034729 16.034729 0 0 1 13.057985 15.756899v26.052465c0 24.77445 20.154543 44.928992 44.921054 44.928992zM419.165271 413.81507A133.04062 133.04062 0 0 1 512 376.323969c73.720062 0 133.691535 59.971473 133.691535 133.691535a16.034729 16.034729 0 1 0 32.085333 0c0-91.413829-74.370977-165.776868-165.776868-165.776868a164.951318 164.951318 0 0 0-115.124589 46.484837 16.050605 16.050605 0 0 0 22.28986 23.091597zM512 429.802171c44.23045 0 80.213333 35.982884 80.213333 80.213333S556.23045 590.228837 512 590.228837 431.786667 554.245953 431.786667 510.015504 467.76955 429.802171 512 429.802171z m0 32.085333a48.183566 48.183566 0 0 0-48.128 48.128 48.183566 48.183566 0 0 0 48.128 48.128 48.183566 48.183566 0 0 0 48.128-48.128 48.183566 48.183566 0 0 0-48.128-48.128z m117.228155 165.348217a16.042667 16.042667 0 0 0-22.694698-22.68676A132.818357 132.818357 0 0 1 512 643.707039c-73.720062 0-133.691535-59.971473-133.691535-133.691535a16.034729 16.034729 0 1 0-32.085333 0c0 91.413829 74.370977 165.784806 165.776868 165.784806a164.729054 164.729054 0 0 0 117.228155-48.564589zM370.997581 460.927008a16.002977 16.002977 0 0 0 21.226171-8.017365l1.079566-2.333767a16.034729 16.034729 0 1 0-28.981582-13.756527c-0.452465 0.952558-0.896992 1.913054-1.333581 2.87355a16.042667 16.042667 0 0 0 8.009426 21.234109z" fill="#4C4C4C" p-id="7811"></path></svg>