<?xml version="1.0" standalone="no"?><!DOCTYPE svg PUBLIC "-//W3C//DTD SVG 1.1//EN" "http://www.w3.org/Graphics/SVG/1.1/DTD/svg11.dtd"><svg t="1513245716231" class="icon" style="" viewBox="0 0 1024 1024" version="1.1" xmlns="http://www.w3.org/2000/svg" p-id="8205" xmlns:xlink="http://www.w3.org/1999/xlink" width="200" height="200"><defs><style type="text/css"></style></defs><path d="M618.956403 895.047442c0 59.074481-47.88986 106.956403-106.956403 106.956403s-106.956403-47.881922-106.956403-106.956403V424.451969h213.904868v470.595473z" fill="#A384E2" p-id="8206"></path><path d="M447.829333 937.833178a42.785736 42.785736 0 0 1-42.785736-42.785736V595.586977a42.785736 42.785736 0 1 1 85.563535 0v299.468403a42.785736 42.785736 0 0 1-42.785737 42.785736z" fill="#CDBDFF" p-id="8207"></path><path d="M1003.988341 103.590698c0 47.254822-38.308713 85.563535-85.563535 85.563535h-21.392868L753.949767 503.96676a265.755783 265.755783 0 1 1-483.87572 0L126.968062 189.154233H105.575194c-47.254822 0-85.563535-38.308713-85.563535-85.563535S58.320372 18.027163 105.575194 18.027163h812.849612c47.254822 0 85.563535 38.308713 85.563535 85.563535z" fill="#B69CF7" p-id="8208"></path><path d="M687.016682 146.376434v42.777799l-104.066977 228.955286a193.281984 193.281984 0 0 1-351.906728 0L126.960124 189.154233v-42.785737h560.04862z" fill="#CDBDFF" p-id="8209"></path><path d="M20.011659 103.590698h983.976682c0 47.254822-38.308713 85.563535-85.563535 85.563535H105.575194c-47.254822 0-85.563535-38.308713-85.563535-85.563535z" fill="#A384E2" p-id="8210"></path><path d="M918.424806 1.984496H105.575194C49.548899 1.984496 3.968992 47.564403 3.968992 103.590698c0 56.026295 45.579907 101.606202 101.606202 101.606201h11.057612l138.819473 305.406016c27.655938 60.836713 75.553736 108.62338 133.548651 136.819101v247.625426c0 67.82214 55.168992 122.99907 122.99907 122.99907 67.82214 0 122.99907-55.17693 122.99907-122.99907V647.429953c57.994915-28.203659 105.892713-75.990326 133.540713-136.827038l138.827411-305.406016h11.057612c56.026295 0 101.606202-45.579907 101.606202-101.606201 0-56.026295-45.579907-101.606202-101.606202-101.606202zM602.913736 895.047442c0 50.128372-40.785364 90.913736-90.913736 90.913736-50.128372 0-90.913736-40.785364-90.913736-90.913736V660.662574a280.647442 280.647442 0 0 0 181.827472 0v234.384868z m136.414264-397.724775C698.907783 586.251907 609.676899 643.707039 512 643.707039c-97.676899 0-186.915721-57.455132-227.335938-146.376434L151.877457 205.196899h720.237148L739.328 497.322667z m-120.371597-377.689303h367.115907c-7.255318 30.624744-34.831876 53.478202-67.647504 53.478202H105.575194c-38.332527 0-69.520868-31.188341-69.520868-69.520868 0-38.340465 31.188341-69.520868 69.520868-69.520869h812.849612c32.815628 0 60.392186 22.853457 67.647504 53.478202H618.964341a16.034729 16.034729 0 1 0 0 32.085333z m-69.520868-16.042666a16.034729 16.034729 0 0 1-16.042667 16.042666h-2.143256a16.034729 16.034729 0 1 1 0-32.085333h2.143256a16.034729 16.034729 0 0 1 16.034729 16.042667z" fill="#4C4C4C" p-id="8211"></path></svg>