<?xml version="1.0" standalone="no"?><!DOCTYPE svg PUBLIC "-//W3C//DTD SVG 1.1//EN" "http://www.w3.org/Graphics/SVG/1.1/DTD/svg11.dtd"><svg t="1513245719329" class="icon" style="" viewBox="0 0 1024 1024" version="1.1" xmlns="http://www.w3.org/2000/svg" p-id="8338" xmlns:xlink="http://www.w3.org/1999/xlink" width="200" height="200"><defs><style type="text/css"></style></defs><path d="M103.590698 831.011721h812.849612c47.254822 0 85.563535 38.276961 85.563535 85.492093 0 47.215132-38.308713 85.492093-85.563535 85.492093H103.590698c-47.254822 0-85.563535-38.276961-85.563535-85.492093 0-47.215132 38.308713-85.492093 85.563535-85.492093z" fill="#DBD8D2" p-id="8339"></path><path d="M339.428217 248.562109c-7.24738-9.17631-7.24738-24.052093 0-33.236342L483.772527 32.553674c14.49476-18.35262 37.991194-18.35262 52.485954 0L680.602791 215.325767c7.24738 9.17631 7.24738 24.052093 0 33.228404-3.476837 4.405581-8.199938 6.890171-13.121489 6.89017h-50.517333v677.094202H403.059101V255.444341h-50.517334c-4.92155 0-9.636713-2.484589-13.11355-6.882232z" fill="#84A7B7" p-id="8340"></path><path d="M820.18431 643.984868c0 61.868651-50.37445 112.211349-112.298667 112.211349H365.623566c-44.23045 0-80.213333 35.95907-80.213333 80.14983 0 44.198698 35.982884 80.157767 80.213333 80.157767h37.435535v16.034729H307.850915c-32.640992-19.65445-54.526016-55.407132-54.526016-96.184559 0-61.876589 50.37445-112.219287 112.298667-112.219286h342.254139c44.23045 0 80.213333-35.95907 80.213334-80.14983 0-44.198698-35.982884-80.157767-80.213334-80.157767H616.963969v-32.053582h90.913736c61.924217 0 112.306605 50.33476 112.306605 112.211349z m72.394419-536.568062l-65.647132-83.126573c-6.596465-8.35076-17.28893-8.35076-23.877457 0l-65.647132 83.126573c-3.302202 4.167442-3.302202 10.938543 0 15.113923 1.579659 2.000372 3.730853 3.127566 5.961426 3.127566h71.616496v144.272868c0 38.308713-31.180403 69.47324-69.51293 69.47324H365.623566c-61.916279 0-112.298667 50.33476-112.298667 112.211349 0 61.876589 50.382388 112.211349 112.298667 112.211349h37.975318v-32.053582H365.623566c-44.23045 0-80.213333-35.95907-80.213333-80.157767 0-44.198698 35.982884-80.157767 80.213333-80.157768H745.472c56.026295 0 101.606202-45.540217 101.606202-101.526821V125.658295h39.531162c2.238512 0 4.389705-1.127194 5.969365-3.127566 3.294264-4.17538 3.294264-10.946481 0-15.113923z" fill="#FC8059" p-id="8341"></path><path d="M916.44031 814.969054H633.014574v-29.910325a16.034729 16.034729 0 1 0-32.085334 0v115.410356H419.101767V788.265674a16.034729 16.034729 0 1 0-32.077395 0v26.70338h-44.079628a16.034729 16.034729 0 1 0 0 32.085334h44.07169v53.406759H349.588837c-44.23045 0-80.213333-35.943194-80.213333-80.141891 0-44.182822 35.982884-80.133953 80.213333-80.133954h342.25414c61.924217 0 112.298667-50.350636 112.298666-112.227224 0-61.892465-50.37445-112.235163-112.298666-112.235163h-58.820465V403.527442a16.034729 16.034729 0 1 0-32.085334 0v304.572527H419.101767v-304.580465a16.034729 16.034729 0 1 0-32.077395 0V515.730853H349.588837c-44.23045 0-80.213333-35.943194-80.213333-80.133954 0-44.19076 35.974946-80.141891 80.213333-80.141891H729.421395c56.026295 0 101.606202-45.556093 101.606202-101.542698V141.700961h55.573829c7.160062 0 13.923225-3.357767 18.559008-9.223938v-0.007938c7.874481-9.978047 7.874481-25.020527 0-34.998573l-65.647132-83.126574c-6.207504-7.858605-15.145674-12.359442-24.528372-12.359442s-18.320868 4.508775-24.528372 12.359442l-65.647132 83.126574c-7.882419 9.978047-7.882419 25.020527 0 35.006511 4.635783 5.858233 11.398946 9.223938 18.559008 9.223938h55.565892v112.203411c0 38.292837-31.180403 69.457364-69.512931 69.457364H633.014574V271.47907h34.466728c9.827225 0 19.201984-4.738977 25.71907-12.986543 11.756155-14.891659 11.756155-38.221395 0-53.113054L548.848124 22.60738C538.870078 9.985984 524.716651 2.746543 510.015504 2.746543c-14.709085 0-28.862512 7.239442-38.83262 19.860837L326.838574 205.387411c-11.764093 14.891659-11.764093 38.221395 0 53.113054 6.509147 8.255504 15.883907 12.986543 25.711131 12.986543h34.466729v51.874728H349.588837c-61.916279 0-112.298667 50.342698-112.298666 112.227225S287.672558 547.816186 349.588837 547.816186h37.435535v160.283783H349.588837c-60.122295 0-109.36955 47.461209-112.171659 106.869085H103.590698c-56.026295 0-101.606202 45.556093-101.606202 101.542698s45.579907 101.53476 101.606202 101.53476h812.849612c56.026295 0 101.606202-45.548155 101.606202-101.542698 0-55.986605-45.579907-101.53476-101.606202-101.53476zM633.014574 547.80031h58.820465c44.238388 0 80.213333 35.95907 80.213333 80.141892 0 44.19076-35.974946 80.141891-80.213333 80.141891h-58.820465V547.808248zM756.108899 109.623566l58.883969-74.561488 58.883969 74.561488H756.108899z m-403.289302 129.786046a3.667349 3.667349 0 0 1-0.809675-0.793798c-2.651287-3.365705-2.651287-9.970109 0-13.335814L496.362171 42.484093c3.905488-4.937426 8.747659-7.660155 13.653333-7.660155 4.905674 0 9.747845 2.722729 13.653333 7.660155L668.013147 225.28c2.659225 3.365705 2.659225 9.970109 0 13.335814a3.532403 3.532403 0 0 1-0.801736 0.78586h-50.247442a16.034729 16.034729 0 0 0-16.034729 16.042667v67.917395H419.101767v-67.917395a16.034729 16.034729 0 0 0-16.034728-16.042667h-50.247442z m563.620713 746.559504H103.590698c-38.332527 0-69.520868-31.156589-69.520869-69.457364 0-38.292837 31.188341-69.457364 69.520869-69.457364h136.906418a112.235163 112.235163 0 0 0 30.545365 53.422635h-146.058915a16.034729 16.034729 0 1 0 0 32.077396h770.063876a16.034729 16.034729 0 1 0 0-32.077396h-262.032868v-53.422635h283.425736c38.340465 0 69.520868 31.164527 69.520868 69.457364 0 38.300775-31.188341 69.457364-69.520868 69.457364z" fill="#4C4C4C" p-id="8342"></path></svg>