<?xml version="1.0" standalone="no"?><!DOCTYPE svg PUBLIC "-//W3C//DTD SVG 1.1//EN" "http://www.w3.org/Graphics/SVG/1.1/DTD/svg11.dtd"><svg t="1513245710084" class="icon" style="" viewBox="0 0 1129 1024" version="1.1" xmlns="http://www.w3.org/2000/svg" p-id="7938" xmlns:xlink="http://www.w3.org/1999/xlink" width="220.5078125" height="200"><defs><style type="text/css"></style></defs><path d="M1112.090483 902.797241c0 52.276966-42.372414 94.649379-94.64938 94.64938H112.489931c-52.276966 0-94.649379-42.372414-94.649379-94.64938 0-52.268138 42.372414-94.649379 94.649379-94.649379h904.951172c52.268138 0 94.649379 42.372414 94.64938 94.649379z" fill="#A5A5A5" p-id="7939"></path><path d="M1040.728276 240.772414V760.32c0 52.550621-42.601931 95.161379-95.161379 95.161379h-761.202759c-52.559448 0-95.161379-42.610759-95.161379-95.161379V240.772414c0-52.550621 42.601931-95.152552 95.161379-95.152552h761.202759c52.559448 0 95.161379 42.601931 95.161379 95.152552z" fill="#CCCAC4" p-id="7940"></path><path d="M945.575724 808.147862H184.35531a47.58069 47.58069 0 0 1-47.580689-47.58069V240.525241a47.58069 47.58069 0 0 1 47.580689-47.571862h761.220414a47.58069 47.58069 0 0 1 47.58069 47.58069v520.050759a47.58069 47.58069 0 0 1-47.58069 47.580689z" fill="#F2EFE2" p-id="7941"></path><path d="M897.995034 311.375448v378.341518a23.790345 23.790345 0 0 1-23.790344 23.790344H255.717517a23.790345 23.790345 0 0 1-23.781517-23.790344V311.375448a23.790345 23.790345 0 0 1 23.781517-23.781517h618.496a23.790345 23.790345 0 0 1 23.781517 23.781517z" fill="#FFE6AE" p-id="7942"></path><path d="M897.995034 311.26069v378.579862c0 13.064828-10.646069 23.657931-23.790344 23.657931H255.717517a23.746207 23.746207 0 0 1-23.657931-21.195035l190.984828-189.969655h213.28331c4.634483 0 9.074759-1.783172 12.393931-4.978759l218.244414-209.761103h7.238621c13.144276 0 23.790345 10.593103 23.790344 23.657931z" fill="#FCBB9A" p-id="7943"></path><path d="M1111.940414 40.96l-13.797517 116.418207c-0.688552 5.843862-6.011586 11.140414-11.890759 11.828965-2.824828 0.335448-5.393655-0.467862-7.150345-2.224551l-26.544552-26.394483L659.870897 518.002759c-3.319172 3.204414-7.768276 4.987586-12.393931 4.987586H434.193655L214.810483 741.208276a17.831724 17.831724 0 0 1-12.614621 5.199448 17.840552 17.840552 0 0 1-12.614621-5.199448 17.681655 17.681655 0 0 1 0-25.096828L414.190345 492.694069a17.88469 17.88469 0 0 1 12.605793-5.190621H640.264828l387.054344-372.020965-60.857379-60.530759c-1.765517-1.747862-2.56-4.307862-2.224552-7.115034 0.688552-5.843862 6.011586-11.149241 11.890759-11.828966l117.036138-13.726896c11.758345-1.368276 20.162207 6.991448 18.776276 18.679172z" fill="#FC8059" p-id="7944"></path><path d="M1052.830897 796.133517c3.707586-11.105103 5.737931-22.969379 5.737931-35.310345v-520.562758c0-5.737931-0.441379-11.493517-1.306483-17.125517a17.831724 17.831724 0 1 0-35.266207 5.420137c0.591448 3.848828 0.882759 7.785931 0.882759 11.714207v520.553931c0 42.354759-34.674759 76.8-77.312 76.8h-761.202759c-42.637241 0-77.320828-34.445241-77.320828-76.8v-520.562758c0-42.345931 34.683586-76.8 77.312-76.8h713.639724a17.831724 17.831724 0 1 0 0-35.681104H184.35531c-62.305103 0-112.993103 50.458483-112.993103 112.489931v520.562759c0 12.32331 2.030345 24.187586 5.737931 35.301517C31.849931 811.140414 0 853.512828 0 902.797241c0 62.022621 50.688 112.489931 112.993103 112.489931h903.944828c62.305103 0 112.993103-50.46731 112.993103-112.489931 0-49.275586-31.849931-91.656828-77.100137-106.663724z m-35.892966 183.472552H112.993103c-42.637241 0-77.312-34.454069-77.312-76.808828 0-35.654621 24.452414-66.030345 58.350345-74.460689a113.054897 113.054897 0 0 0 90.323862 44.976551h761.220414c36.881655 0 69.684966-17.681655 90.315035-44.976551 33.897931 8.430345 58.359172 38.806069 58.359172 74.460689 0 42.354759-34.683586 76.8-77.312 76.8zM953.882483 67.601655l44.491034 44.261517-369.22262 354.886621H415.646897a17.831724 17.831724 0 0 0-12.588138 5.190621L178.46731 695.348966a17.831724 17.831724 0 1 0 25.158621 25.299862l219.383172-218.217931h213.318621a17.831724 17.831724 0 0 0 12.358621-4.978759l374.995862-360.421517 42.831448 42.610758a26.041379 26.041379 0 0 0 18.502621 7.485793c1.103448 0 2.206897-0.070621 3.319172-0.194206 14.035862-1.650759 25.864828-13.453241 27.533242-27.453794l13.797517-116.418206c1.297655-11.008-2.171586-21.53931-9.524966-28.910345-7.379862-7.38869-17.95531-10.893241-29.042758-9.577931l-117.053793 13.718069c-14.027034 1.641931-25.864828 13.444414-27.524414 27.453793-0.979862 8.253793 1.703724 16.216276 7.353379 21.857103z m140.190896-27.453793l-12.35862 104.280276L989.228138 52.435862l104.845241-12.296828zM380.610207 926.455172a17.831724 17.831724 0 0 1-17.840552 17.831725H172.464552a17.831724 17.831724 0 1 1 0-35.672276h190.305103a17.831724 17.831724 0 0 1 17.831724 17.831724z m594.696827 0a17.831724 17.831724 0 0 1-17.831724 17.831725H600.637793a17.831724 17.831724 0 1 1 0-35.672276h356.819862a17.831724 17.831724 0 0 1 17.840552 17.831724z m-437.698206 0a17.831724 17.831724 0 0 1-17.840552 17.831725h-2.383448a17.831724 17.831724 0 1 1 0-35.672276h2.383448a17.831724 17.831724 0 0 1 17.840552 17.831724z m-73.745656 0a17.831724 17.831724 0 0 1-17.831724 17.831725h-2.383448a17.831724 17.831724 0 1 1 0-35.672276h2.383448a17.831724 17.831724 0 0 1 17.831724 17.831724z" fill="#4C4C4C" p-id="7945"></path></svg>