<?xml version="1.0" standalone="no"?><!DOCTYPE svg PUBLIC "-//W3C//DTD SVG 1.1//EN" "http://www.w3.org/Graphics/SVG/1.1/DTD/svg11.dtd"><svg t="1513245697385" class="icon" style="" viewBox="0 0 1467 1024" version="1.1" xmlns="http://www.w3.org/2000/svg" p-id="7412" xmlns:xlink="http://www.w3.org/1999/xlink" width="286.5234375" height="200"><defs><style type="text/css"></style></defs><path d="M1193.756444 992.0512H273.976889c-67.720533 0-122.629689-54.909156-122.629689-122.641067V148.900978c0-67.731911 54.909156-122.641067 122.641067-122.641067h919.779555c67.731911 0 122.641067 54.909156 122.641067 122.641067v720.509155c0 67.731911-54.909156 122.652444-122.652445 122.652445z" fill="#E9F2F4" p-id="7413"></path><path d="M1316.408889 188.0064V870.058667c0 67.367822-54.909156 121.992533-122.641067 121.992533h-919.779555c-67.743289 0-122.652444-54.613333-122.652445-121.992533V179.2l518.223645 309.100089a147.922489 147.922489 0 0 0 152.359822-0.534756l494.478222-299.747555z" fill="#CFDFE2" p-id="7414"></path><path d="M1431.313067 572.5184l-90.8288 121.116444c-4.551111 6.075733-13.9264 8.578844-20.935111 5.575112-3.367822-1.444978-5.723022-3.982222-6.5536-7.054223l-13.459912-49.948444-1056.1536 284.501333-14.859377 3.959467c-13.903644 3.709156-27.875556 5.472711-41.631289 5.472711-71.0656 0-136.260267-47.240533-155.511467-118.692978-22.948978-85.185422 27.989333-173.056 113.550222-196.039111l6.417067-1.865955v47.684266c-57.742222 18.614044-91.431822 79.394133-75.548444 138.376534 16.418133 60.916622 79.576178 97.211733 140.822755 80.873244l14.802489-3.948089 1056.210489-284.524089-27.773156-103.1168c-0.830578-3.083378-0.068267-6.462578 2.116267-9.375289 4.562489-6.075733 13.937778-8.578844 20.946489-5.575111l139.525689 59.6992c14.017422 5.996089 17.976889 20.718933 8.863289 32.881778z" fill="#84A7B7" p-id="7415"></path><path d="M1169.316978 744.470756a22.994489 22.994489 0 0 1-16.304356 28.137244l-296.527644 78.939022a23.005867 23.005867 0 0 1-11.832889-44.4416l296.527644-78.939022a23.005867 23.005867 0 0 1 28.137245 16.304356z m280.3712-158.151112l-90.9312 121.116445c-10.877156 14.506667-31.687111 20.0704-48.389689 12.925155-9.864533-4.221156-17.055289-12.322133-19.729067-22.2208l-17.567289-65.137777L220.615111 916.138667l-14.882133 3.970844c-5.745778 1.524622-11.491556 2.730667-17.237334 3.606756 17.976889 27.886933 49.152 45.340444 83.990756 45.340444h920.974222c55.034311 0 99.805867-44.407467 99.805867-98.986667v-80.327111a22.983111 22.983111 0 1 1 45.988978 0v80.327111c0 79.940267-65.399467 144.975644-145.794845 144.975645H272.475022c-60.7232 0-113.891556-36.443022-135.68-91.818667C76.8 912.907378 25.1904 869.034667 8.408178 806.843733a158.458311 158.458311 0 0 1 15.894755-121.298489 159.937422 159.937422 0 0 1 97.814756-74.934044l4.562489-1.3312V179.564089 148.252444c0-79.940267 65.410844-144.987022 145.794844-144.987022h920.974222c80.395378 0 145.794844 65.035378 145.794845 144.987022V399.36a22.983111 22.983111 0 1 1-45.988978 0V228.807111L833.035378 507.448889a170.814578 170.814578 0 0 1-176.2304 0.625778l-484.124445-288.403911v594.488888a22.983111 22.983111 0 1 1-45.988977 0V657.225956a114.062222 114.062222 0 0 0-62.555023 51.291022 112.776533 112.776533 0 0 0-11.320889 86.311822c16.429511 60.905244 79.724089 97.154844 141.084445 80.816356l14.825244-3.948089 1052.3648-283.113245-23.665777-87.722666c-2.673778-9.944178-0.500622-20.5824 5.950577-29.172623 10.888533-14.506667 31.687111-20.0704 48.389689-12.925155l139.707734 59.721955c13.232356 5.654756 22.823822 16.361244 26.305422 29.354667 3.470222 12.982044 0.523378 26.999467-8.078222 38.468267zM172.691911 166.138311l507.665067 302.421333c39.822222 23.734044 89.201778 23.552 128.876089-0.455111l484.033422-293.034666V148.252444c0-54.590578-44.771556-98.998044-99.805867-98.998044H272.475022c-55.034311 0-99.794489 44.407467-99.794489 98.998044v17.874489zM1411.857067 560.128l-125.246578-53.532444 43.7248 162.0992 81.521778-108.566756z m-567.204978 45.397333l-2.9696 0.796445a22.983111 22.983111 0 1 0 11.844267 44.430222l2.958222-0.796444a22.983111 22.983111 0 1 0-11.832889-44.430223z m-115.632356 30.776889l-2.958222 0.796445A22.994489 22.994489 0 0 0 737.848889 681.528889l2.958222-0.785067a22.994489 22.994489 0 0 0-11.798755-44.452978z m26.692267 194.480356l-2.9696 0.785066a22.994489 22.994489 0 0 0 11.798756 44.4416l2.958222-0.785066a22.994489 22.994489 0 0 0-11.798756-44.452978z m385.479111-304.196267l-207.587555 55.250489a22.994489 22.994489 0 0 0 11.832888 44.452978l207.576178-55.261867a22.994489 22.994489 0 0 0-11.832889-44.4416z" fill="#4C4C4C" p-id="7416"></path></svg>