<?xml version="1.0" standalone="no"?><!DOCTYPE svg PUBLIC "-//W3C//DTD SVG 1.1//EN" "http://www.w3.org/Graphics/SVG/1.1/DTD/svg11.dtd"><svg t="1513245682082" class="icon" style="" viewBox="0 0 1032 1024" version="1.1" xmlns="http://www.w3.org/2000/svg" p-id="6731" xmlns:xlink="http://www.w3.org/1999/xlink" width="201.5625" height="200"><defs><style type="text/css"></style></defs><path d="M1009.832 167.072v64.672H18.168v-64.672c0-47.624 38.608-86.232 86.232-86.232h819.2c47.624 0 86.232 38.608 86.232 86.24z" fill="#A5A5A5" p-id="6732"></path><path d="M1009.832 210.192v603.624c0 47.624-38.608 86.224-86.232 86.224H104.4c-47.624 0-86.232-38.6-86.232-86.224V210.184h129.344V59.28a43.12 43.12 0 0 1 43.12-43.112h172.464a43.12 43.12 0 0 1 43.12 43.12v150.904h603.616z" fill="#E9F2F4" p-id="6733"></path><path d="M902.04 522.776V759.92a43.12 43.12 0 0 1-43.12 43.12h-689.84a43.12 43.12 0 0 1-43.12-43.12V522.776a43.12 43.12 0 0 1 43.12-43.12h689.84a43.12 43.12 0 0 1 43.12 43.12zM169.08 393.44h194.016a43.12 43.12 0 1 0 0-86.232H169.072a43.12 43.12 0 1 0 0 86.232z m344.92 0h344.928a43.12 43.12 0 1 0 0-86.232H514a43.12 43.12 0 1 0 0 86.232z" fill="#CFDFE2" p-id="6734"></path><path d="M406.208 59.28v150.912H147.52V59.28a43.12 43.12 0 0 1 43.12-43.112h172.464a43.12 43.12 0 0 1 43.12 43.12z" fill="#C3E4ED" p-id="6735"></path><path d="M363.096 91.624v43.12a21.56 21.56 0 0 1-21.56 21.552H212.184a21.56 21.56 0 0 1-21.552-21.56v-43.12a21.56 21.56 0 0 1 21.552-21.552h129.352a21.552 21.552 0 0 1 21.56 21.56z" fill="#B2D1D8" p-id="6736"></path><path d="M858.296 885.728a56.352 56.352 0 0 1-76.984 20.632l-24.64-14.24a168.872 168.872 0 0 1-53.512 30.936v28.416a56.352 56.352 0 0 1-112.704 0v-28.416a168.816 168.816 0 0 1-53.504-30.928l-24.64 14.224a56.352 56.352 0 0 1-56.352-97.608l24.616-14.208a169.912 169.912 0 0 1 0-61.808l-24.624-14.216a56.352 56.352 0 1 1 56.352-97.608l24.648 14.224a168.872 168.872 0 0 1 53.504-30.928v-28.424a56.352 56.352 0 0 1 112.704 0v28.424a168.816 168.816 0 0 1 53.504 30.928l24.648-14.232a56.352 56.352 0 1 1 56.352 97.608l-24.616 14.224a169.912 169.912 0 0 1 0 61.808l24.624 14.216a56.352 56.352 0 0 1 20.624 76.976z" fill="#A5A5A5" p-id="6737"></path><path d="M759.52 763.632c0 62.24-50.464 112.712-112.704 112.712-62.248 0-112.712-50.464-112.712-112.72 0-62.24 50.456-112.704 112.704-112.704 62.248 0 112.712 50.464 112.712 112.712z" fill="#CCCAC4" p-id="6738"></path><path d="M703.168 763.632a56.352 56.352 0 1 1-112.712 0 56.352 56.352 0 0 1 112.712 0z" fill="#FFFFFF" p-id="6739"></path><path d="M788.864 144.44v2.16a16.168 16.168 0 0 1-32.336 0v-2.16a16.168 16.168 0 0 1 32.336 0z m48.504-16.168a16.168 16.168 0 0 0-16.168 16.16v2.16a16.168 16.168 0 0 0 32.336 0v-2.16a16.16 16.16 0 0 0-16.168-16.16z m64.672 0a16.168 16.168 0 0 0-16.16 16.16v2.16a16.168 16.168 0 0 0 32.328 0v-2.16a16.16 16.16 0 0 0-16.16-16.16z m123.96 38.8v646.744c0 56.456-45.936 102.4-102.4 102.4h-68.984c-0.776 0-1.52-0.08-2.272-0.184-22.488 16.432-53.48 19.128-79.12 4.328l-15.064-8.696a184.096 184.096 0 0 1-38.824 22.448v17.36c0 40-32.536 72.528-72.52 72.528-39.992 0-72.528-32.536-72.528-72.52v-17.36a183.912 183.912 0 0 1-38.824-22.456l-15.064 8.696c-25.536 14.744-56.4 12.128-78.88-4.152H104.4c-56.464 0-102.4-45.936-102.4-102.4V167.08c0-56.464 45.936-102.4 102.4-102.4h26.952v-5.384c0-32.696 26.592-59.288 59.28-59.288h172.464c32.688 0 59.28 26.592 59.28 59.28v5.392h501.224c56.464 0 102.4 45.936 102.4 102.4zM163.68 194.024h226.36V59.28a26.976 26.976 0 0 0-26.944-26.944H190.632a26.976 26.976 0 0 0-26.952 26.952v134.736z m-129.344 0h97.008V97.008H104.4c-38.632 0-70.064 31.44-70.064 70.064v26.952z m795.248 628.72l-24.624-14.208a16.16 16.16 0 0 1-7.816-16.944 154.328 154.328 0 0 0 0-55.928 16.16 16.16 0 0 1 7.816-16.944l24.624-14.216a40.24 40.24 0 0 0 14.712-54.896 40.24 40.24 0 0 0-54.896-14.704l-24.648 14.224a16.168 16.168 0 0 1-18.6-1.712 152.16 152.16 0 0 0-48.376-27.976 16.168 16.168 0 0 1-10.776-15.24v-28.424a40.232 40.232 0 0 0-40.184-40.184 40.232 40.232 0 0 0-40.192 40.184v28.424c0 6.848-4.32 12.96-10.776 15.24a152.144 152.144 0 0 0-48.376 27.976 16.168 16.168 0 0 1-18.6 1.72l-24.64-14.232a40.232 40.232 0 0 0-54.904 14.704 40.24 40.24 0 0 0 14.712 54.904l24.624 14.216a16.16 16.16 0 0 1 7.816 16.936 154.304 154.304 0 0 0 0 55.936 16.16 16.16 0 0 1-7.816 16.936l-24.624 14.216a40.232 40.232 0 0 0-14.712 54.896c2.2 3.808 4.952 7.096 8.064 9.872l0.136 0.112a40.24 40.24 0 0 0 46.696 4.72l24.648-14.224a16.128 16.128 0 0 1 18.6 1.72 152.144 152.144 0 0 0 48.376 27.968 16.16 16.16 0 0 1 10.776 15.24v28.424a40.232 40.232 0 0 0 40.184 40.184 40.232 40.232 0 0 0 40.192-40.184v-28.424c0-6.848 4.32-12.96 10.776-15.24a152.112 152.112 0 0 0 48.376-27.968 16.16 16.16 0 0 1 18.6-1.72l24.64 14.224a40.24 40.24 0 0 0 54.896-14.704 40.232 40.232 0 0 0-14.704-54.896z m164.08-596.384H34.336v587.448c0 38.64 31.432 70.064 70.064 70.064h312.152c-12.8-32.784-0.08-71 31.32-89.12l15.064-8.704a187.224 187.224 0 0 1 0-44.84l-15.064-8.696c-34.632-19.992-46.544-64.432-26.544-99.064 19.992-34.64 64.432-46.544 99.064-26.552l15.072 8.704a183.952 183.952 0 0 1 38.824-22.448v-17.376c0-39.984 32.536-72.52 72.528-72.52 39.984 0 72.52 32.536 72.52 72.528v17.36a183.848 183.848 0 0 1 38.824 22.456l15.064-8.704c34.64-19.992 79.08-8.08 99.072 26.552 20 34.624 8.088 79.072-26.544 99.064l-15.064 8.696a187.248 187.248 0 0 1 0 44.84l15.064 8.704c31.392 18.12 44.12 56.336 31.328 89.12h46.52c38.632 0 70.064-31.432 70.064-70.064V226.36z m0-59.28c0-38.64-31.432-70.072-70.064-70.072H422.376v97.016h571.28v-26.952h0.008zM775.688 763.624c0 71.064-57.816 128.88-128.88 128.88-71.056 0-128.88-57.816-128.88-128.88s57.824-128.88 128.88-128.88c71.064 0 128.88 57.816 128.88 128.88z m-32.336 0c0-53.232-43.304-96.544-96.536-96.544S550.272 710.4 550.272 763.632s43.304 96.536 96.536 96.536 96.544-43.304 96.544-96.536z m-24.016 0c0 39.992-32.536 72.52-72.52 72.52-39.992 0-72.528-32.536-72.528-72.52 0-39.992 32.536-72.528 72.528-72.528 39.984 0 72.52 32.536 72.52 72.528z m-32.336 0a40.232 40.232 0 0 0-40.184-40.184 40.232 40.232 0 0 0-40.184 40.184 40.232 40.232 0 0 0 40.184 40.184 40.232 40.232 0 0 0 40.184-40.184z" fill="#4C4C4C" p-id="6740"></path></svg>