<?xml version="1.0" standalone="no"?><!DOCTYPE svg PUBLIC "-//W3C//DTD SVG 1.1//EN" "http://www.w3.org/Graphics/SVG/1.1/DTD/svg11.dtd"><svg t="1513245645111" class="icon" style="" viewBox="0 0 1024 1024" version="1.1" xmlns="http://www.w3.org/2000/svg" p-id="5249" xmlns:xlink="http://www.w3.org/1999/xlink" width="200" height="200"><defs><style type="text/css"></style></defs><path d="M971.061581 407.734574c-19.233736-52.644713-77.879566-79.887876-130.738604-60.725582l-27.695628 10.041551-3.762605 1.595535a85.563535 85.563535 0 0 0-30.592992-43.436652L566.399008 156.91014a43.063566 43.063566 0 0 0-25.766698-8.557148h-57.26462c-9.287442 0-18.336744 3.000558-25.766698 8.557148l-211.864806 158.291348a85.452403 85.452403 0 0 0-34.363535 68.449241v192.43262c-1.825736 0-3.691163 0.301643-5.508961 0.952558L113.910078 610.391318C61.051039 629.545674 33.704682 687.96924 52.946357 740.613953c15.058357 41.214016 54.272 66.861643 95.954356 66.861644 11.557705 0 23.31386-1.976558 34.784248-6.136062l27.703566-10.041551V918.424806c0 47.254822 38.451597 85.563535 85.888992 85.563535h429.468776c47.437395 0 85.89693-38.308713 85.89693-85.563535V573.305054l97.470511-35.339907c52.843163-19.162295 80.189519-77.58586 60.963721-130.230573zM211.364713 757.156713l-38.71355 14.034357c-36.165457 13.105612-76.284031-5.532775-89.44521-41.547411-13.161178-36.022574 5.548651-75.998264 41.706171-89.111814l86.460527-31.339163v147.964031z m687.715225-249.347969l-86.452589 31.347101V390.144c1.825736 0 3.691163-0.293705 5.508961-0.952558l33.204589-12.033985c36.165457-13.11355 76.284031 5.524837 89.453148 41.547411 13.161178 36.022574-5.556589 75.998264-41.714109 89.103876z" fill="#B2D1D8" p-id="5250"></path><path d="M812.627349 383.650729v155.505116L211.364713 757.156713V383.658667c0-26.933581 12.732527-52.295442 34.363535-68.457179l211.864806-158.28341a43.063566 43.063566 0 0 1 25.774636-8.565086h57.256682c9.29538 0 18.336744 3.000558 25.774636 8.557148l211.864806 158.291348a85.452403 85.452403 0 0 1 34.371473 68.449241zM211.364713 918.424806c0 47.254822 38.459535 85.563535 85.89693 85.563535h429.476714c47.429457 0 85.888992-38.308713 85.888992-85.563535V573.305054L211.364713 791.305922V918.424806z" fill="#FC8059" p-id="5251"></path><path d="M554.944496 340.87293c0 23.63138-19.225798 42.785736-42.944496 42.785737s-42.944496-19.154357-42.944496-42.785737 19.225798-42.785736 42.944496-42.785736 42.944496 19.154357 42.944496 42.785736z" fill="#BF5243" p-id="5252"></path><path d="M877.052031 618.956403c0 94.509643-76.91907 171.12707-171.79386 171.12707S533.472248 713.466047 533.472248 618.956403c0-94.517581 76.911132-171.12707 171.785923-171.12707 94.882729 0 171.79386 76.609488 171.79386 171.12707z" fill="#DCF3F9" p-id="5253"></path><path d="M791.155101 618.956403c0 47.254822-38.451597 85.563535-85.888992 85.563535-47.445333 0-85.904868-38.308713-85.904869-85.571473 0-47.246884 38.459535-85.555597 85.896931-85.555597 47.445333 0 85.89693 38.308713 85.89693 85.563535z" fill="#84A7B7" p-id="5254"></path><path d="M705.281984 517.350202c-56.216806 0-101.947535 45.579907-101.947534 101.606201 0 56.018357 45.730729 101.606202 101.947534 101.606202 56.208868 0 101.947535-45.587845 101.947535-101.606202 0-56.026295-45.730729-101.606202-101.947535-101.606201z m0 171.119131c-38.523039 0-69.862202-31.180403-69.862201-69.51293 0-38.340465 31.339163-69.520868 69.854264-69.520868 38.530977 0 69.87014 31.180403 69.870139 69.520868 0 38.324589-31.339163 69.51293-69.862202 69.51293z m265.763721-257.365333c-19.233736-52.628837-77.831938-79.856124-130.643348-60.717643l-12.089551 4.389705a102.082481 102.082481 0 0 0-40.404341-72.418233l-195.433178-145.99541v-72.180093C592.475287 39.951876 556.373333 3.968992 512 3.968992S431.524713 39.951876 431.524713 84.182326v72.180093l-195.433178 145.987472a101.979287 101.979287 0 0 0-40.80124 81.300838v220.604527L113.894202 633.768682a101.13786 101.13786 0 0 0-57.598016 52.668527 100.645705 100.645705 0 0 0-3.333953 77.585861c15.050419 41.19814 54.240248 66.845767 95.890852 66.837829 11.541829 0 23.282109-1.96862 34.73662-6.120186l11.70059-4.238884V918.424806c0 56.026295 45.730729 101.606202 101.947534 101.606202h429.524342c56.20093 0 101.939597-45.579907 101.939596-101.606202V759.942946c39.451783-34.331783 64.424682-84.809426 64.424683-140.986543 0-16.971411-2.278202-33.426853-6.548838-49.07262l23.520248-8.525395a101.13786 101.13786 0 0 0 57.605954-52.668528 100.653643 100.653643 0 0 0 3.333953-77.58586zM463.617984 84.182326c0-26.536682 21.70245-48.128 48.382016-48.128 26.679566 0 48.389953 21.591318 48.389953 48.128V135.739535a59.241178 59.241178 0 0 0-19.757643-3.413333h-57.272558c-6.723473 0-13.423132 1.174822-19.749705 3.413333v-51.549271zM172.651163 794.576372c-36.213085 13.121488-76.395163-5.516899-89.564279-41.563287a68.774698 68.774698 0 0 1 2.278201-53.025736 69.266853 69.266853 0 0 1 39.459721-36.054326l70.465489-25.544434v66.123411a16.042667 16.042667 0 0 0 32.085333 0v-88.587907-232.265426a69.743132 69.743132 0 0 1 27.917891-55.597644l211.896559-158.291349a27.195535 27.195535 0 0 1 16.169674-5.366077h57.26462c5.794729 0 11.541829 1.905116 16.169675 5.366077l3.580031 2.675101v104.257489a47.643783 47.643783 0 0 1-6.032869 23.258294A58.915721 58.915721 0 0 0 512 282.052465c-32.52986 0-58.995101 26.38586-58.995101 58.820465 0 32.442543 26.46524 58.820465 58.995101 58.820465 32.521922 0 58.987163-26.377922 58.987163-58.820465 0-3.040248-0.230202-6.032868-0.674729-8.946108a79.800558 79.800558 0 0 0 22.154915-55.224558V196.40955l176.223256 131.651473a69.735194 69.735194 0 0 1 27.925829 55.597644v71.775255a187.27293 187.27293 0 0 0-91.342387-23.647255c-103.574822 0-187.844465 83.960062-187.844466 187.169736 0 16.709457 2.20676 32.902946 6.350388 48.32645l-351.120868 127.293519zM512 356.915597c8.287256 0 16.272868-1.254202 23.806016-3.572093A26.949457 26.949457 0 0 1 512 367.608062c-14.844031 0-26.909767-11.994295-26.909767-26.74307 0-14.740837 12.065736-26.735132 26.909767-26.735132a26.909767 26.909767 0 0 1 18.281178 7.128311 48.342326 48.342326 0 0 1-18.281178 3.572093 16.042667 16.042667 0 0 0 0 32.077395zM796.616434 918.424806c0 38.332527-31.339163 69.520868-69.854263 69.520868h-429.524342c-38.515101 0-69.854264-31.188341-69.854263-69.520868v-106.956403c0-0.857302-0.071442-1.706667-0.206388-2.532217L534.758202 697.431318c29.838884 64.123039 95.049426 108.694822 170.523782 108.694822a187.257054 187.257054 0 0 0 91.33445-23.655194V918.424806zM705.289922 774.032868c-85.888992 0-155.76707-69.568496-155.767069-155.076465 0-85.515907 69.878078-155.084403 155.767069-155.084403s155.76707 69.568496 155.76707 155.084403c0 85.507969-69.878078 155.076465-155.76707 155.076465z m233.337055-278.901085a69.266853 69.266853 0 0 1-39.451783 36.062264l-23.686946 8.580961a188.33662 188.33662 0 0 0-46.778543-61.813086v-69.203348l22.631194-8.207876c36.213085-13.129426 76.395163 5.516899 89.572217 41.563286a68.750884 68.750884 0 0 1-2.286139 53.025737z" fill="#4C4C4C" p-id="5255"></path></svg>