<?xml version="1.0" standalone="no"?><!DOCTYPE svg PUBLIC "-//W3C//DTD SVG 1.1//EN" "http://www.w3.org/Graphics/SVG/1.1/DTD/svg11.dtd"><svg t="1513245771249" class="icon" style="" viewBox="0 0 1024 1024" version="1.1" xmlns="http://www.w3.org/2000/svg" p-id="10928" xmlns:xlink="http://www.w3.org/1999/xlink" width="200" height="200"><defs><style type="text/css"></style></defs><path d="M461.792566 822.422822l-17.757272 17.757271 0.658853 0.650915-145.392124 145.392124a55.621457 55.621457 0 0 1-78.665426 0L75.228597 840.831008l0.650914-0.650915-17.749333-17.757271C7.303263 771.587969 7.303263 689.175814 58.138116 638.340961c50.826915-50.826915 133.23907-50.826915 184.073922 0l17.749334 17.757272 17.757271-17.749334c50.834853-50.834853 133.247008-50.834853 184.081861 0 50.826915 50.826915 50.826915 133.23907-0.007938 184.073923z" fill="#FC8059" p-id="10929"></path><path d="M207.181713 727.889364a16.042667 16.042667 0 0 1-16.042667 16.042667H164.395976v26.74307a16.042667 16.042667 0 0 1-32.077395 0v-26.74307H105.575511a16.042667 16.042667 0 0 1 0-32.085333h26.74307v-26.735132a16.042667 16.042667 0 0 1 32.077395 0v26.735132h26.74307c8.858791 0 16.042667 7.183876 16.042667 16.042666z" fill="#FFFFFF" p-id="10930"></path><path d="M117.800007 21.996155h488.92428c54.010047 0 97.795969 43.777984 97.795969 97.788031v317.805147c0 54.002109-43.785922 97.788031-97.795969 97.788031H426.436783v128.341334c-70.886202 0-128.349271-57.46307-128.349272-128.341334H117.800007c-54.010047 0-97.788031-43.777984-97.788031-97.788031V119.784186C20.011976 65.77414 63.789961 21.988217 117.800007 21.988217z" fill="#FED766" p-id="10931"></path><path d="M442.479449 363.178667v2.143255a16.042667 16.042667 0 0 1-32.085333 0v-2.143255a16.042667 16.042667 0 0 1 32.085333 0z m-80.213333-16.042667a16.042667 16.042667 0 0 0-16.042667 16.042667v2.143255a16.042667 16.042667 0 0 0 32.085334 0v-2.143255a16.034729 16.034729 0 0 0-16.042667-16.042667z m-64.170667 0a16.042667 16.042667 0 0 0-16.042666 16.042667v2.143255a16.042667 16.042667 0 0 0 32.085333 0v-2.143255a16.042667 16.042667 0 0 0-16.042667-16.042667zM233.924783 209.165891h256.682666a16.042667 16.042667 0 0 0 0-32.085333H233.916845a16.042667 16.042667 0 0 0 0 32.085333z m256.682666 53.478202H233.916845a16.042667 16.042667 0 0 0 0 32.085333h256.690604a16.042667 16.042667 0 0 0 0-32.085333zM447.829651 499.180155h513.381209a42.785736 42.785736 0 0 1 42.777799 42.777798v421.237086a42.785736 42.785736 0 0 1-42.785737 42.777798H447.829651a42.785736 42.785736 0 0 1-42.785737-42.785736V541.965891a42.785736 42.785736 0 0 1 42.785737-42.785736z" fill="#AD8653" p-id="10932"></path><path d="M635.404224 614.352372a46.072062 46.072062 0 1 1-92.136186 0 46.072062 46.072062 0 0 1 92.144124 0z m184.296187-46.064124a46.072062 46.072062 0 1 0 0 92.144124 46.072062 46.072062 0 0 0 0-92.144124z" fill="#7F5233" p-id="10933"></path><path d="M961.21086 483.137488h-125.467783v-7.001302c0-66.917209-50.37445-122.260837-115.180155-130.20676v-226.153178C720.562922 57.026481 669.48993 5.953488 606.732224 5.953488H117.800007C55.034364 5.953488 3.96931 57.018543 3.96931 119.784186v317.805147c0 62.765643 51.065054 113.830698 113.830697 113.830698h165.125954a144.010915 144.010915 0 0 0 15.637829 51.255566 145.709643 145.709643 0 0 0-32.188527 24.321984l-6.413891 6.413892-6.405954-6.413892a145.257178 145.257178 0 0 0-103.38431-42.817488 145.265116 145.265116 0 0 0-103.376372 42.817488A145.24924 145.24924 0 0 0 3.96931 730.381891c0 39.054884 15.209178 75.768062 42.817488 103.376373l13.954977 13.954976c0.762047 1.611411 1.80986 3.127566 3.15138 4.45321l145.392124 145.400062a71.203721 71.203721 0 0 0 50.684031 20.988031c19.138481 0 37.141829-7.461705 50.676093-20.988031l78.355845-78.363783v43.984372c0 32.442543 26.393798 58.828403 58.820465 58.828403h513.381209c32.442543 0 58.828403-26.393798 58.828403-58.820465V541.950016c0-32.434605-26.38586-58.820465-58.820465-58.820466z m-157.553116-6.993364v6.985426H711.005589a113.989457 113.989457 0 0 0 9.557333-45.532279V378.324341c47.056372 7.691907 83.094822 48.612217 83.094822 97.819783z m-198.282915 6.985426v-6.985426c0-49.207566 36.03845-90.135814 83.094822-97.827721v59.27293c0 16.479256-4.770729 32.077395-13.859721 45.540217h-69.235101z m-487.574822 36.19721c-45.071876 0-81.745364-36.66555-81.745364-81.737427V119.784186c0-45.071876 36.673488-81.745364 81.745364-81.745364h488.92428c45.079814 0 81.745364 36.673488 81.745364 81.745364v226.153178c-64.805705 7.937984-115.180155 63.281612-115.180155 130.20676v6.985426H447.837589c-32.434605 0-58.820465 26.393798-58.820465 58.828403v99.320063a111.862078 111.862078 0 0 1-74.87107-105.892714 16.034729 16.034729 0 0 0-16.042667-16.050604H117.800007z m270.907535 354.796155L287.950705 974.863876a39.324775 39.324775 0 0 1-27.989333 11.597395 39.324775 39.324775 0 0 1-27.989334-11.589457l-141.589829-141.58983a15.939473 15.939473 0 0 0-3.15138-4.461147l-17.749333-17.757271a113.354419 113.354419 0 0 1-33.418915-80.689613c0-30.48186 11.859349-59.137984 33.418915-80.69755 44.492403-44.492403 116.89476-44.492403 161.379225 0l17.765209 17.757271a16.034729 16.034729 0 0 0 22.678822 0l17.757271-17.749333a113.751318 113.751318 0 0 1 27.584496-20.337116 143.590202 143.590202 0 0 0 72.354729 45.460837v199.037023l-0.293706 0.269892z m599.23845 89.064186a26.766884 26.766884 0 0 1-26.735132 26.74307H447.821713a26.766884 26.766884 0 0 1-26.74307-26.735132V541.950016a26.766884 26.766884 0 0 1 26.74307-26.735132h125.467783v39.134263c-26.50493 7.08862-46.08 31.291535-46.08 59.995287 0 34.252403 27.862326 62.122667 62.122666 62.122667 34.244465 0 62.114729-27.862326 62.114729-62.122667 0-28.695814-19.57507-52.906667-46.08-60.003225v-39.134263h198.274977v39.134263c-26.496992 7.096558-46.072062 31.307411-46.072062 60.011163 0 34.244465 27.862326 62.114729 62.122667 62.114729 34.244465 0 62.114729-27.862326 62.114728-62.122667 0-28.695814-19.57507-52.906667-46.072062-60.003225v-39.134263h125.459845a26.766884 26.766884 0 0 1 26.74307 26.74307v421.237085zM589.3401 630.402977a16.034729 16.034729 0 0 0 16.034729-16.034729v-25.345984a30.005581 30.005581 0 0 1 13.986729 25.338046 30.069085 30.069085 0 0 1-30.029396 30.037333 30.069085 30.069085 0 0 1-30.029395-30.037333 30.005581 30.005581 0 0 1 13.986729-25.338046v25.338046c0 8.866729 7.183876 16.042667 16.050604 16.042667z m230.360311 0a16.034729 16.034729 0 0 0 16.034728-16.034729v-25.345984a30.005581 30.005581 0 0 1 13.994667 25.338046 30.061147 30.061147 0 0 1-30.029395 30.037333 30.069085 30.069085 0 0 1-30.037334-30.037333 30.005581 30.005581 0 0 1 13.994667-25.338046v25.338046c0 8.866729 7.175938 16.042667 16.034729 16.042667z" fill="#4C4C4C" p-id="10934"></path></svg>