<?xml version="1.0" standalone="no"?><!DOCTYPE svg PUBLIC "-//W3C//DTD SVG 1.1//EN" "http://www.w3.org/Graphics/SVG/1.1/DTD/svg11.dtd"><svg t="1513245773912" class="icon" style="" viewBox="0 0 1024 1024" version="1.1" xmlns="http://www.w3.org/2000/svg" p-id="11061" xmlns:xlink="http://www.w3.org/1999/xlink" width="200" height="200"><defs><style type="text/css"></style></defs><path d="M1002.003845 171.730357v85.571472H18.027163v-85.571472c0-47.254822 38.308713-85.563535 85.563535-85.563535h812.849612c47.254822 0 85.563535 38.308713 85.563535 85.571473z" fill="#A5A5A5" p-id="11062"></path><path d="M1002.003845 214.516093v598.944744c0 47.254822-38.308713 85.555597-85.563535 85.555597H103.590698c-47.254822 0-85.563535-38.300775-85.563535-85.555597V214.508155h128.341333V64.773953a42.785736 42.785736 0 0 1 42.785737-42.777798h171.127069a42.785736 42.785736 0 0 1 42.785737 42.785736v149.734202h598.936806z" fill="#FFE6AE" p-id="11063"></path><path d="M403.059101 64.773953v149.74214H146.376434V64.773953a42.785736 42.785736 0 0 1 42.785737-42.777798h171.127069a42.785736 42.785736 0 0 1 42.785737 42.785736z" fill="#FFD880" p-id="11064"></path><path d="M360.281302 96.867225v42.785736a21.392868 21.392868 0 0 1-21.392868 21.38493H210.539163a21.392868 21.392868 0 0 1-21.38493-21.392868v-42.785736a21.392868 21.392868 0 0 1 21.38493-21.38493h128.349271a21.38493 21.38493 0 0 1 21.392868 21.392868z" fill="#FCC159" p-id="11065"></path><path d="M852.269643 792.060031H167.761364a42.785736 42.785736 0 0 1-42.785736-42.777798v-363.63907a42.785736 42.785736 0 0 1 42.785736-42.785737h684.508279a42.785736 42.785736 0 0 1 42.785737 42.785737v363.63907a42.785736 42.785736 0 0 1-42.785737 42.785736z" fill="#BF5243" p-id="11066"></path><path d="M895.047442 567.462698v181.819535a42.785736 42.785736 0 0 1-42.785737 42.785736h-684.492403a42.785736 42.785736 0 0 1-42.785736-42.785736V567.462698h770.063876z" fill="#FC8059" p-id="11067"></path><path d="M766.706109 1005.972837H531.408372a42.785736 42.785736 0 0 1-42.785736-42.785736V536.893519c0-14.312186 7.144186-27.663876 19.051162-35.60186l117.648869-78.427287a42.777798 42.777798 0 0 1 47.469147 0l117.64093 78.427287c11.906977 7.937984 19.051163 21.289674 19.051163 35.60186v426.30152a42.785736 42.785736 0 0 1-42.785736 42.785736z" fill="#FED766" p-id="11068"></path><path d="M691.835039 535.377364a42.785736 42.785736 0 1 1-85.563535 0 42.785736 42.785736 0 0 1 85.571473 0z" fill="#AD8653" p-id="11069"></path><path d="M750.663442 151.409116v-2.143256a16.034729 16.034729 0 1 1 32.085333 0v2.143256a16.034729 16.034729 0 1 1-32.085333 0z m80.213333 16.042667a16.034729 16.034729 0 0 0 16.042667-16.034729v-2.143256a16.034729 16.034729 0 1 0-32.085333 0v2.143256a16.034729 16.034729 0 0 0 16.042666 16.034729z m64.170667 0a16.034729 16.034729 0 0 0 16.042667-16.034729v-2.143256a16.034729 16.034729 0 1 0-32.085334 0v2.143256a16.034729 16.034729 0 0 0 16.042667 16.034729z m122.99907 4.286512v641.722542c0 56.018357-45.579907 101.606202-101.606202 101.606202h-90.913736v48.128c0 32.434605-26.38586 58.820465-58.820465 58.820465H531.408372c-32.434605 0-58.820465-26.38586-58.820465-58.820465v-48.135938H103.590698c-56.026295 0-101.606202-45.579907-101.606202-101.606202V171.738295c0-56.026295 45.579907-101.606202 101.606202-101.606202h26.743069v-5.342264c0-32.442543 26.38586-58.828403 58.820466-58.828403h171.127069c32.434605 0 58.820465 26.38586 58.820465 58.820465v5.350202h497.338543c56.026295 0 101.606202 45.579907 101.606202 101.606202z m-598.944745-69.528807v96.263938h566.851473v-26.743069c0-38.332527-31.180403-69.520868-69.51293-69.520869H419.101767zM162.411163 198.473426h224.605271V64.773953a26.766884 26.766884 0 0 0-26.735132-26.735131H189.154233a26.766884 26.766884 0 0 0-26.74307 26.743069v133.691535zM34.069829 171.730357v26.743069h96.256V102.209488H103.590698c-38.340465 0-69.520868 31.188341-69.520869 69.520869z m577.551876 187.177674v53.803659l4.802481-3.206946a58.661705 58.661705 0 0 1 65.258171 0l117.648868 78.427287a58.709333 58.709333 0 0 1 26.195349 48.945612V776.017364h26.743069a26.766884 26.766884 0 0 0 26.735132-26.735131v-363.63907a26.766884 26.766884 0 0 0-26.735132-26.74307H611.621705z m71.203721-32.093271a37.443473 37.443473 0 0 0-33.768186-21.392869 37.443473 37.443473 0 0 0-33.776124 21.392869h67.54431z m-103.289054 32.085333H167.761364a26.766884 26.766884 0 0 0-26.735131 26.74307v363.63907a26.766884 26.766884 0 0 0 26.735131 26.743069h304.818605V536.885581a58.709333 58.709333 0 0 1 26.195349-48.95355l80.761054-53.835411v-75.196527z m213.904868 604.287008v-64.123039-0.047628V536.885581c0-8.969922-4.445271-17.280992-11.906976-22.25017l-117.640931-78.427287a26.711318 26.711318 0 0 0-29.672186 0L611.621705 451.274419v30.624744c0 2.579845 0.261953 5.096186 0.762047 7.533147a58.534698 58.534698 0 0 1 36.673488-12.883349c32.434605 0 58.820465 26.393798 58.820465 58.820465 0 32.442543-26.38586 58.828403-58.820465 58.828403s-58.820465-26.38586-58.820465-58.820465c0-4.802481 0.587411-9.477953 1.674915-13.947038a69.116031 69.116031 0 0 1-12.383256-39.531163v-9.239814l-62.956155 41.976062a26.695442 26.695442 0 0 0-11.906977 22.242232v426.309458a26.766884 26.766884 0 0 0 26.74307 26.74307h235.297737a26.766884 26.766884 0 0 0 26.735131-26.735132zM625.084527 547.165271a26.751008 26.751008 0 0 0 23.972713 14.955163 26.766884 26.766884 0 0 0 26.735132-26.735132 26.766884 26.766884 0 0 0-26.735132-26.743069c-6.612341 0-12.661085 2.429023-17.32862 6.413891 5.191442 2.722729 11.073488 4.286512 17.32862 4.286512a16.034729 16.034729 0 1 1 0 32.085333c-8.414264 0-16.495132-1.508217-23.972713-4.262698z m360.876651-316.598573H34.069829v582.894139c0 38.340465 31.188341 69.520868 69.520869 69.520868h368.989271v-74.863131h-304.818605c-32.434605 0-58.820465-26.393798-58.820465-58.820465V385.627287c0-32.434605 26.38586-58.820465 58.820465-58.820465h413.664248c7.263256-30.624744 34.816-53.478202 67.631628-53.478202 32.80769 0 60.368372 22.861395 67.631628 53.478202h135.580775c32.434605 0 58.820465 26.393798 58.820466 58.820465v363.647008c0 32.434605-26.38586 58.820465-58.820466 58.820465h-26.735131v74.871069h90.905798c38.340465 0 69.520868-31.188341 69.520868-69.520868V230.55876z" fill="#4C4C4C" p-id="11070"></path></svg>