<?xml version="1.0" standalone="no"?><!DOCTYPE svg PUBLIC "-//W3C//DTD SVG 1.1//EN" "http://www.w3.org/Graphics/SVG/1.1/DTD/svg11.dtd"><svg t="1513245783590" class="icon" style="" viewBox="0 0 1024 1024" version="1.1" xmlns="http://www.w3.org/2000/svg" p-id="11623" xmlns:xlink="http://www.w3.org/1999/xlink" width="200" height="200"><defs><style type="text/css"></style></defs><path d="M916.44031 813.452899H103.590698c-47.254822 0-85.563535-38.308713-85.563535-85.563535V193.131163c0-47.254822 38.308713-85.563535 85.563535-85.563535h812.849612c47.254822 0 85.563535 38.308713 85.563535 85.563535v534.774077c0 47.246884-38.308713 85.555597-85.563535 85.555597z" fill="#E2DCBC" p-id="11624"></path><path d="M916.44031 770.675101H103.590698a42.785736 42.785736 0 0 1-42.785737-42.785737V193.131163a42.785736 42.785736 0 0 1 42.785737-42.785737h812.849612a42.785736 42.785736 0 0 1 42.785737 42.785737v534.774077a42.785736 42.785736 0 0 1-42.785737 42.777799z" fill="#F4EECB" p-id="11625"></path><path d="M766.706109 856.238636H253.324899a42.785736 42.785736 0 1 1 0-85.563535h513.38121a42.785736 42.785736 0 0 1 0 85.563535z" fill="#BFBBA3" p-id="11626"></path><path d="M766.706109 663.718698H574.186171V64.773953a42.785736 42.785736 0 0 1 42.785736-42.777798h106.948465a42.785736 42.785736 0 0 1 42.785737 42.785736v598.936807z" fill="#A3CCAA" p-id="11627"></path><path d="M659.749705 663.718698H467.237705v-363.63907a42.785736 42.785736 0 0 1 42.777799-42.785737h106.956403a42.785736 42.785736 0 0 1 42.785736 42.785737v363.63907z" fill="#80A886" p-id="11628"></path><path d="M616.971907 663.718698H424.444031v-406.424807a42.785736 42.785736 0 0 1 42.785736-42.785736h106.948466a42.785736 42.785736 0 0 1 42.785736 42.785736v406.424807z" fill="#FC8059" p-id="11629"></path><path d="M510.015504 663.718698H317.495566V492.591628a42.785736 42.785736 0 0 1 42.785736-42.785737H467.229767a42.785736 42.785736 0 0 1 42.777799 42.785737v171.12707z" fill="#BF5243" p-id="11630"></path><path d="M467.229767 663.718698H274.725705V449.813829a42.785736 42.785736 0 0 1 42.785737-42.785736H424.444031a42.785736 42.785736 0 0 1 42.785736 42.785736v213.904869z" fill="#FED766" p-id="11631"></path><path d="M916.44031 91.517023H782.748775V64.773953c0-32.434605-26.393798-58.820465-58.820465-58.820465H616.963969c-32.442543 0-58.828403 26.38586-58.828403 58.820465v26.74307H103.590698c-56.026295 0-101.606202 45.579907-101.606202 101.606202v534.774077c0 56.018357 45.579907 101.606202 101.606202 101.606202h93.136372c7.001302 24.65538 29.719814 42.777798 56.597829 42.777798H408.409302v117.648869H210.547101a16.034729 16.034729 0 1 0 0 32.085333h598.944744a16.034729 16.034729 0 1 0 0-32.085333H611.621705v-117.648869h155.084404c26.870078 0 49.596527-18.114481 56.597829-42.785736h93.136372c56.018357 0 101.606202-45.579907 101.606202-101.606202V193.131163c0-56.026295-45.579907-101.606202-101.606202-101.606202zM590.228837 64.773953a26.766884 26.766884 0 0 1 26.74307-26.735131h106.956403a26.766884 26.766884 0 0 1 26.735132 26.735131v582.902078H633.014574V257.293891c0-26.870078-18.114481-49.596527-42.785737-56.597829V64.773953z m-16.034728 165.784807a26.766884 26.766884 0 0 1 26.735131 26.735131v390.390078H483.280372V449.805891c0-26.878016-18.122419-49.596527-42.785736-56.597829V257.285953a26.766884 26.766884 0 0 1 26.743069-26.735131h106.948466zM451.195039 449.805891v197.87014H290.760434V449.813829a26.766884 26.766884 0 0 1 26.74307-26.743069H424.444031a26.766884 26.766884 0 0 1 26.74307 26.743069z m128.341333 540.12428H440.494636v-117.648869h139.041736v117.648869z m187.169737-149.734202H253.324899a26.766884 26.766884 0 0 1-26.735132-26.74307 26.766884 26.766884 0 0 1 26.735132-26.735132h513.38121a26.766884 26.766884 0 0 1 26.735131 26.735132 26.766884 26.766884 0 0 1-26.735131 26.74307z m219.255069-112.306605c0 38.340465-31.188341 69.520868-69.520868 69.520869h-93.136372c-6.993364-24.663318-29.719814-42.785736-56.597829-42.785737H253.324899c-26.878016 0-49.596527 18.122419-56.597829 42.785737H103.590698c-38.332527 0-69.520868-31.180403-69.520869-69.520869V193.131163c0-38.340465 31.188341-69.520868 69.520869-69.520868h454.552806v74.871069H467.229767c-32.434605 0-58.820465 26.38586-58.820465 58.820465v133.691535H317.495566c-32.434605 0-58.820465 26.38586-58.820465 58.820465v197.87014h-101.606202a16.034729 16.034729 0 1 0 0 32.085333h643.246636a16.034729 16.034729 0 1 0 0-32.085333h-17.56676V123.594419h133.691535c38.340465 0 69.520868 31.188341 69.520868 69.520868v534.766139z m-106.956403-64.170666a16.034729 16.034729 0 0 1-16.034728 16.042666h-3.159318a16.034729 16.034729 0 1 1 0-32.085333h3.15138a16.034729 16.034729 0 0 1 16.042666 16.042667z" fill="#4C4C4C" p-id="11632"></path></svg>