<?xml version="1.0" standalone="no"?><!DOCTYPE svg PUBLIC "-//W3C//DTD SVG 1.1//EN" "http://www.w3.org/Graphics/SVG/1.1/DTD/svg11.dtd"><svg t="1513245768691" class="icon" style="" viewBox="0 0 1024 1024" version="1.1" xmlns="http://www.w3.org/2000/svg" p-id="10791" xmlns:xlink="http://www.w3.org/1999/xlink" width="200" height="200"><defs><style type="text/css"></style></defs><path d="M1003.988341 695.804031c0 47.254822-38.308713 85.571473-85.563535 85.571473H105.575194c-47.254822 0-85.563535-38.316651-85.563535-85.571473 0-47.254822 38.308713-85.563535 85.563535-85.563535h812.849612c47.254822 0 85.563535 38.308713 85.563535 85.571473z" fill="#DBD8D2" p-id="10792"></path><path d="M351.573333 267.986357a74.863132 74.863132 0 1 1-149.734201 0 74.863132 74.863132 0 0 1 149.726263 0z m395.724403-74.863132a74.863132 74.863132 0 1 0 0 149.734201 74.863132 74.863132 0 0 0 0-149.734201z" fill="#B2D1D8" p-id="10793"></path><path d="M405.043597 532.027535v136.374574H148.36093v-136.374574c0-70.878264 57.471008-128.341333 128.349272-128.341333 70.886202 0 128.341333 57.46307 128.341333 128.349271z m-139.041737-317.51938a42.785736 42.785736 0 1 0 0 85.571473 42.785736 42.785736 0 0 0 0-85.571473z m481.295876 189.178047c-70.886202 0-128.341333 57.471008-128.341333 128.349271v136.366636h256.682667V532.035473c0-70.886202-57.455132-128.349271-128.341334-128.349271z m-10.692465-189.170109a42.785736 42.785736 0 1 0 0 85.563535 42.785736 42.785736 0 0 0 0-85.571473z" fill="#CFDFE2" p-id="10794"></path><path d="M403.61476 512.777922c0.94462 6.278946 1.428837 12.708713 1.428837 19.257551v153.076093H148.36093V572.677953a98.843783 98.843783 0 0 0 82.888434 44.913117c54.645085 0 98.939039-44.293953 98.939039-98.931101 0-45.468775 66.663194-50.858667 73.426357-5.882047z m397.161178 5.882047c0 54.637147-44.293953 98.931101-98.931101 98.931101a98.843783 98.843783 0 0 1-82.888434-44.913117v112.433613h256.690605V532.027535c0-6.540899-0.492155-12.970667-1.436775-19.257551-6.771101-44.968682-73.434295-39.586729-73.434295 5.889985z" fill="#B2D1D8" p-id="10795"></path><path d="M624.901953 134.898109c0 62.360806-50.549085 112.909891-112.901953 112.909891S399.098047 197.258915 399.098047 134.898109C399.098047 72.553178 449.639194 21.996155 512 21.996155c62.360806 0 112.901953 50.549085 112.901953 112.901954z" fill="#A384E2" p-id="10796"></path><path d="M705.551876 494.147473v217.381705H318.448124V494.139535c0-100.415504 81.404031-181.819535 181.819535-181.819535h23.464682c100.415504 0 181.819535 81.404031 181.819535 181.819535zM495.870016 54.256124a64.512 64.512 0 1 0 0 129.031938 64.512 64.512 0 0 0 0-129.031938z" fill="#B69CF7" p-id="10797"></path><path d="M703.384806 476.834729c1.428837 9.470016 2.16707 19.170233 2.16707 29.045085v205.649364H318.448124V567.184868c26.631938 40.777426 72.66431 67.726884 124.999442 67.726884 82.396279 0 149.194419-66.790202 149.194418-149.194419 0-68.584186 100.542512-76.696806 110.742822-8.882604z" fill="#A384E2" p-id="10798"></path><path d="M736.605271 695.804031c0 124.046884-100.558388 224.605271-224.605271 224.605271-124.046884 0-224.605271-100.558388-224.605271-224.605271 0-124.046884 100.558388-224.597333 224.605271-224.597333 124.046884 0 224.605271 100.55045 224.605271 224.597333z" fill="#FC8059" p-id="10799"></path><path d="M512 546.069829c-82.697922 0-149.734202 67.036279-149.734202 149.734202S429.302078 845.554109 512 845.554109s149.734202-67.044217 149.734202-149.74214c0-82.697922-67.036279-149.734202-149.734202-149.734202z m0 192.519938a42.785736 42.785736 0 1 1 0-85.563534 42.785736 42.785736 0 0 1 0 85.563534z" fill="#FFFFFF" p-id="10800"></path><path d="M276.702264 358.900093c50.128372 0 90.913736-40.777426 90.913736-90.913736 0-50.128372-40.785364-90.905798-90.913736-90.905799-50.128372 0-90.913736 40.777426-90.913737 90.913737 0 50.128372 40.785364 90.905798 90.913737 90.905798z m0-149.734202c32.434605 0 58.820465 26.38586 58.820465 58.820466 0 32.442543-26.38586 58.828403-58.820465 58.828403s-58.820465-26.393798-58.820466-58.820465c0-32.442543 26.38586-58.828403 58.820466-58.828404zM918.424806 594.197829h-37.435535v-62.170294c0-79.617984-64.773953-144.384-144.391938-144.384a143.995039 143.995039 0 0 0-42.309457 6.310698c-34.434977-58.399752-97.986481-97.676899-170.555535-97.6769h-23.464682c-73.934388 0-138.517829 40.769488-172.476527 101.002915a16.177612 16.177612 0 0 0-2.95293-1.397085 143.875969 143.875969 0 0 0-48.135938-8.239628c-79.617984 0-144.391938 64.773953-144.391938 144.391938v62.162356H105.575194c-56.026295 0-101.606202 45.579907-101.606202 101.606202 0 56.026295 45.579907 101.606202 101.606202 101.606202h188.312806c36.228961 77.466791 112.528868 132.572279 202.069333 138.494015v70.068589a16.034729 16.034729 0 1 0 32.085334 0v-70.068589c89.540465-5.921736 165.832434-61.035163 202.069333-138.494015H918.424806c56.026295 0 101.606202-45.579907 101.606202-101.606202 0-56.026295-45.579907-101.606202-101.606202-101.606202zM736.605271 419.728868c61.916279 0 112.298667 50.382388 112.298667 112.306605v147.725891H752.100217a238.909519 238.909519 0 0 0-30.505674-102.08248V494.155411c0-24.957023-4.659597-48.842419-13.129427-70.85445a112.282791 112.282791 0 0 1 28.140155-3.564155z m-59.614263 260.032496c-7.588713-78.625736-70.322605-141.359628-148.948341-148.940403v-42.960372c102.24124 7.810977 184.097736 89.659535 191.900775 191.900775h-42.952434z m-41.991938 32.085334h9.692279c-7.318822 60.916093-55.732589 109.32986-116.648682 116.65662v-15.050419a16.034729 16.034729 0 1 0-32.085334 0v15.050419c-60.908155-7.32676-109.32986-55.740527-116.65662-116.65662h9.700217a16.034729 16.034729 0 1 0 0-32.085334h-9.700217c7.32676-60.908155 55.748465-109.32986 116.65662-116.648682v15.042481a16.034729 16.034729 0 1 0 32.085334 0V563.12062c60.916093 7.318822 109.32986 55.740527 116.648682 116.648682h-9.692279a16.034729 16.034729 0 1 0 0 32.085334z m-330.95045-32.085334C311.867535 577.520124 393.724031 495.671566 495.965271 487.868527v42.960372c-78.625736 7.588713-141.359628 70.314667-148.948341 148.948341h-42.960372z m196.226977-351.390759h23.456744c91.405891 0 165.776868 74.370977 165.776868 165.776868v39.348589c-40.642481-44.413023-97.700713-73.56924-161.458604-77.792248v-70.068589a16.034729 16.034729 0 1 0-32.093272 0v70.068589c-63.757891 4.223008-120.816124 33.371287-161.458604 77.792248v-39.348589c-0.007938-91.413829 74.355101-165.776868 165.76893-165.776868zM164.395659 532.035473c0-61.924217 50.382388-112.306605 112.306605-112.306605 12.835721 0 25.433302 2.159132 37.427596 6.398016 0.095256 0.03969 0.190512 0.055566 0.285768 0.087318a196.941395 196.941395 0 0 0-12.018109 67.933271v83.539349a238.949209 238.949209 0 0 0-30.505674 102.08248H164.395659V532.027535z m-58.820465 233.297364c-38.340465 0-69.520868-31.196279-69.520868-69.528806 0-38.332527 31.188341-69.520868 69.520868-69.520868h26.74307v53.478201h-21.392869a16.034729 16.034729 0 1 0 0 32.085334h160.982326a239.147659 239.147659 0 0 0 9.700217 53.478201H105.575194z m198.473426-53.486139h42.96831c7.580775 78.625736 70.314667 141.359628 148.940403 148.948341v42.960372c-102.24124-7.810977-184.089798-89.667473-191.900775-191.908713z m223.994047 191.908713v-42.960372c78.625736-7.588713 141.359628-70.322605 148.948341-148.948341h42.960372c-7.810977 102.24124-89.675411 184.097736-191.908713 191.908713zM918.424806 765.324899H742.392062a239.147659 239.147659 0 0 0 9.708155-53.470263h160.982326a16.034729 16.034729 0 1 0 0-32.093272h-32.093272v-53.470263h37.435535c38.340465 0 69.520868 31.180403 69.520868 69.520868 0 38.324589-31.188341 69.51293-69.520868 69.51293z m-181.819535-406.424806c50.128372 0 90.913736-40.777426 90.913737-90.913736 0-50.128372-40.785364-90.905798-90.913737-90.905799-50.13631 0-90.913736 40.777426-90.913736 90.913737 0 50.128372 40.785364 90.905798 90.913736 90.905798z m0-149.734202c32.434605 0 58.820465 26.38586 58.820465 58.820466 0 32.442543-26.38586 58.828403-58.820465 58.828403s-58.820465-26.393798-58.820465-58.820465c0-32.442543 26.38586-58.828403 58.820465-58.828404zM512 263.850667c71.100527 0 128.952558-57.844093 128.952558-128.952558C640.952558 63.797581 583.100527 5.953488 512 5.953488S383.047442 63.797581 383.047442 134.898109 440.899473 263.858605 512 263.858605z m0-225.811845c53.40676 0 96.859287 43.452527 96.859287 96.859287 0 53.414698-43.452527 96.867225-96.859287 96.867224s-96.859287-43.452527-96.859287-96.867224c0-53.40676 43.452527-96.859287 96.859287-96.859287z m0 598.944744c-32.434605 0-58.820465 26.38586-58.820465 58.820465s26.38586 58.820465 58.820465 58.820465 58.820465-26.38586 58.820465-58.820465-26.38586-58.820465-58.820465-58.820465z m0 85.563535a26.766884 26.766884 0 0 1-26.735132-26.74307A26.766884 26.766884 0 0 1 512 669.068899a26.766884 26.766884 0 0 1 26.735132 26.735132A26.766884 26.766884 0 0 1 512 722.547101z" fill="#4C4C4C" p-id="10801"></path></svg>