<?xml version="1.0" standalone="no"?><!DOCTYPE svg PUBLIC "-//W3C//DTD SVG 1.1//EN" "http://www.w3.org/Graphics/SVG/1.1/DTD/svg11.dtd"><svg t="1513245763223" class="icon" style="" viewBox="0 0 1024 1024" version="1.1" xmlns="http://www.w3.org/2000/svg" p-id="10520" xmlns:xlink="http://www.w3.org/1999/xlink" width="200" height="200"><defs><style type="text/css"></style></defs><path d="M1002.003845 749.282233v171.127069c0 47.254822-38.308713 85.563535-85.563535 85.563535H103.590698c-47.254822 0-85.563535-38.308713-85.563535-85.563535V749.282233h983.976682z" fill="#A5A5A5" p-id="10521"></path><path d="M1002.003845 749.282233c0 47.254822-38.308713 85.563535-85.563535 85.563534H103.590698c-47.254822 0-85.563535-38.308713-85.563535-85.563534S56.335876 663.718698 103.590698 663.718698h812.849612c47.254822 0 85.563535 38.308713 85.563535 85.563535z" fill="#DBD8D2" p-id="10522"></path><path d="M788.091039 418.03014v331.252093H574.186171v-331.252093a42.785736 42.785736 0 0 1 42.785736-42.785737h128.341333a42.785736 42.785736 0 0 1 42.785737 42.785737z" fill="#FC8059" p-id="10523"></path><path d="M659.749705 459.593426v289.688807H445.844837V459.593426a42.785736 42.785736 0 0 1 42.785737-42.785736h128.341333a42.785736 42.785736 0 0 1 42.785736 42.785736z" fill="#BF5243" p-id="10524"></path><path d="M616.971907 64.773953v684.50828H403.059101V64.781891a42.785736 42.785736 0 0 1 42.785736-42.785736h128.341334a42.785736 42.785736 0 0 1 42.785736 42.785736z" fill="#A3CCAA" p-id="10525"></path><path d="M488.622636 293.356155v455.926078H274.717767V293.356155a42.785736 42.785736 0 0 1 42.785737-42.785736h128.341333a42.785736 42.785736 0 0 1 42.785737 42.785736z" fill="#80A886" p-id="10526"></path><path d="M445.844837 251.792868v497.489365H231.939969V251.792868a42.785736 42.785736 0 0 1 42.777798-42.785736h128.349272a42.785736 42.785736 0 0 1 42.777798 42.785736z" fill="#FED766" p-id="10527"></path><path d="M380.602543 920.409302a16.042667 16.042667 0 0 1-16.042667 16.042667h-2.143256a16.042667 16.042667 0 0 1 0-32.085333h2.143256a16.034729 16.034729 0 0 1 16.034729 16.042666z m-127.277644-16.042666h-2.143256a16.042667 16.042667 0 0 0 0 32.085333h2.143256a16.042667 16.042667 0 0 0 0-32.085333z m764.721613-155.084403v171.127069c0 56.026295-45.579907 101.606202-101.606202 101.606202H103.590698c-56.026295 0-101.606202-45.579907-101.606202-101.606202V749.282233c0-56.026295 45.579907-101.606202 101.606202-101.606202h112.298666V257.293891c0-32.434605 26.393798-58.820465 58.820465-58.820465h112.306605V64.773953c0-32.434605 26.393798-58.820465 58.820465-58.820465h128.35721c32.434605 0 58.820465 26.38586 58.820465 58.820465v304.818605h112.298666c32.434605 0 58.820465 26.393798 58.820465 58.828403v219.25507h112.306605c56.026295 0 101.606202 45.579907 101.606202 101.606202z m-385.031938-347.604342v331.569613H772.048372v-304.818605a26.766884 26.766884 0 0 0-26.735132-26.751008H633.014574zM419.101767 64.789829v135.930047c24.663318 7.001302 42.785736 29.711876 42.785737 56.581953v475.945675h139.041736V64.781891a26.766884 26.766884 0 0 0-26.743069-26.743069H445.836899a26.766884 26.766884 0 0 0-26.735132 26.743069zM247.982636 733.231628h181.819535V257.293891a26.766884 26.766884 0 0 0-26.74307-26.735131H274.717767a26.766884 26.766884 0 0 0-26.743069 26.735131v475.945675zM34.061891 749.282233c0 38.332527 31.188341 69.520868 69.520869 69.520868h812.849612c38.332527 0 69.520868-31.188341 69.520868-69.520868 0-38.332527-31.188341-69.520868-69.520868-69.520869h-112.298667v53.478202h90.913737a16.042667 16.042667 0 0 1 0 32.085333H124.983566a16.042667 16.042667 0 0 1 0-32.085333h90.913736v-53.478202H103.590698c-38.332527 0-69.520868 31.196279-69.520869 69.520869z m951.891349 171.127069v-11.565643a101.209302 101.209302 0 0 1-69.520868 27.60831H445.844837a16.042667 16.042667 0 0 1 0-32.085333h470.595473c38.332527 0 69.520868-31.188341 69.520868-69.520869v-11.565643a101.209302 101.209302 0 0 1-69.520868 27.60831H103.590698a101.21724 101.21724 0 0 1-69.520869-27.60831v97.129178c0 38.332527 31.188341 69.520868 69.520869 69.520869h812.849612c38.332527 0 69.520868-31.188341 69.520868-69.520869z" fill="#4C4C4C" p-id="10528"></path></svg>