<?xml version="1.0" standalone="no"?><!DOCTYPE svg PUBLIC "-//W3C//DTD SVG 1.1//EN" "http://www.w3.org/Graphics/SVG/1.1/DTD/svg11.dtd"><svg t="1513245732913" class="icon" style="" viewBox="0 0 1024 1024" version="1.1" xmlns="http://www.w3.org/2000/svg" p-id="9013" xmlns:xlink="http://www.w3.org/1999/xlink" width="200" height="200"><defs><style type="text/css"></style></defs><path d="M640.341333 103.590698v85.563535H20.011659V103.590698a42.785736 42.785736 0 0 1 42.785736-42.785737h534.76614a42.785736 42.785736 0 0 1 42.785736 42.785737z" fill="#A5A5A5" p-id="9014"></path><path d="M640.341333 167.761364V552.80124a42.785736 42.785736 0 0 1-42.777798 42.785737H62.797395a42.785736 42.785736 0 0 1-42.785736-42.785737V167.761364H105.575194V39.420031a21.392868 21.392868 0 0 1 21.392868-21.392868h128.341333a21.392868 21.392868 0 0 1 21.392869 21.392868v128.341333h363.639069z" fill="#FFE6AE" p-id="9015"></path><path d="M276.702264 39.420031v128.341333H105.575194V39.420031a21.392868 21.392868 0 0 1 21.392868-21.392868h128.341333a21.392868 21.392868 0 0 1 21.392869 21.392868z" fill="#FFD880" p-id="9016"></path><path d="M223.224062 103.590698h-64.170667a10.692465 10.692465 0 0 1-10.700403-10.692465V71.505364c0-5.90586 4.794543-10.692465 10.700403-10.692465h64.170667c5.90586 0 10.692465 4.786605 10.692465 10.692465v21.392869c0 5.90586-4.786605 10.692465-10.692465 10.692465z" fill="#FCC159" p-id="9017"></path><path d="M576.170667 285.410233v21.392868c0 5.90586-4.786605 10.692465-10.692465 10.692465H372.958264a10.692465 10.692465 0 0 1-10.692466-10.692465v-21.392868c0-5.90586 4.786605-10.692465 10.692466-10.692466h192.519938c5.90586 0 10.692465 4.786605 10.692465 10.692466z m-10.692465 74.871069H372.958264c-5.90586 0-10.692465 4.786605-10.692466 10.692465v21.392869c0 5.90586 4.786605 10.692465 10.692466 10.692465h192.519938c5.90586 0 10.692465-4.786605 10.692465-10.692465v-21.392869c0-5.90586-4.786605-10.692465-10.692465-10.692465z m0 85.563535H372.958264c-5.90586 0-10.692465 4.786605-10.692466 10.692465v21.392869c0 5.90586 4.786605 10.692465 10.692466 10.692465h192.519938c5.90586 0 10.692465-4.786605 10.692465-10.692465v-21.392869c0-5.90586-4.786605-10.692465-10.692465-10.692465z" fill="#FFD880" p-id="9018"></path><path d="M303.22307 507.372155l-33.99045-203.93476a78.92738 78.92738 0 0 0-78.093891-66.155162 78.919442 78.919442 0 0 0-78.093892 66.155162L79.054388 507.372155a16.042667 16.042667 0 0 0 31.648744 5.27876l12.026046-72.156279h136.819101l12.018109 72.156279a16.042667 16.042667 0 0 0 31.656682-5.270822zM128.07938 408.409302l16.614201-99.701085a46.937302 46.937302 0 0 1 46.43721-39.340651 46.937302 46.937302 0 0 1 46.453085 39.348589l16.614202 99.693147H128.07938z" fill="#FF9D00" p-id="9019"></path><path d="M1003.988341 510.015504v85.563535H383.650729V510.015504a42.785736 42.785736 0 0 1 42.785736-42.785737h534.774078a42.785736 42.785736 0 0 1 42.777798 42.785737z" fill="#A5A5A5" p-id="9020"></path><path d="M1003.988341 574.186171v385.031938a42.785736 42.785736 0 0 1-42.785736 42.785736H426.444403a42.785736 42.785736 0 0 1-42.785736-42.785736V574.186171h85.571473V445.844837a21.392868 21.392868 0 0 1 21.38493-21.392868h128.349271a21.392868 21.392868 0 0 1 21.38493 21.392868v128.341334h363.647008z" fill="#E9F2F4" p-id="9021"></path><path d="M640.341333 445.844837v128.341334H469.214264V445.844837a21.392868 21.392868 0 0 1 21.392868-21.392868h128.349271a21.392868 21.392868 0 0 1 21.38493 21.392868z" fill="#C3E4ED" p-id="9022"></path><path d="M586.863132 510.015504h-64.170667A10.692465 10.692465 0 0 1 512 499.323039v-21.392868c0-5.90586 4.786605-10.692465 10.692465-10.692466h64.178605c5.897922 0 10.692465 4.786605 10.692465 10.692466v21.392868c0 5.90586-4.786605 10.692465-10.692465 10.692465z" fill="#B2D1D8" p-id="9023"></path><path d="M939.817674 691.835039v21.392868c0 5.90586-4.786605 10.692465-10.692465 10.692465H736.597333a10.692465 10.692465 0 0 1-10.692465-10.692465v-21.392868c0-5.90586 4.786605-10.692465 10.692465-10.692465h192.512c5.90586 0 10.700403 4.786605 10.700403 10.692465z m-10.700403 74.87107H736.605271c-5.913798 0-10.700403 4.786605-10.700403 10.692465v21.392868c0 5.90586 4.786605 10.692465 10.692465 10.692465h192.519938c5.90586 0 10.692465-4.786605 10.692465-10.692465v-21.392868c0-5.90586-4.786605-10.692465-10.692465-10.692465z m0 85.563534H736.605271c-5.913798 0-10.700403 4.786605-10.700403 10.692466v21.392868c0 5.90586 4.786605 10.692465 10.692465 10.692465h192.519938c5.90586 0 10.692465-4.786605 10.692465-10.692465v-21.392868c0-5.90586-4.786605-10.692465-10.692465-10.692466z" fill="#CFDFE2" p-id="9024"></path><path d="M622.401488 780.383256a79.95138 79.95138 0 0 0 23.290047-56.462884c0-44.23045-35.982884-80.213333-80.213333-80.213333H458.521798a16.042667 16.042667 0 0 0-16.042666 16.042666v256.690605c0 8.858791 7.183876 16.042667 16.042666 16.042667h128.349272c44.23045 0 80.213333-35.982884 80.213333-80.213334 0-31.482047-18.23355-58.764899-44.690853-71.894325zM474.564465 675.784434h90.913737a48.183566 48.183566 0 0 1 48.128 48.135938 48.183566 48.183566 0 0 1-48.128 48.128H474.564465V675.792372z m112.306605 224.605271H474.564465v-96.256h112.306605a48.183566 48.183566 0 0 1 48.128 48.128 48.183566 48.183566 0 0 1-48.135938 48.128z" fill="#84A7B7" p-id="9025"></path><path d="M431.786667 115.354791v-2.143256a16.042667 16.042667 0 0 1 32.085333 0v2.143256a16.042667 16.042667 0 0 1-32.085333 0zM512 131.397457a16.042667 16.042667 0 0 0 16.042667-16.034728v-2.143256a16.042667 16.042667 0 0 0-32.085334 0v2.143256c0 8.850853 7.183876 16.034729 16.042667 16.034728z m64.170667 0a16.042667 16.042667 0 0 0 16.042666-16.034728v-2.143256a16.042667 16.042667 0 0 0-32.085333 0v2.143256c0 8.850853 7.183876 16.034729 16.042667 16.034728z m235.297736 406.424807a16.042667 16.042667 0 0 0 16.042667-16.034729v-2.143256a16.042667 16.042667 0 0 0-32.085334 0v2.143256c0 8.850853 7.183876 16.034729 16.042667 16.034729z m64.178605 0a16.042667 16.042667 0 0 0 16.034728-16.034729v-2.143256a16.042667 16.042667 0 0 0-32.077395 0v2.143256c0 8.850853 7.175938 16.034729 16.034729 16.034729z m64.170666 0a16.042667 16.042667 0 0 0 16.034729-16.034729v-2.143256a16.042667 16.042667 0 0 0-32.077395 0v2.143256c0 8.850853 7.175938 16.034729 16.034728 16.034729zM1020.031008 510.015504v449.202605c0 32.442543-26.38586 58.828403-58.820465 58.828403H426.428527c-32.434605 0-58.820465-26.38586-58.820465-58.820465V611.621705H62.789457C30.346915 611.621705 3.968992 585.235845 3.968992 552.80124V103.590698c0-32.434605 26.38586-58.820465 58.820465-58.820465h26.74307v-5.350202c0-20.63876 16.796775-37.435535 37.435535-37.435535h128.341333c20.63876 0 37.435535 16.796775 37.435535 37.435535v5.342264h304.818605c32.434605 0 58.820465 26.393798 58.820465 58.828403v347.604341h304.818605c32.442543 0 58.828403 26.38586 58.828403 58.820465z m-58.820465-26.735132h-304.818605v74.863132h331.553736V510.015504a26.766884 26.766884 0 0 0-26.735131-26.735132z m-508.031008 74.863132v-74.863132H426.428527a26.766884 26.766884 0 0 0-26.735132 26.735132v48.135938h53.470264z m32.077395 0h139.041737V445.844837a5.35814 5.35814 0 0 0-5.350202-5.350201H490.61507a5.35814 5.35814 0 0 0-5.350202 5.350201v112.298667zM292.752868 76.847628v74.87107h331.553737V103.590698a26.766884 26.766884 0 0 0-26.735132-26.74307h-304.818605z m-171.12707 74.87107h139.041737V39.420031a5.35814 5.35814 0 0 0-5.350202-5.350202H126.968062a5.35814 5.35814 0 0 0-5.350202 5.350202v112.298667zM36.054326 103.590698v48.128h53.478201V76.855566H62.789457a26.766884 26.766884 0 0 0-26.735131 26.735132zM367.608062 579.536372V510.015504c0-32.434605 26.393798-58.820465 58.828403-58.820465h26.74307v-5.350202c0-20.63876 16.788837-37.435535 37.427597-37.435535h128.349271c1.817798 0 3.595907 0.174636 5.342264 0.428651V183.804031H36.054326V552.80124a26.766884 26.766884 0 0 0 26.743069 26.74307h304.818605z m620.337612 10.692465H399.693395v368.99721a26.766884 26.766884 0 0 0 26.74307 26.735131h534.774078a26.766884 26.766884 0 0 0 26.735131-26.735131V590.228837z" fill="#4C4C4C" p-id="9026"></path></svg>