<?xml version="1.0" standalone="no"?><!DOCTYPE svg PUBLIC "-//W3C//DTD SVG 1.1//EN" "http://www.w3.org/Graphics/SVG/1.1/DTD/svg11.dtd"><svg t="1513245744269" class="icon" style="" viewBox="0 0 1138 1024" version="1.1" xmlns="http://www.w3.org/2000/svg" p-id="9569" xmlns:xlink="http://www.w3.org/1999/xlink" width="222.265625" height="200"><defs><style type="text/css"></style></defs><path d="M1114.297379 190.861241v83.252966H20.047448v-83.252966c0-52.550621 42.601931-95.152552 95.152552-95.152551h903.944828c52.550621 0 95.152552 42.601931 95.152551 95.152551z" fill="#A5A5A5" p-id="9570"></path><path d="M1114.297379 238.433103v666.067863c0 52.550621-42.601931 95.152552-95.152551 95.152551H115.2c-52.550621 0-95.152552-42.601931-95.152552-95.152551V238.441931h142.724414V71.909517a47.58069 47.58069 0 0 1 47.58069-47.580689h190.305103a47.58069 47.58069 0 0 1 47.58069 47.580689v166.523586h666.059034z" fill="#F2EFE2" p-id="9571"></path><path d="M947.782621 749.876966H186.562207a47.58069 47.58069 0 1 1 0-95.152552h761.220414a47.58069 47.58069 0 1 1 0 95.152552zM662.324966 862.022621a47.58069 47.58069 0 0 0-47.58069-47.58069H186.562207a47.58069 47.58069 0 1 0 0 95.152552H614.753103a47.58069 47.58069 0 0 0 47.58069-47.571862z" fill="#B5C4C6" p-id="9572"></path><path d="M1114.297379 238.433103v333.038345H20.047448V238.433103h142.724414V71.909517a47.58069 47.58069 0 0 1 47.58069-47.580689h190.305103a47.58069 47.58069 0 0 1 47.58069 47.580689v166.523586h666.059034z" fill="#DBD8D2" p-id="9573"></path><path d="M400.657655 107.608276v47.571862a23.790345 23.790345 0 0 1-23.790345 23.790345H234.134069a23.790345 23.790345 0 0 1-23.781517-23.790345v-47.58069a23.790345 23.790345 0 0 1 23.781517-23.781517h142.733241a23.790345 23.790345 0 0 1 23.790345 23.790345z" fill="#CCCAC4" p-id="9574"></path><path d="M947.782621 476.318897H186.562207a47.58069 47.58069 0 0 1-47.58069-47.58069V381.175172a47.58069 47.58069 0 0 1 47.58069-47.580689h761.220414a47.58069 47.58069 0 0 1 47.580689 47.580689v47.58069a47.58069 47.58069 0 0 1-47.580689 47.571862z" fill="#FFFFFF" p-id="9575"></path><path d="M442.288552 404.95669a17.840552 17.840552 0 0 1-17.840552 17.831724H210.352552a17.840552 17.840552 0 0 1 0-35.672276h214.095448c9.851586 0 17.831724 7.980138 17.831724 17.831724z" fill="#256277" p-id="9576"></path><path d="M616.801103 412.513103l297.092414 116.259311c27.595034 10.796138 30.764138 48.578207 5.349517 63.823448l-105.931034 63.558621-63.558621 105.931034c-15.245241 25.414621-53.02731 22.245517-63.823448-5.349517l-116.25931-297.101241a36.38731 36.38731 0 0 1 47.130482-47.130483v0.008827z" fill="#FC8059" p-id="9577"></path><path d="M919.251862 592.595862l-105.931034 63.558621-235.493518-235.48469a36.369655 36.369655 0 0 1 38.973793-8.15669l297.092414 116.259311c27.595034 10.796138 30.764138 48.578207 5.358345 63.823448z" fill="#AD3C1E" p-id="9578"></path><path d="M442.288552 404.95669a17.831724 17.831724 0 0 1-17.840552 17.831724H210.352552a17.831724 17.831724 0 1 1 0-35.672276h214.095448a17.831724 17.831724 0 0 1 17.831724 17.831724zM852.630069 148.038621a17.831724 17.831724 0 0 0-17.840552 17.840551v2.383449a17.831724 17.831724 0 1 0 35.681104 0v-2.383449a17.831724 17.831724 0 0 0-17.840552-17.831724z m71.362207 0a17.831724 17.831724 0 0 0-17.840552 17.840551v2.383449a17.831724 17.831724 0 1 0 35.681104 0v-2.383449a17.831724 17.831724 0 0 0-17.840552-17.831724z m208.145655 42.82262v713.639725c0 62.305103-50.688 112.993103-112.993103 112.993103H115.2c-62.305103 0-112.993103-50.688-112.993103-112.993103V190.861241c0-62.305103 50.688-112.993103 112.993103-112.993103h29.740138v-5.949793c0-36.069517 29.342897-65.412414 65.412414-65.412414h190.305103c36.069517 0 65.412414 29.342897 65.412414 65.412414v5.949793h553.074759c62.305103 0 112.993103 50.688 112.993103 112.993103zM37.888 220.601379h107.04331V113.540414H115.2c-42.637241 0-77.312 34.683586-77.312 77.312v29.740138z m1058.568828 368.710621h-149.804138a53.53931 53.53931 0 0 1-18.573242 18.582069l-102.108689 61.263448-61.263449 102.117517a53.159724 53.159724 0 0 1-50.379034 25.794207 53.177379 53.177379 0 0 1-45.364966-33.82731l-68.060689-173.929931H37.888v315.197793c0 42.628414 34.683586 77.312 77.312 77.312h903.944828c42.637241 0 77.312-34.692414 77.312-77.312V589.303172z m-531.597242-181.256828a54.219034 54.219034 0 0 1 58.094345-12.155586l160.715035 62.887724c1.085793-0.203034 2.206897-0.308966 3.336827-0.308965h160.776828a29.766621 29.766621 0 0 0 29.73131-29.740138v-47.58069a29.766621 29.766621 0 0 0-29.73131-29.73131H186.562207a29.766621 29.766621 0 0 0-29.73131 29.740138v47.580689a29.766621 29.766621 0 0 0 29.73131 29.731311h363.784827a54.219034 54.219034 0 0 1 14.512552-50.423173z m21.080276 45.082483l116.25931 297.092414a17.496276 17.496276 0 0 0 15.121656 11.281655 17.478621 17.478621 0 0 0 16.790069-8.598069l63.55862-105.931034c1.509517-2.515862 3.61931-4.616828 6.126345-6.126345l105.931035-63.558621a17.505103 17.505103 0 0 0 8.598069-16.790069 17.496276 17.496276 0 0 0-11.272828-15.121655l-297.101241-116.25931a18.529103 18.529103 0 0 0-24.011035 24.011034z m510.516966-196.855172H448.229517a17.831724 17.831724 0 0 1-17.831724-17.840552V71.909517a29.766621 29.766621 0 0 0-29.748965-29.73131H210.361379a29.766621 29.766621 0 0 0-29.740138 29.73131v166.523586a17.831724 17.831724 0 0 1-17.831724 17.831725H37.879172v297.357241H586.946207l-23.269517-59.471448h-377.114483c-36.069517 0-65.412414-29.351724-65.412414-65.412414v-47.58069c0-36.069517 29.342897-65.412414 65.412414-65.412414h761.220414c36.069517 0 65.412414 29.342897 65.412413 65.412414v47.58069c0 36.06069-29.342897 65.412414-65.412413 65.412414h-73.728l45.991724 17.99062a53.133241 53.133241 0 0 1 33.368276 41.480828h143.042207V256.282483z m0-65.421242c0-42.637241-34.683586-77.312-77.312-77.312H466.070069v107.043311h630.377931v-29.731311h0.008828z m-101.102345-42.813793a17.831724 17.831724 0 0 0-17.831724 17.831724v2.383449a17.831724 17.831724 0 1 0 35.672275 0v-2.383449a17.831724 17.831724 0 0 0-17.831724-17.831724z" fill="#4C4C4C" p-id="9579"></path></svg>