<?xml version="1.0" standalone="no"?><!DOCTYPE svg PUBLIC "-//W3C//DTD SVG 1.1//EN" "http://www.w3.org/Graphics/SVG/1.1/DTD/svg11.dtd"><svg t="1513245754460" class="icon" style="" viewBox="0 0 1024 1024" version="1.1" xmlns="http://www.w3.org/2000/svg" p-id="10109" xmlns:xlink="http://www.w3.org/1999/xlink" width="200" height="200"><defs><style type="text/css"></style></defs><path d="M1002.003845 171.730357v85.571472H18.027163v-85.571472c0-47.254822 38.308713-85.563535 85.563535-85.563535h812.849612c47.254822 0 85.563535 38.308713 85.563535 85.571473z" fill="#A5A5A5" p-id="10110"></path><path d="M1002.003845 214.516093v598.944744c0 47.254822-38.308713 85.555597-85.563535 85.555597H103.590698c-47.254822 0-85.563535-38.300775-85.563535-85.555597V214.508155h128.341333V64.773953a42.785736 42.785736 0 0 1 42.785737-42.777798h171.127069a42.785736 42.785736 0 0 1 42.785737 42.785736v149.734202h598.936806z" fill="#E9F2F4" p-id="10111"></path><path d="M895.047442 524.676961V759.982636a42.785736 42.785736 0 0 1-42.785737 42.785736h-684.492403a42.785736 42.785736 0 0 1-42.785736-42.785736V524.676961a42.785736 42.785736 0 0 1 42.785736-42.785736h684.492403a42.785736 42.785736 0 0 1 42.785737 42.785736zM167.769302 396.343566h192.512a42.785736 42.785736 0 1 0 0-85.563535H167.761364a42.785736 42.785736 0 1 0 0 85.563535z m342.246202 0h342.254139a42.785736 42.785736 0 1 0 0-85.563535H510.015504a42.785736 42.785736 0 1 0 0 85.563535z" fill="#CFDFE2" p-id="10112"></path><path d="M403.059101 64.773953v149.74214H146.376434V64.773953a42.785736 42.785736 0 0 1 42.785737-42.777798h171.127069a42.785736 42.785736 0 0 1 42.785737 42.785736z" fill="#C3E4ED" p-id="10113"></path><path d="M360.281302 96.867225v42.785736a21.392868 21.392868 0 0 1-21.392868 21.38493H210.539163a21.392868 21.392868 0 0 1-21.38493-21.392868v-42.785736a21.392868 21.392868 0 0 1 21.38493-21.38493h128.349271a21.38493 21.38493 0 0 1 21.392868 21.392868z" fill="#B2D1D8" p-id="10114"></path><path d="M852.269643 781.367566c0 124.046884-100.558388 224.605271-224.605271 224.605271-124.046884 0-224.605271-100.558388-224.605271-224.605271 0-124.038946 100.558388-224.597333 224.605271-224.597333 124.046884 0 224.605271 100.558388 224.605271 224.597333z" fill="#80A886" p-id="10115"></path><path d="M769.571721 781.367566c0 78.379659-63.535628 141.915287-141.907349 141.915287-78.379659 0-141.915287-63.535628-141.915287-141.915287 0-78.371721 63.535628-141.907349 141.915287-141.907349 78.371721 0 141.907349 63.535628 141.907349 141.907349z" fill="#A3CCAA" p-id="10116"></path><path d="M761.784558 794.973271l-80.340341 40.166202-40.174139 80.348279c-5.604217 11.216372-21.607194 11.216372-27.211411 0l-40.166202-80.340341-80.348279-40.17414c-11.208434-5.604217-11.208434-21.599256 0-27.211411l80.340341-40.166201 40.17414-80.348279c5.604217-11.208434 21.607194-11.208434 27.211411 0l40.166201 80.340341 80.348279 40.174139c11.208434 5.612155 11.208434 21.607194 0 27.211411z" fill="#FFFFFF" p-id="10117"></path><path d="M916.44031 70.124155H419.101767v-5.342264c0-32.442543-26.38586-58.828403-58.820465-58.828403H189.154233c-32.434605 0-58.820465 26.38586-58.820466 58.820465v5.350202H103.590698c-56.026295 0-101.606202 45.579907-101.606202 101.606202v641.722542c0 56.026295 45.579907 101.606202 101.606202 101.606202h320.861271c1.031938 0 2.040062-0.095256 3.016434-0.27783 43.198512 64.615194 116.81538 107.234233 200.195969 107.234233 83.388527 0 156.997457-42.626977 200.195969-107.242171 0.976372 0.190512 1.984496 0.285767 3.016434 0.285768h85.563535c56.026295 0 101.606202-45.579907 101.606202-101.606202V171.730357c0-56.026295-45.579907-101.606202-101.606202-101.606202z m-754.029147-5.342264a26.766884 26.766884 0 0 1 26.74307-26.743069h171.127069a26.766884 26.766884 0 0 1 26.735132 26.735131v133.699473H162.411163V64.773953zM34.069829 171.722419c0-38.332527 31.188341-69.520868 69.520869-69.520869h26.743069v96.263938H34.069829v-26.743069z m593.594543 818.199814c-114.997581 0-208.562605-93.557085-208.562605-208.562605 0-114.997581 93.565023-208.554667 208.562605-208.554667s208.562605 93.557085 208.562605 208.554667c0 115.005519-93.565023 208.562605-208.562605 208.562605z m358.296806-176.477272c0 38.340465-31.188341 69.520868-69.520868 69.520868h-70.648062a239.250853 239.250853 0 0 0 22.520062-101.606201c0-132.691349-107.956589-240.647938-240.647938-240.647938s-240.647938 107.956589-240.647938 240.647938c0 36.284527 8.07293 70.727442 22.520062 101.606201H103.590698c-38.340465 0-69.520868-31.188341-69.520869-69.520868V230.55876h951.891349v582.894139z m0-614.979473h-566.851473V102.209488h497.330605c38.340465 0 69.520868 31.196279 69.520868 69.520869v26.743069z m-74.871069-49.199628v2.143256a16.034729 16.034729 0 1 1-32.085334 0v-2.143256a16.034729 16.034729 0 1 1 32.085334 0z m-64.170667 0v2.143256a16.034729 16.034729 0 1 1-32.085333 0v-2.143256a16.034729 16.034729 0 1 1 32.085333 0z m-64.170667 0v2.143256a16.034729 16.034729 0 1 1-32.085333 0v-2.143256a16.034729 16.034729 0 1 1 32.085333 0zM693.398822 715.633116l-37.784806-75.561674a31.085147 31.085147 0 0 0-27.941706-17.273054h-0.007938c-11.906977 0-22.623256 6.620279-27.957581 17.273054l-37.776869 75.569612-75.561674 37.776868a31.085147 31.085147 0 0 0-17.273054 27.949644c0 11.914915 6.620279 22.623256 17.273054 27.957581l75.569612 37.784806 37.776869 75.561675a31.093085 31.093085 0 0 0 27.957581 17.273054c11.906977 0 22.623256-6.620279 27.941706-17.280992l37.784806-75.553737 75.569612-37.784806a31.085147 31.085147 0 0 0 17.265116-27.957581c0-11.906977-6.620279-22.623256-17.273054-27.949644l-75.569612-37.784806z m-19.130543 105.162419a16.042667 16.042667 0 0 0-7.175938 7.175938l-39.435907 78.848-39.420031-78.848a16.034729 16.034729 0 0 0-7.175938-7.175938l-78.848-39.427969 78.848-39.427969c3.103752-1.547907 5.628031-4.064248 7.175938-7.168l39.427969-78.855938 39.427969 78.855938c1.555845 3.095814 4.072186 5.620093 7.175938 7.168l78.855938 39.427969-78.855938 39.427969z" fill="#4C4C4C" p-id="10118"></path></svg>