<?xml version="1.0" standalone="no"?><!DOCTYPE svg PUBLIC "-//W3C//DTD SVG 1.1//EN" "http://www.w3.org/Graphics/SVG/1.1/DTD/svg11.dtd"><svg t="1513245738549" class="icon" style="" viewBox="0 0 1024 1024" version="1.1" xmlns="http://www.w3.org/2000/svg" p-id="9291" xmlns:xlink="http://www.w3.org/1999/xlink" width="200" height="200"><defs><style type="text/css"></style></defs><path d="M1003.988341 852.269643c0 47.254822-38.308713 85.563535-85.563535 85.563535H105.575194c-47.254822 0-85.563535-38.308713-85.563535-85.571473 0-47.246884 38.308713-85.555597 85.563535-85.555596h812.849612c47.254822 0 85.563535 38.308713 85.563535 85.563534z" fill="#DBD8D2" p-id="9292"></path><path d="M790.075535 868.31231H576.170667V60.804961a42.785736 42.785736 0 0 1 42.785736-42.777798h128.341333a42.785736 42.785736 0 0 1 42.785737 42.785736v807.499411z" fill="#FC8059" p-id="9293"></path><path d="M661.734202 868.31231H447.829333V274.717767a42.785736 42.785736 0 0 1 42.785737-42.785736h128.341333a42.785736 42.785736 0 0 1 42.785737 42.785736v593.594543z" fill="#BF5243" p-id="9294"></path><path d="M618.956403 868.31231H405.043597V231.939969a42.785736 42.785736 0 0 1 42.785736-42.785736h128.341334a42.785736 42.785736 0 0 1 42.785736 42.785736v636.372341z" fill="#A3CCAA" p-id="9295"></path><path d="M490.607132 868.31231H276.702264v-465.245271a42.785736 42.785736 0 0 1 42.785736-42.785737h128.341333a42.785736 42.785736 0 0 1 42.785737 42.785737v465.245271z" fill="#80A886" p-id="9296"></path><path d="M447.829333 868.31231H233.924465v-508.031008a42.785736 42.785736 0 0 1 42.777799-42.785736h128.349271a42.785736 42.785736 0 0 1 42.777798 42.785736v508.031008z" fill="#FED766" p-id="9297"></path><path d="M918.424806 510.015504v85.563535H298.095132V510.015504a42.785736 42.785736 0 0 1 42.785736-42.785737h534.76614a42.785736 42.785736 0 0 1 42.777798 42.785737z" fill="#A5A5A5" p-id="9298"></path><path d="M918.424806 574.186171v385.031938a42.785736 42.785736 0 0 1-42.785736 42.785736H340.880868a42.785736 42.785736 0 0 1-42.785736-42.785736V574.186171h85.571473V445.844837a21.392868 21.392868 0 0 1 21.38493-21.392868h128.349271a21.392868 21.392868 0 0 1 21.392868 21.392868v128.341334h363.63907z" fill="#E9F2F4" p-id="9299"></path><path d="M554.785736 445.844837v128.341334H383.642791V445.844837a21.392868 21.392868 0 0 1 21.392868-21.392868h128.349271a21.392868 21.392868 0 0 1 21.392868 21.392868z" fill="#C3E4ED" p-id="9300"></path><path d="M501.307535 510.015504h-64.170667a10.692465 10.692465 0 0 1-10.700403-10.692465v-21.392868c0-5.90586 4.794543-10.692465 10.700403-10.692466h64.170667c5.90586 0 10.692465 4.786605 10.692465 10.692466v21.392868c0 5.90586-4.786605 10.692465-10.692465 10.692465z" fill="#B2D1D8" p-id="9301"></path><path d="M843.561674 937.833178H372.958264a10.692465 10.692465 0 0 1-10.692466-10.692465V756.013643c0-5.90586 4.786605-10.700403 10.692466-10.700403h470.60341c5.897922 0 10.692465 4.794543 10.692466 10.700403v171.12707c0 5.897922-4.786605 10.692465-10.692466 10.692465zM512 691.835039V670.442171c0-5.897922-4.786605-10.692465-10.692465-10.692466H372.958264c-5.90586 0-10.692465 4.786605-10.692466 10.692466v21.392868c0 5.90586 4.786605 10.692465 10.692466 10.692465h128.349271c5.90586 0 10.692465-4.786605 10.692465-10.692465z m342.25414 0V670.442171c0-5.897922-4.786605-10.692465-10.692466-10.692466H565.478202c-5.90586 0-10.692465 4.786605-10.692466 10.692466v21.392868c0 5.90586 4.786605 10.692465 10.692466 10.692465h278.075534c5.913798 0 10.700403-4.786605 10.700404-10.692465z" fill="#CFDFE2" p-id="9302"></path><path d="M934.467473 751.925581V510.015504c0-32.434605-26.393798-58.820465-58.820465-58.820465h-69.528806V60.804961c0-32.434605-26.38586-58.820465-58.820466-58.820465H618.956403c-32.442543 0-58.828403 26.38586-58.828403 58.820465v112.306605H447.829333c-32.434605 0-58.820465 26.38586-58.820465 58.820465v69.520868H276.694326c-32.434605 0-58.820465 26.393798-58.820466 58.820465v390.390078H105.575194c-56.026295 0-101.606202 45.579907-101.606202 101.606201 0 56.026295 45.579907 101.606202 101.606202 101.606202h176.477271v5.350202c0 32.434605 26.38586 58.820465 58.820465 58.820465h534.774078c32.426667 0 58.820465-26.38586 58.820465-58.820465v-6.62028c48.429643-7.707783 85.563535-49.771163 85.563535-100.336124 0-50.564961-37.133891-92.628341-85.563535-100.344062zM592.213333 60.812899a26.766884 26.766884 0 0 1 26.74307-26.74307h128.341333a26.766884 26.766884 0 0 1 26.74307 26.74307v390.374202H634.99907V231.947907c0-26.885953-18.114481-49.604465-42.785737-56.597829V60.804961zM421.086264 231.924093a26.766884 26.766884 0 0 1 26.743069-26.735132h128.341334a26.766884 26.766884 0 0 1 26.743069 26.735132V451.195039H570.820465v-5.350202c0-20.63876-16.796775-37.435535-37.435535-37.435535h-69.520868v-48.128c0-26.878016-18.114481-49.604465-42.785736-56.597829v-71.743504zM538.751008 445.844837v112.298667H399.693395V445.844837c0-2.944992 2.397271-5.350202 5.342264-5.350201h128.349271c2.944992 0 5.350202 2.405209 5.350202 5.350201z m-256.690605 475.945675H105.575194c-38.340465 0-69.520868-31.196279-69.520868-69.520869 0-38.340465 31.188341-69.520868 69.520868-69.520868h112.298666v53.470264H126.968062a16.034729 16.034729 0 1 0 0 32.093271h155.084403v53.478202z m0-411.775008v326.211473H249.967132V360.281302a26.766884 26.766884 0 0 1 26.735132-26.743069h128.349271a26.766884 26.766884 0 0 1 26.735132 26.743069v48.128h-26.74307a37.475225 37.475225 0 0 0-37.427597 37.435535v5.350202h-26.74307c-32.434605 0-58.820465 26.38586-58.820465 58.820465z m85.563535-26.735132v74.863132h-53.478202V510.015504a26.766884 26.766884 0 0 1 26.735132-26.735132h26.735132z m534.76614 475.945675a26.766884 26.766884 0 0 1-26.735132 26.735131H340.87293a26.766884 26.766884 0 0 1-26.735132-26.735131V590.228837h588.244342v368.989272z m0-401.082543H570.820465v-74.863132h304.818605a26.766884 26.766884 0 0 1 26.74307 26.735132v48.128z m32.085333 361.773643V784.614202c30.624744 7.263256 53.478202 34.839814 53.478201 67.655441 0 32.80769-22.853457 60.392186-53.478201 67.647504zM741.955473 519.644279v2.143256a16.034729 16.034729 0 1 1-32.085333 0v-2.143256a16.034729 16.034729 0 1 1 32.077395 0z m128.341333 0v2.143256a16.034729 16.034729 0 1 1-32.085333 0v-2.143256a16.034729 16.034729 0 1 1 32.085333 0z m-64.170666 0v2.143256a16.034729 16.034729 0 1 1-32.085334 0v-2.143256a16.034729 16.034729 0 1 1 32.085334 0z" fill="#4C4C4C" p-id="9303"></path></svg>