<?xml version="1.0" standalone="no"?><!DOCTYPE svg PUBLIC "-//W3C//DTD SVG 1.1//EN" "http://www.w3.org/Graphics/SVG/1.1/DTD/svg11.dtd"><svg t="1513245736074" class="icon" style="" viewBox="0 0 1024 1024" version="1.1" xmlns="http://www.w3.org/2000/svg" p-id="9153" xmlns:xlink="http://www.w3.org/1999/xlink" width="200" height="200"><defs><style type="text/css"></style></defs><path d="M1002.003845 167.761364v64.178605H18.027163v-64.178605c0-47.254822 38.308713-85.563535 85.563535-85.563535h812.849612c47.254822 0 85.563535 38.316651 85.563535 85.571473z" fill="#A5A5A5" p-id="9154"></path><path d="M1002.003845 210.547101v598.96062c0 47.26276-38.308713 85.571473-85.563535 85.571473H103.590698c-47.254822 0-85.563535-38.308713-85.563535-85.571473V210.555039h128.341333V60.804961a42.785736 42.785736 0 0 1 42.785737-42.785736h171.127069a42.785736 42.785736 0 0 1 42.785737 42.785736v149.74214h598.936806z" fill="#E9F2F4" p-id="9155"></path><path d="M403.059101 60.804961v149.750078H146.376434V60.804961a42.785736 42.785736 0 0 1 42.785737-42.785736h171.127069a42.785736 42.785736 0 0 1 42.785737 42.785736z" fill="#C3E4ED" p-id="9156"></path><path d="M360.281302 92.898233v42.785736a21.392868 21.392868 0 0 1-21.392868 21.392868H210.539163a21.392868 21.392868 0 0 1-21.38493-21.392868v-42.785736a21.392868 21.392868 0 0 1 21.38493-21.392869h128.349271a21.392868 21.392868 0 0 1 21.392868 21.392869z" fill="#B2D1D8" p-id="9157"></path><path d="M852.269643 798.815256H167.761364a42.785736 42.785736 0 0 1-42.785736-42.785737V520.731783a42.785736 42.785736 0 0 1 42.785736-42.785736h684.508279a42.785736 42.785736 0 0 1 42.785737 42.785736v235.305674a42.785736 42.785736 0 0 1-42.785737 42.785737z m-449.210542-449.218481a42.785736 42.785736 0 0 0-42.785737-42.785736H167.769302a42.785736 42.785736 0 1 0 0 85.571473h192.519938a42.785736 42.785736 0 0 0 42.785737-42.785737z m491.996279 0a42.785736 42.785736 0 0 0-42.785737-42.785736H510.015504a42.785736 42.785736 0 1 0 0 85.571473h342.254139a42.785736 42.785736 0 0 0 42.785737-42.785737z" fill="#CFDFE2" p-id="9158"></path><path d="M989.469767 868.494884l-120.998697-121.014574a42.785736 42.785736 0 0 0-60.503318 0l-48.262946-48.262946c59.114171-87.373395 50.009302-207.133767-27.362232-284.505302-87.714729-87.714729-229.923721-87.714729-317.63845 0s-87.714729 229.931659 0 317.646388c77.363597 77.363597 197.123969 86.476403 284.497364 27.362232l48.262946 48.262946a42.785736 42.785736 0 0 0 0 60.503318l121.006636 121.014573a42.785736 42.785736 0 0 0 60.503318 0l60.495379-60.503317a42.785736 42.785736 0 0 0 0-60.503318z" fill="#84A7B7" p-id="9159"></path><path d="M759.696868 699.217364l48.262946 48.262946-60.49538 60.511256-48.262946-48.270884a225.930915 225.930915 0 0 0 60.49538-60.503318z" fill="#256277" p-id="9160"></path><path d="M723.253581 573.535256c0 82.697922-67.036279 149.74214-149.734201 149.742139s-149.734202-67.036279-149.734202-149.742139c0-82.697922 67.036279-149.734202 149.734202-149.734202s149.734202 67.036279 149.734201 149.734202z" fill="#C3E4ED" p-id="9161"></path><path d="M714.577364 523.240186L523.216372 714.59324a150.067597 150.067597 0 0 1-69.624062-51.382573l209.594543-209.602481a150.123163 150.123163 0 0 1 51.374635 69.632zM623.806512 432.485209L432.469333 623.830326c2.508403 7.033054 5.508961 13.812093 8.993737 20.32124l202.664682-202.67262a149.242047 149.242047 0 0 0-20.313302-8.993737z" fill="#DCF3F9" p-id="9162"></path><path d="M574.186171 461.569984a42.785736 42.785736 0 1 1 0 85.563535 42.785736 42.785736 0 0 1 0-85.571472z" fill="#FFFFFF" p-id="9163"></path><path d="M1018.046512 809.515659V167.769302c0-56.026295-45.579907-101.606202-101.606202-101.606201H419.101767V60.804961c0-32.434605-26.38586-58.820465-58.820465-58.820465H189.154233c-32.434605 0-58.820465 26.38586-58.820466 58.820465v5.350202H103.590698c-56.026295 0-101.606202 45.579907-101.606202 101.606201v641.738419c0 56.026295 45.579907 101.606202 101.606202 101.606201h663.115411l0.682666-0.007937 89.738915 89.738914a58.637891 58.637891 0 0 0 41.595039 17.201613 58.645829 58.645829 0 0 0 41.595038-17.201613l60.49538-60.503318c11.113178-11.113178 17.233364-25.877829 17.233365-41.595038 0-14.050233-4.897736-27.362233-13.875597-37.959442l0.277829-0.460403a101.582388 101.582388 0 0 0 13.597768-50.811039zM162.411163 60.804961a26.766884 26.766884 0 0 1 26.74307-26.74307h171.127069a26.766884 26.766884 0 0 1 26.735132 26.74307v133.699473H162.411163V60.804961zM34.069829 167.769302c0-38.340465 31.188341-69.520868 69.520869-69.520868h26.743069v96.256H34.069829v-26.735132z m709.608187 575.932527a241.814822 241.814822 0 0 0 17.868403-19.948155l23.734573 23.734574-37.816558 37.80862-23.718698-23.718697c6.913984-5.548651 13.573953-11.510078 19.93228-17.876342z m-22.68676-22.686759a210.86462 210.86462 0 0 1-29.85476 24.830015 15.614016 15.614016 0 0 0-1.817798 1.230388c-33.99045 22.782016-73.950264 35.030326-115.799318 35.030325-55.708775 0-108.075659-21.694512-147.471876-61.090728-39.388279-39.396217-61.082791-91.763101-61.082791-147.479814 0-55.700837 21.694512-108.083597 61.082791-147.471876 40.658357-40.658357 94.065116-60.995473 147.471876-60.995473s106.821457 20.329178 147.479814 60.995473c71.672062 71.68 80.165705 182.970543 25.488868 264.049116a208.800744 208.800744 0 0 1-25.496806 30.910512v-0.007938z m257.135132 196.639752l-60.503318 60.503318a26.766884 26.766884 0 0 1-37.816558 0l-120.998698-121.006636a26.766884 26.766884 0 0 1 0-37.816558l60.503318-60.503318a26.647814 26.647814 0 0 1 18.908279-7.818915c6.842543 0 13.693023 2.603659 18.900341 7.818915l121.006636 121.006636c5.048558 5.048558 7.826853 11.764093 7.826852 18.908279 0.007938 7.144186-2.778295 13.859721-7.826852 18.908279z m7.83479-108.139163c0 9.398574-1.905116 18.67014-5.540713 27.235225l-100.613953-100.606016a58.439442 58.439442 0 0 0-41.595039-17.233364 58.48707 58.48707 0 0 0-28.687876 7.445829L780.12924 696.955039c55.17693-92.39814 43.031814-214.111256-36.451224-293.594295-93.826977-93.826977-246.498233-93.826977-340.32521 0-45.452899 45.460837-70.489302 105.892713-70.489302 170.174512 0 64.27386 25.036403 124.705736 70.489302 170.158635 45.452899 45.460837 105.892713 70.489302 170.158636 70.489303 44.182822 0 86.555783-11.827597 123.483287-33.974574l29.330852 29.330853a58.518822 58.518822 0 0 0-7.437891 28.695814 58.423566 58.423566 0 0 0 16.431628 40.793302H103.590698c-38.332527 0-69.520868-31.196279-69.520869-69.520868V226.597705h951.891349v582.917954z m0-615.011225h-566.851473V98.248434h497.330605c38.332527 0 69.520868 31.188341 69.520868 69.520868v26.735132zM573.51938 407.758388a164.697302 164.697302 0 0 0-117.228155 48.556651c-64.63107 64.646946-64.63107 169.817302 0 234.45631 32.323473 32.323473 74.775814 48.485209 117.228155 48.485209 42.452341 0 84.904682-16.161736 117.220217-48.485209 64.639008-64.639008 64.639008-169.809364 0-234.448372a164.689364 164.689364 0 0 0-117.220217-48.556651z m94.541395 260.326201c-52.136682 52.120806-136.954047 52.120806-189.082791 0-52.120806-52.128744-52.120806-136.946109 0-189.074853a132.802481 132.802481 0 0 1 94.541396-39.158077 132.802481 132.802481 0 0 1 94.533457 39.158077c52.128744 52.120806 52.128744 136.946109 0 189.074853z m114.688-522.771845v2.143256a16.034729 16.034729 0 1 1-32.085333 0v-2.143256a16.034729 16.034729 0 1 1 32.085333 0z m128.341334 0v2.143256a16.034729 16.034729 0 1 1-32.085334 0v-2.143256a16.034729 16.034729 0 1 1 32.085334 0z m-64.170667 0v2.143256a16.034729 16.034729 0 1 1-32.085333 0v-2.143256a16.034729 16.034729 0 1 1 32.085333 0z" fill="#4C4C4C" p-id="9164"></path></svg>