<?xml version="1.0" standalone="no"?><!DOCTYPE svg PUBLIC "-//W3C//DTD SVG 1.1//EN" "http://www.w3.org/Graphics/SVG/1.1/DTD/svg11.dtd"><svg t="1513245741391" class="icon" style="" viewBox="0 0 1032 1024" version="1.1" xmlns="http://www.w3.org/2000/svg" p-id="9430" xmlns:xlink="http://www.w3.org/1999/xlink" width="201.5625" height="200"><defs><style type="text/css"></style></defs><path d="M1011.832 512v86.232H386.648V512a43.12 43.12 0 0 1 43.12-43.12h538.952a43.12 43.12 0 0 1 43.112 43.12z" fill="#A5A5A5" p-id="9431"></path><path d="M1011.832 576.672v388.04a43.12 43.12 0 0 1-43.12 43.12H429.776a43.12 43.12 0 0 1-43.12-43.12V576.672h86.24V447.328a21.56 21.56 0 0 1 21.552-21.56h129.352a21.56 21.56 0 0 1 21.552 21.56v129.344h366.488z" fill="#FED766" p-id="9432"></path><path d="M936.376 943.16H462.104a10.776 10.776 0 0 1-10.776-10.776V759.92c0-5.952 4.824-10.784 10.776-10.784h474.28c5.944 0 10.776 4.832 10.776 10.784v172.464c0 5.944-4.832 10.776-10.784 10.776z m10.784-247.92V673.68c0-5.944-4.824-10.776-10.776-10.776H462.104c-5.952 0-10.776 4.824-10.776 10.776v21.56c0 5.952 4.824 10.776 10.776 10.776h474.28c5.944 0 10.776-4.824 10.776-10.776z" fill="#E8BA52" p-id="9433"></path><path d="M828.592 307.2v97.008H203.408V307.2a43.12 43.12 0 0 1 43.12-43.12h538.944a43.12 43.12 0 0 1 43.12 43.12z" fill="#A5A5A5" p-id="9434"></path><path d="M828.592 371.872V759.92a43.12 43.12 0 0 1-43.12 43.112H246.528a43.12 43.12 0 0 1-43.12-43.12V371.88h86.24V242.528A21.56 21.56 0 0 1 311.2 220.96h129.352a21.56 21.56 0 0 1 21.552 21.56v129.344h366.48z" fill="#A3CCAA" p-id="9435"></path><path d="M753.136 738.36H278.864a10.776 10.776 0 0 1-10.776-10.776V555.12c0-5.96 4.824-10.784 10.776-10.784h474.272c5.952 0 10.784 4.824 10.784 10.776v172.472c0 5.952-4.832 10.776-10.784 10.776z m10.784-247.92v-21.552c0-5.952-4.832-10.784-10.784-10.784H278.864c-5.952 0-10.776 4.832-10.776 10.784v21.552c0 5.952 4.824 10.784 10.776 10.784h474.272c5.952 0 10.784-4.832 10.784-10.784z" fill="#80A886" p-id="9436"></path><path d="M645.344 102.4v86.232H20.168V102.4a43.12 43.12 0 0 1 43.12-43.12h538.944a43.12 43.12 0 0 1 43.12 43.12z" fill="#A5A5A5" p-id="9437"></path><path d="M645.344 167.072V555.12a43.12 43.12 0 0 1-43.112 43.12H63.288a43.12 43.12 0 0 1-43.12-43.12V167.072H106.4V37.728a21.56 21.56 0 0 1 21.56-21.56h129.344a21.56 21.56 0 0 1 21.56 21.56v129.344h366.48z" fill="#FCBB9A" p-id="9438"></path><path d="M278.864 37.728v129.344H106.4V37.728a21.56 21.56 0 0 1 21.56-21.56h129.344a21.56 21.56 0 0 1 21.56 21.56z" fill="#FC8059" p-id="9439"></path><path d="M224.968 102.4h-64.672a10.776 10.776 0 0 1-10.784-10.776V70.064c0-5.952 4.832-10.776 10.784-10.776h64.672c5.952 0 10.776 4.824 10.776 10.776v21.56c0 5.952-4.824 10.776-10.776 10.776z" fill="#F75631" p-id="9440"></path><path d="M569.896 533.56H95.624a10.776 10.776 0 0 1-10.784-10.776V350.304c0-5.952 4.832-10.776 10.784-10.776h474.272c5.952 0 10.776 4.824 10.776 10.776v172.464c0 5.96-4.824 10.784-10.776 10.784z m-334.144-247.92v-21.552c0-5.96-4.832-10.784-10.784-10.784H95.624c-5.952 0-10.784 4.832-10.784 10.784v21.552c0 5.952 4.832 10.784 10.784 10.784H224.96c5.952 0 10.784-4.832 10.784-10.784z m344.92 0v-21.552c0-5.96-4.824-10.784-10.776-10.784H289.64c-5.952 0-10.776 4.832-10.776 10.784v21.552c0 5.952 4.824 10.784 10.776 10.784h280.256c5.952 0 10.776-4.832 10.776-10.784z" fill="#FC8059" p-id="9441"></path><path d="M715.408 316.904v2.16a16.16 16.16 0 1 1-32.336 0v-2.16a16.16 16.16 0 1 1 32.336 0z m-264.08-220.968a16.16 16.16 0 0 0-16.168 16.16v2.16a16.16 16.16 0 1 0 32.336 0v-2.16a16.16 16.16 0 0 0-16.168-16.16z m64.672 0a16.16 16.16 0 0 0-16.168 16.16v2.16a16.16 16.16 0 1 0 32.336 0v-2.16a16.16 16.16 0 0 0-16.168-16.16z m247.92 204.8a16.16 16.16 0 0 0-16.168 16.16v2.16a16.16 16.16 0 1 0 32.328 0v-2.16a16.16 16.16 0 0 0-16.16-16.16z m-183.248-204.8a16.16 16.16 0 0 0-16.16 16.16v2.16a16.16 16.16 0 1 0 32.328 0v-2.16a16.16 16.16 0 0 0-16.16-16.16z m366.48 409.6a16.16 16.16 0 0 0-16.16 16.16v2.16a16.16 16.16 0 1 0 32.336 0v-2.16a16.16 16.16 0 0 0-16.168-16.16zM1028 512v452.72c0 32.68-26.6 59.28-59.28 59.28H429.76c-32.688 0-59.28-26.6-59.28-59.28V819.2H246.528c-32.688 0-59.28-26.6-59.28-59.28V614.4H63.28C30.584 614.4 4 587.8 4 555.12V102.4c0-32.688 26.592-59.28 59.28-59.28h26.952v-5.392c0-20.8 16.928-37.728 37.728-37.728h129.344c20.8 0 37.728 16.928 37.728 37.728v5.384h307.2c32.688 0 59.28 26.6 59.28 59.288v145.52h123.96c32.688 0 59.28 26.592 59.28 59.28v145.52h123.968c32.68 0 59.28 26.592 59.28 59.28zM661.52 355.704h150.904V307.2a26.976 26.976 0 0 0-26.952-26.944H661.52v75.448z m-366.488-204.8h334.144V102.4a26.976 26.976 0 0 0-26.944-26.952h-307.2v75.456z m-172.464 0h140.128V37.728a5.4 5.4 0 0 0-5.392-5.392H127.96a5.4 5.4 0 0 0-5.392 5.392v113.176z m-86.232 0h53.896V75.456H63.28A26.976 26.976 0 0 0 36.344 102.4v48.504z m565.896 431.16a26.976 26.976 0 0 0 26.944-26.944V183.232H36.336V555.12a26.976 26.976 0 0 0 26.952 26.952h538.944z m183.24 204.8a26.976 26.976 0 0 0 26.952-26.944V388.04H661.512V555.12c0 32.696-26.592 59.288-59.28 59.288H219.576v145.52a26.976 26.976 0 0 0 26.952 26.944h538.944z m210.192-194.024h-150.904V759.92c0 32.688-26.6 59.28-59.28 59.28H402.816v145.52a26.976 26.976 0 0 0 26.944 26.944h538.952a26.976 26.976 0 0 0 26.944-26.944V592.84z m0-80.84a26.976 26.976 0 0 0-26.944-26.944h-123.96v75.448h150.904V512z m-113.176-6.472a16.16 16.16 0 0 0-16.176 16.176v2.152a16.16 16.16 0 1 0 32.344 0v-2.16a16.16 16.16 0 0 0-16.168-16.16z" fill="#4C4C4C" p-id="9442"></path></svg>