<?xml version="1.0" standalone="no"?><!DOCTYPE svg PUBLIC "-//W3C//DTD SVG 1.1//EN" "http://www.w3.org/Graphics/SVG/1.1/DTD/svg11.dtd"><svg t="1513245751497" class="icon" style="" viewBox="0 0 1130 1024" version="1.1" xmlns="http://www.w3.org/2000/svg" p-id="9976" xmlns:xlink="http://www.w3.org/1999/xlink" width="220.703125" height="200"><defs><style type="text/css"></style></defs><path d="M1112.090483 190.861241v83.252966H17.840552v-83.252966c0-52.550621 42.601931-95.152552 95.152551-95.152551h903.944828c52.550621 0 95.152552 42.601931 95.152552 95.152551z" fill="#A5A5A5" p-id="9977"></path><path d="M1112.090483 238.433103v666.067863c0 52.550621-42.601931 95.152552-95.152552 95.152551H112.993103c-52.550621 0-95.152552-42.601931-95.152551-95.152551V238.441931h142.724414V71.909517a47.58069 47.58069 0 0 1 47.580689-47.580689h190.305104a47.58069 47.58069 0 0 1 47.580689 47.580689v166.523586h666.059035z" fill="#E9F2F4" p-id="9978"></path><path d="M945.575724 892.610207H184.35531a47.58069 47.58069 0 0 1-47.580689-47.58069V583.362207a47.58069 47.58069 0 0 1 47.580689-47.58069h761.220414a47.58069 47.58069 0 0 1 47.58069 47.58069v261.66731a47.58069 47.58069 0 0 1-47.58069 47.58069z m-499.553103-499.553104a47.58069 47.58069 0 0 0-47.58069-47.580689H184.364138a47.58069 47.58069 0 1 0 0 95.152552h214.095448a47.58069 47.58069 0 0 0 47.58069-47.571863z m547.133793 0a47.58069 47.58069 0 0 0-47.58069-47.580689H564.965517a47.58069 47.58069 0 1 0 0 95.152552h380.610207a47.58069 47.58069 0 0 0 47.58069-47.571863z" fill="#CFDFE2" p-id="9979"></path><path d="M446.022621 71.918345v166.523586H160.573793V71.909517a47.58069 47.58069 0 0 1 47.58069-47.580689h190.305103a47.58069 47.58069 0 0 1 47.58069 47.580689z" fill="#C3E4ED" p-id="9980"></path><path d="M398.450759 107.608276v47.571862a23.790345 23.790345 0 0 1-23.790345 23.790345H231.927172a23.790345 23.790345 0 0 1-23.781517-23.790345v-47.58069a23.790345 23.790345 0 0 1 23.781517-23.781517h142.733242a23.790345 23.790345 0 0 1 23.790345 23.790345z" fill="#B2D1D8" p-id="9981"></path><path d="M832.582621 168.262621v-2.383449a17.831724 17.831724 0 1 1 35.681103 0v2.383449a17.831724 17.831724 0 1 1-35.681103 0z m89.202758 17.840551a17.831724 17.831724 0 0 0 17.840552-17.840551v-2.383449a17.831724 17.831724 0 1 0-35.681103 0v2.383449a17.831724 17.831724 0 0 0 17.840551 17.840551z m71.362207 0a17.831724 17.831724 0 0 0 17.840552-17.840551v-2.383449a17.831724 17.831724 0 1 0-35.681104 0v2.383449a17.831724 17.831724 0 0 0 17.840552 17.840551z m136.783448 4.758069v713.639725c0 62.305103-50.688 112.993103-112.993103 112.993103H112.993103c-62.305103 0-112.993103-50.688-112.993103-112.993103V190.861241c0-62.305103 50.688-112.993103 112.993103-112.993103h29.740138v-5.949793c0-36.069517 29.342897-65.412414 65.412414-65.412414h190.305104c36.069517 0 65.412414 29.342897 65.412413 65.412414v5.949793H1016.937931c62.305103 0 112.993103 50.688 112.993103 112.993103z m-666.067862-77.312V220.601379h630.377931V190.852414c0-42.628414-34.674759-77.312-77.303172-77.312H463.863172zM178.405517 220.601379h249.776552V71.909517a29.766621 29.766621 0 0 0-29.73131-29.73131H208.145655a29.766621 29.766621 0 0 0-29.740138 29.73131V220.601379zM35.681103 190.852414v29.740138h107.043311V113.540414H112.993103c-42.628414 0-77.312 34.683586-77.312 77.312z m1058.568828 65.412414H35.681103v648.22731c0 42.628414 34.683586 77.312 77.312 77.312h903.944828c42.637241 0 77.312-34.683586 77.312-77.312V256.282483z" fill="#4C4C4C" p-id="9982"></path></svg>