<?xml version="1.0" standalone="no"?><!DOCTYPE svg PUBLIC "-//W3C//DTD SVG 1.1//EN" "http://www.w3.org/Graphics/SVG/1.1/DTD/svg11.dtd"><svg t="1513245729848" class="icon" style="" viewBox="0 0 1065 1024" version="1.1" xmlns="http://www.w3.org/2000/svg" p-id="8878" xmlns:xlink="http://www.w3.org/1999/xlink" width="208.0078125" height="200"><defs><style type="text/css"></style></defs><path d="M997.904516 202.512516v578.584774c0 49.160258-39.861677 89.013677-89.021935 89.013678H152.27871c-49.168516 0-89.021935-39.853419-89.021936-89.013678V202.512516c0-49.160258 39.853419-89.021935 89.021936-89.021935h756.603871c49.160258 0 89.021935 39.861677 89.021935 89.021935z" fill="#F2EFE2" p-id="8879"></path><path d="M552.836129 313.773419c0 147.489032-119.560258 267.041032-267.041032 267.041033S18.754065 461.262452 18.754065 313.773419c0-147.480774 119.560258-267.041032 267.041032-267.041032 147.489032 0 267.041032 119.560258 267.041032 267.041032z" fill="#E8BA52" p-id="8880"></path><path d="M508.325161 313.773419c0 122.904774-99.633548 222.538323-222.530064 222.538323S63.265032 436.678194 63.265032 313.773419c0-122.896516 99.633548-222.530065 222.530065-222.530064 122.904774 0 222.530065 99.62529 222.530064 222.530064z" fill="#FED766" p-id="8881"></path><path d="M412.961032 313.773419c0 70.234839-56.939355 127.165935-127.165935 127.165936S158.637419 384.008258 158.637419 313.773419c0-70.226581 56.931097-127.157677 127.157678-127.157677s127.165935 56.931097 127.165935 127.157677z" fill="#FFED80" p-id="8882"></path><path d="M429.650581 313.773419c0-62.307097-39.836903-115.480774-95.380646-135.424v-42.603354a16.689548 16.689548 0 0 0-33.370838 0v34.972903a144.829935 144.829935 0 0 0-30.208 0v-34.972903a16.689548 16.689548 0 0 0-33.379097 0v42.611612C181.776516 198.284387 141.956129 251.458065 141.956129 313.765161c0 62.315355 39.828645 115.480774 95.364129 135.432258v42.595097a16.689548 16.689548 0 0 0 33.379097 0v-34.972903a144.829935 144.829935 0 0 0 30.208 0v34.972903a16.689548 16.689548 0 0 0 33.379097 0v-42.603355c55.535484-19.934968 95.372387-73.108645 95.372387-135.424z m-254.323613 0c0-43.52 25.310968-81.242839 61.985032-99.237161v198.482581c-36.674065-17.994323-61.985032-55.717161-61.985032-99.24542z m110.468129 110.476387c-5.12 0-10.157419-0.379871-15.104-1.06529V204.362323a110.757161 110.757161 0 0 1 15.104-1.057033c5.12 0 10.157419 0.379871 15.104 1.057033v218.830451a111.483871 111.483871 0 0 1-15.104 1.057032z m48.474838-11.230967V214.536258c36.682323 17.986065 62.001548 55.708903 62.001549 99.237161 0 43.528258-25.319226 81.259355-61.99329 99.237162zM463.822452 476.399484h534.082064a44.510968 44.510968 0 0 1 44.50271 44.510968v438.214193a44.510968 44.510968 0 0 1-44.510968 44.510968H463.822452a44.510968 44.510968 0 0 1-44.510968-44.510968V520.902194a44.510968 44.510968 0 0 1 44.510968-44.510968z" fill="#AD8653" p-id="8883"></path><path d="M658.960516 596.224a47.929806 47.929806 0 1 1-95.859613 0 47.929806 47.929806 0 0 1 95.859613 0z m191.727484-47.929806a47.929806 47.929806 0 1 0 0 95.859612 47.929806 47.929806 0 0 0 0-95.859612z" fill="#7F5233" p-id="8884"></path><path d="M997.904516 174.691097v200.282838a16.689548 16.689548 0 0 1-33.387355 0V174.691097c0-39.878194-32.437677-72.324129-72.315871-72.324129H709.392516v79.91329c0 2.320516-1.172645 4.558452-3.253677 6.201807-4.343742 3.427097-11.396129 3.427097-15.739871 0l-86.544516-68.294194c-8.687484-6.854194-8.687484-17.977806 0-24.840258l86.544516-68.294194c4.352-3.427097 11.396129-3.427097 15.739871 0 2.08929 1.651613 3.253677 3.88129 3.253677 6.210065v35.724387h182.800516c58.285419 0 105.703226 47.426065 105.703226 105.703226z m-540.597677 688.72258l-86.544516-68.294193c-4.352-3.427097-11.396129-3.427097-15.739871 0-2.08929 1.651613-3.261935 3.88129-3.261936 6.210064v79.905033H168.968258c-39.886452 0-72.324129-32.445935-72.324129-72.324129V608.627613a16.689548 16.689548 0 0 0-33.379097 0v200.282839c0 58.285419 47.417806 105.703226 105.703226 105.703225h182.800516v35.724388c0 2.328774 1.172645 4.56671 3.253678 6.210064 4.343742 3.427097 11.396129 3.427097 15.739871 0l86.544516-68.294194c8.687484-6.854194 8.687484-17.977806 0-24.832z" fill="#FC8059" p-id="8885"></path><path d="M997.904516 459.709935h-130.526968v-7.283612c0-75.272258-61.241806-136.514065-136.522322-136.514065-75.272258 0-136.505806 61.241806-136.505807 136.514065v7.283612H529.176774c26.475355-43.924645 40.340645-93.786839 40.340645-145.936516 0-156.449032-127.281548-283.730581-283.73058-283.73058C129.337806 30.042839 2.064516 157.316129 2.064516 313.765161c0 156.449032 127.281548 283.730581 283.730581 283.730581 40.414968 0 80.301419-8.621419 116.826838-25.112774v226.617806l-21.520516-16.986839c-10.380387-8.183742-26.037677-8.192-36.418064 0-6.110968 4.82271-9.604129 11.866839-9.604129 19.315613v57.81471H152.262194c-39.878194 0-72.324129-32.445935-72.324129-72.324129V586.545548a16.68129 16.68129 0 1 0-33.370839 0V786.828387c0 58.285419 47.417806 105.703226 105.703226 105.703226h182.792258v57.822968c0 7.448774 3.501419 14.484645 9.604129 19.307354h0.008258c10.380387 8.192 26.029419 8.192 36.418064 0l21.520516-16.986838v6.457806c0 33.742452 27.458065 61.192258 61.200517 61.192258h534.082064c33.742452 0 61.192258-27.449806 61.192258-61.192258V520.902194c0-33.742452-27.449806-61.192258-61.192258-61.192259zM850.688 612.913548a16.68129 16.68129 0 0 0 16.68129-16.689548v-26.401032a31.240258 31.240258 0 0 1 14.558968 26.401032 31.27329 31.27329 0 0 1-31.240258 31.240258 31.281548 31.281548 0 0 1-31.248516-31.240258c0-11.090581 5.813677-20.851613 14.558968-26.401032V596.232258c0 9.216 7.46529 16.689548 16.68129 16.689548z m-222.967742-160.487225c0-56.865032 46.269935-103.134968 103.143226-103.134968 56.865032 0 103.134968 46.269935 103.134968 103.143226v7.267096H627.720258v-7.267096z m-16.68129 160.487225a16.68129 16.68129 0 0 0 16.68129-16.689548v-26.401032a31.240258 31.240258 0 0 1 14.55071 26.401032 31.281548 31.281548 0 0 1-31.240258 31.240258A31.281548 31.281548 0 0 1 579.79871 596.232258c0-11.090581 5.813677-20.851613 14.550709-26.401032V596.232258c0 9.216 7.473548 16.689548 16.697807 16.689548z m-325.243871-48.788645c-138.041806 0-250.351484-112.309677-250.351484-250.351484s112.309677-250.359742 250.351484-250.359742 250.351484 112.309677 250.351484 250.359742c0 52.958968-16.202323 103.242323-46.930581 145.928258h-25.393548c-33.742452 0-61.192258 27.458065-61.192258 61.192258v14.344259a250.359742 250.359742 0 0 1-116.835097 28.886709z m123.325935 340.892903a6.292645 6.292645 0 0 0-0.280774 0.222968l-40.390193 31.876129v-122.549677l40.481032 31.942193a4.335484 4.335484 0 0 0 0.099097 0.082581l37.062193 29.250065-36.971355 29.184z m616.596645 54.115097a27.846194 27.846194 0 0 1-27.813161 27.813162H463.814194a27.846194 27.846194 0 0 1-27.82142-27.813162v-32.801032l31.636645-24.972387c8.175484-6.449548 12.866065-15.748129 12.874323-25.517419 0-9.761032-4.690581-19.067871-12.866065-25.51742l-31.636645-24.964129V545.362581 520.902194a27.846194 27.846194 0 0 1 27.813162-27.813162h130.526967v40.695742c-27.573677 7.374452-47.938065 32.578065-47.938064 62.430968 0 35.641806 28.985806 64.627613 64.627613 64.627613 35.62529 0 64.619355-28.985806 64.619355-64.619355 0-29.861161-20.364387-55.064774-47.938065-62.430968v-40.712258h206.269935v40.712258c-27.565419 7.366194-47.929806 32.569806-47.929806 62.430968 0 35.633548 28.985806 64.619355 64.627613 64.619355 35.62529 0 64.619355-28.985806 64.619355-64.619355 0-29.861161-20.364387-55.064774-47.929807-62.430968v-40.712258h130.51871a27.846194 27.846194 0 0 1 27.821419 27.829678v438.222451zM593.515355 133.285161l86.544516 68.294194c10.380387 8.192 26.037677 8.192 36.418064 0 6.110968-4.82271 9.612387-11.858581 9.612388-19.307355V124.449032h182.800516c39.869935 0 72.315871 32.445935 72.315871 72.324129v200.282839a16.68129 16.68129 0 1 0 33.387355 0V196.789677c0-58.285419-47.426065-105.703226-105.703226-105.703225H726.082065V33.246968c0-7.457032-3.501419-14.492903-9.60413-19.315613-10.380387-8.183742-26.029419-8.183742-36.418064 0L593.523613 82.250323c-8.175484 6.457806-12.857806 15.756387-12.857807 25.517419 0 9.76929 4.682323 19.076129 12.866065 25.517419zM692.702968 46.492903v122.549678l-77.642323-61.274839 77.642323-61.274839z" fill="#4C4C4C" p-id="8886"></path></svg>