<?xml version="1.0" standalone="no"?><!DOCTYPE svg PUBLIC "-//W3C//DTD SVG 1.1//EN" "http://www.w3.org/Graphics/SVG/1.1/DTD/svg11.dtd"><svg t="1513245727291" class="icon" style="" viewBox="0 0 1024 1024" version="1.1" xmlns="http://www.w3.org/2000/svg" p-id="8744" xmlns:xlink="http://www.w3.org/1999/xlink" width="200" height="200"><defs><style type="text/css"></style></defs><path d="M854.25414 214.825674a42.785736 42.785736 0 0 1 42.785736 42.785737v111.227039a42.785736 42.785736 0 0 1-42.785736 42.785736 42.785736 42.785736 0 0 1 42.785736 42.777798v111.234977a42.785736 42.785736 0 0 1-42.785736 42.785737 42.785736 42.785736 0 0 1 42.785736 42.777798v111.234977a42.785736 42.785736 0 0 1-42.785736 42.777798 42.785736 42.785736 0 0 1 42.785736 42.785737v111.227039a42.785736 42.785736 0 0 1-42.785736 42.785736h-449.210543a42.785736 42.785736 0 0 1-42.785737-42.785736v-111.234977a42.785736 42.785736 0 0 1 42.785737-42.777799 42.785736 42.785736 0 0 1-42.785737-42.785736V651.208434a42.785736 42.785736 0 0 1 42.785737-42.785736 42.785736 42.785736 0 0 1-42.785737-42.785737V454.409922a42.785736 42.785736 0 0 1 42.785737-42.785736 42.785736 42.785736 0 0 1-42.785737-42.777798V257.603473a42.785736 42.785736 0 0 1 42.785737-42.785737 42.785736 42.785736 0 0 1-42.785737-42.777798V60.812899a42.785736 42.785736 0 0 1 42.785737-42.785736h449.210543a42.785736 42.785736 0 0 1 42.785736 42.785736v111.227039a42.785736 42.785736 0 0 1-42.785736 42.785736z" fill="#D6A154" p-id="8745"></path><path d="M897.031938 60.804961v111.234977a42.785736 42.785736 0 0 1-42.785736 42.785736H405.051535a42.785736 42.785736 0 0 1-42.785737-42.785736V60.812899c0-2.381395 0.246078-4.707225 0.627101-6.985426 5.016806 42.484093 41.11876 75.434667 84.936434 75.434667h363.647008c43.825612 0 79.935504-32.950574 84.944372-75.426729 0.373085 2.270264 0.619163 4.596093 0.619163 6.96955zM811.468403 328.759566h-363.63907c-43.825612 0-79.935504-32.950574-84.944372-75.426729a42.76986 42.76986 0 0 0-0.619163 6.977489v111.234976a42.785736 42.785736 0 0 0 42.785737 42.785737h449.202605a42.785736 42.785736 0 0 0 42.785736-42.785737V260.302388c0-2.381395-0.254016-4.699287-0.627101-6.977489-5.016806 42.468217-41.11876 75.426729-84.936434 75.426729z m0 194.123411h-363.63907c-43.825612 0-79.935504-32.950574-84.944372-75.426729a42.76986 42.76986 0 0 0-0.619163 6.977488V565.660775a42.785736 42.785736 0 0 0 42.785737 42.777799h449.202605a42.785736 42.785736 0 0 0 42.785736-42.785737V454.433736c0-2.381395-0.254016-4.707225-0.627101-6.985426-5.016806 42.484093-41.11876 75.434667-84.936434 75.434667z m0 197.330356h-363.63907c-43.825612 0-79.935504-32.950574-84.944372-75.426728a42.76986 42.76986 0 0 0-0.619163 6.977488v111.234977a42.785736 42.785736 0 0 0 42.785737 42.777798h449.202605a42.785736 42.785736 0 0 0 42.785736-42.785736V651.756155c0-2.381395-0.254016-4.707225-0.627101-6.985426-5.016806 42.484093-41.11876 75.434667-84.936434 75.434666z m0 196.234915h-363.63907c-43.825612 0-79.935504-32.950574-84.944372-75.426729a42.76986 42.76986 0 0 0-0.619163 6.977489v111.234976a42.785736 42.785736 0 0 0 42.785737 42.777799h449.202605a42.785736 42.785736 0 0 0 42.785736-42.785736v-111.227039c0-2.381395-0.254016-4.707225-0.627101-6.985427-5.016806 42.484093-41.11876 75.434667-84.936434 75.434667z" fill="#B26932" p-id="8746"></path><path d="M640.341333 745.31324c0 141.764465-114.918202 256.690605-256.682666 256.690605-141.772403 0-256.690605-114.92614-256.690605-256.690605 0-141.772403 114.918202-256.690605 256.690605-256.690604 141.756527 0 256.682667 114.92614 256.682666 256.690604z" fill="#E8BA52" p-id="8747"></path><path d="M597.563535 745.31324c0 118.141023-95.771783 213.904868-213.904868 213.904869-118.141023 0-213.912806-95.763845-213.912807-213.904869 0-118.133085 95.771783-213.904868 213.904869-213.904868 118.141023 0 213.912806 95.771783 213.912806 213.904868z" fill="#FED766" p-id="8748"></path><path d="M505.887752 745.31324c0 67.50462-54.724465 122.229085-122.229085 122.229086-67.512558 0-122.237023-54.724465-122.237024-122.229086s54.724465-122.229085 122.229086-122.229085c67.512558 0 122.237023 54.724465 122.237023 122.229085z" fill="#FFED80" p-id="8749"></path><path d="M521.930419 745.31324c0-59.900031-38.284899-111.004775-91.667845-130.175007v-40.952062a16.042667 16.042667 0 0 0-32.093272 0v33.617364a139.216372 139.216372 0 0 0-29.029209 0v-33.617364a16.042667 16.042667 0 0 0-32.085333 0v40.952062c-53.382946 19.170233-91.675783 70.274977-91.675783 130.175007 0 59.900031 38.292837 111.004775 91.675783 130.175008v40.952062a16.042667 16.042667 0 0 0 32.085333 0v-33.617364a139.216372 139.216372 0 0 0 29.029209 0v33.617364a16.042667 16.042667 0 0 0 32.093272 0v-40.952062c53.375008-19.170233 91.667845-70.274977 91.667845-130.175008z m-244.466109 0c0-41.841116 24.33786-78.101829 59.59045-95.390759v190.781519c-35.252589-17.28893-59.59045-53.549643-59.59045-95.39076z m106.186419 106.186419c-4.92155 0-9.763721-0.365147-14.510636-1.016062V640.134946a106.464248 106.464248 0 0 1 14.510636-1.016062c4.929488 0 9.763721 0.365147 14.526511 1.024v210.340713c-4.762791 0.650915-9.597023 1.016062-14.526511 1.016062z m46.603907-10.795659V649.914543c35.260527 17.296868 59.59045 53.557581 59.590449 95.398697 0 41.841116-24.33786 78.101829-59.590449 95.39076z" fill="#AD8653" p-id="8750"></path><path d="M693.28769 608.41476a16.034729 16.034729 0 0 1-16.042667 16.034728h-2.143256a16.034729 16.034729 0 1 1 0-32.077395h2.143256a16.034729 16.034729 0 0 1 16.042667 16.034729z m201.299349-393.589086a58.669643 58.669643 0 0 1 18.495504 42.785737v111.227039a58.661705 58.661705 0 0 1-18.495504 42.785736 58.669643 58.669643 0 0 1 18.495504 42.777798v111.234977a58.661705 58.661705 0 0 1-18.495504 42.785737 58.669643 58.669643 0 0 1 18.495504 42.777798v111.234977a58.661705 58.661705 0 0 1-18.495504 42.777798 58.669643 58.669643 0 0 1 18.495504 42.785737v111.227039c0 32.442543-26.393798 58.820465-58.828403 58.820465h-449.210543a54.772093 54.772093 0 0 1-6.509147-0.3969c-4.92155 0.269891-9.882791 0.396899-14.883721 0.3969-150.385116 0-272.733271-122.340217-272.733272-272.725334 0-137.692279 102.55876-251.872248 235.305675-270.17724v-20.741954c0-16.836465 7.112434-32.045643 18.487566-42.777798a58.669643 58.669643 0 0 1-18.495504-42.785736V257.611411c0-16.844403 7.120372-32.053581 18.495504-42.785737a58.669643 58.669643 0 0 1-18.495504-42.785736V60.804961c0-32.434605 26.393798-58.820465 58.828403-58.820465h449.210543c32.434605 0 58.820465 26.38586 58.820465 58.820465v111.234977a58.661705 58.661705 0 0 1-18.487566 42.785736z m-270.288372 530.487566c0-132.691349-107.956589-240.647938-240.647938-240.647938a243.839008 243.839008 0 0 0-20.63876 0.873179C239.949395 516.048372 143.018667 619.575566 143.018667 745.31324c0 132.691349 107.948651 240.647938 240.64 240.647938a245.632992 245.632992 0 0 0 15.16155-0.476279c125.658295-7.834791 225.486388-112.56062 225.486388-240.171659zM880.989271 60.812899a26.766884 26.766884 0 0 0-26.735131-26.74307h-449.210543a26.766884 26.766884 0 0 0-26.735132 26.74307v111.227039a26.766884 26.766884 0 0 0 26.735132 26.74307h385.031938a16.034729 16.034729 0 1 1 0 32.085333H405.043597a26.766884 26.766884 0 0 0-26.735132 26.735132v111.234977a26.766884 26.766884 0 0 0 26.735132 26.735131h342.254139a16.034729 16.034729 0 1 1 0 32.093272H405.043597a26.766884 26.766884 0 0 0-26.735132 26.735131v18.233551c1.778109-0.031752 3.556217-0.047628 5.342264-0.047628 150.385116 0 272.733271 122.340217 272.733271 272.733271 0 104.051101-58.56645 194.671132-144.471318 240.64h342.341458a26.766884 26.766884 0 0 0 26.735131-26.735131v-111.234977a26.766884 26.766884 0 0 0-26.735131-26.735132H726.444651a16.034729 16.034729 0 1 1 0-32.093271h127.801551a26.766884 26.766884 0 0 0 26.751007-26.735132V651.192558a26.766884 26.766884 0 0 0-26.751007-26.735132H746.948465a16.034729 16.034729 0 1 1 0-32.085333h107.313613a26.766884 26.766884 0 0 0 26.735131-26.74307V454.394047a26.766884 26.766884 0 0 0-26.735131-26.735132 16.034729 16.034729 0 1 1 0-32.085334 26.766884 26.766884 0 0 0 26.735131-26.735131V257.603473a26.766884 26.766884 0 0 0-26.735131-26.74307 16.034729 16.034729 0 1 1 0-32.085333 26.766884 26.766884 0 0 0 26.735131-26.735132V60.804961zM802.927132 395.565643h-4.286512a16.034729 16.034729 0 1 0 0 32.085334h4.286512a16.034729 16.034729 0 1 0 0-32.085334z" fill="#4C4C4C" p-id="8751"></path></svg>