<?xml version="1.0" standalone="no"?><!DOCTYPE svg PUBLIC "-//W3C//DTD SVG 1.1//EN" "http://www.w3.org/Graphics/SVG/1.1/DTD/svg11.dtd"><svg t="1513245724764" class="icon" style="" viewBox="0 0 1024 1024" version="1.1" xmlns="http://www.w3.org/2000/svg" p-id="8608" xmlns:xlink="http://www.w3.org/1999/xlink" width="200" height="200"><defs><style type="text/css"></style></defs><path d="M1002.003845 173.111566v72.195969H18.027163v-72.195969c0-47.254822 38.308713-85.563535 85.563535-85.563535h812.849612c47.254822 0 85.563535 38.308713 85.563535 85.563535z" fill="#A5A5A5" p-id="8609"></path><path d="M1002.003845 215.889364v598.944745c0 47.254822-38.308713 85.563535-85.563535 85.563534H103.590698c-47.254822 0-85.563535-38.308713-85.563535-85.563534V215.889364h128.341333V66.155163a42.785736 42.785736 0 0 1 42.785737-42.785737h171.127069a42.785736 42.785736 0 0 1 42.785737 42.785737v149.742139h598.936806z" fill="#E9F2F4" p-id="8610"></path><path d="M895.047442 526.058171v235.297736a42.785736 42.785736 0 0 1-42.785737 42.785736h-684.492403a42.785736 42.785736 0 0 1-42.785736-42.785736V526.058171a42.785736 42.785736 0 0 1 42.785736-42.785737h684.492403a42.785736 42.785736 0 0 1 42.785737 42.785737z m-727.27814-128.341334h192.512a42.785736 42.785736 0 1 0 0-85.571473H167.761364a42.785736 42.785736 0 1 0 0 85.571473z m342.246202 0h342.254139a42.785736 42.785736 0 1 0 0-85.571473H510.015504a42.785736 42.785736 0 1 0 0 85.571473z" fill="#CFDFE2" p-id="8611"></path><path d="M403.059101 66.155163v149.742139H146.376434V66.155163a42.785736 42.785736 0 0 1 42.785737-42.785737h171.127069a42.785736 42.785736 0 0 1 42.785737 42.785737z" fill="#C3E4ED" p-id="8612"></path><path d="M360.281302 98.240496v42.785737a21.392868 21.392868 0 0 1-21.392868 21.392868H210.539163a21.392868 21.392868 0 0 1-21.38493-21.392868v-42.785737a21.392868 21.392868 0 0 1 21.38493-21.38493h128.349271a21.392868 21.392868 0 0 1 21.392868 21.38493z" fill="#B2D1D8" p-id="8613"></path><path d="M780.121302 375.863566c-1.587597 2.00831-3.730853 3.135504-5.969364 3.135504h-71.624434V895.047442c0 61.924217-50.37445 112.306605-112.298667 112.306605-61.916279 0-112.298667-50.382388-112.298666-112.306605v-7.12831h32.085333v7.12831c0 44.238388 35.982884 80.221271 80.213333 80.221271s80.213333-35.990822 80.213334-80.221271V378.99907h-39.531163c-2.238512 0-4.381767-1.127194-5.969365-3.135504-3.294264-4.17538-3.294264-10.946481 0-15.121861L690.604651 277.551628c6.588527-8.358698 17.280992-8.358698 23.86952 0l65.647131 83.190077c3.302202 4.17538 3.302202 10.946481 0 15.121861z" fill="#FC8059" p-id="8614"></path><path d="M895.047442 721.245271c0 106.329302-86.190636 192.519938-192.512 192.519938-106.329302 0-192.519938-86.190636-192.519938-192.512 0-106.329302 86.190636-192.519938 192.519938-192.519938 106.321364 0 192.512 86.190636 192.512 192.512z" fill="#E8BA52" p-id="8615"></path><path d="M852.269643 721.245271c0 82.697922-67.036279 149.74214-149.742139 149.74214-82.689984 0-149.734202-67.044217-149.734202-149.74214 0-82.697922 67.044217-149.734202 149.74214-149.734201 82.697922 0 149.734202 67.044217 149.734201 149.742139z" fill="#FED766" p-id="8616"></path><path d="M750.663442 147.440124v-2.143256a16.034729 16.034729 0 1 1 32.085333 0v2.143256a16.034729 16.034729 0 1 1-32.085333 0z m80.213333 16.042667a16.034729 16.034729 0 0 0 16.042667-16.034729v-2.143256a16.034729 16.034729 0 1 0-32.085333 0v2.143256a16.034729 16.034729 0 0 0 16.042666 16.034729z m64.170667 0a16.034729 16.034729 0 0 0 16.042667-16.034729v-2.143256a16.034729 16.034729 0 1 0-32.085334 0v2.143256a16.034729 16.034729 0 0 0 16.042667 16.034729z m122.99907 4.286511v641.722543c0 56.018357-45.579907 101.606202-101.606202 101.606202h-121.97507a207.00676 207.00676 0 0 1-79.014697 20.972155 112.116093 112.116093 0 0 1-109.179039 85.97631c-60.130233 0-109.361612-47.500899-112.163721-106.956403H103.590698c-56.026295 0-101.606202-45.579907-101.606202-101.606202V167.761364c0-56.026295 45.579907-101.606202 101.606202-101.606201h26.743069v-5.342264c0-32.442543 26.38586-58.828403 58.820466-58.828403h171.127069c32.434605 0 58.820465 26.38586 58.820465 58.820465v5.350202h497.338543c56.026295 0 101.606202 45.579907 101.606202 101.606201z m-598.944745-69.528806v96.263938h566.851473v-26.74307c0-38.332527-31.180403-69.520868-69.51293-69.520868H419.101767zM162.411163 194.504434h224.605271V60.804961a26.766884 26.766884 0 0 0-26.735132-26.735132H189.154233a26.766884 26.766884 0 0 0-26.74307 26.74307v133.691535zM34.069829 167.761364v26.74307h96.256V98.240496H103.590698c-38.340465 0-69.520868 31.196279-69.520869 69.520868z m648.199938 763.737303a206.895628 206.895628 0 0 1-71.672062-20.40062H526.25662c2.762419 41.737922 37.586357 74.855194 80.014884 74.855193a80.094264 80.094264 0 0 0 75.998263-54.454573z m79.157582-565.875101l-58.899845-74.63293-58.899845 74.63293h117.79969zM526.058171 723.920372c0 97.311752 79.165519 176.477271 176.469333 176.477271 97.311752 0 176.477271-79.165519 176.477271-176.477271 0-97.303814-79.165519-176.469333-176.469333-176.469333-97.311752 0-176.477271 79.165519-176.477271 176.469333z m459.903007-497.330605H34.069829v582.89414c0 38.340465 31.188341 69.520868 69.520869 69.520868h459.648992c-42.492031-38.205519-69.266853-93.572961-69.266853-155.076465 0-109.60769 84.984062-199.735566 192.519938-207.95138V397.716837H630.911008c-7.168 0-13.939101-3.373643-18.574884-9.239814-7.858605-9.978047-7.858605-25.020527 0.007938-35.006511l65.647132-83.190078c6.207504-7.858605 15.145674-12.359442 24.528372-12.359442 9.390636 0 18.336744 4.508775 24.53631 12.36738l65.647132 83.190078c7.874481 9.970109 7.874481 25.020527 0 35.006511-4.635783 5.866171-11.398946 9.231876-18.559008 9.231876h-55.573829V515.968992c107.527938 8.215814 192.512 98.34369 192.512 207.943442 0 61.511442-26.766884 116.878884-69.258915 155.084403h74.609116c38.340465 0 69.520868-31.188341 69.520868-69.520868V226.589767zM590.228837 662.662946a51.104744 51.104744 0 0 1 51.041241-51.049179 51.104744 51.104744 0 0 1 51.049178 51.041241 51.104744 51.104744 0 0 1-51.04124 51.049178 51.104744 51.104744 0 0 1-51.041241-51.04124z m32.085334 0a18.979721 18.979721 0 0 0 18.955907 18.955907 18.979721 18.979721 0 0 0 18.963844-18.955907 18.979721 18.979721 0 0 0-18.963844-18.963845 18.979721 18.979721 0 0 0-18.955907 18.963845z m192.519938 122.506914a51.104744 51.104744 0 0 1-51.041241 51.041241 51.104744 51.104744 0 0 1-51.049178-51.041241 51.104744 51.104744 0 0 1 51.04124-51.04124 51.104744 51.104744 0 0 1 51.049179 51.04124z m-32.085334 0a18.979721 18.979721 0 0 0-18.955907-18.955907 18.979721 18.979721 0 0 0-18.963845 18.955907 18.979721 18.979721 0 0 0 18.963845 18.955907 18.979721 18.979721 0 0 0 18.955907-18.955907z m-177.128186 35.649489c3.135504 3.135504 7.24738 4.699287 11.351318 4.699287 4.103938 0 8.207876-1.563783 11.34338-4.699287l171.12707-171.12707a16.034729 16.034729 0 1 0-22.68676-22.68676l-171.12707 171.12707a16.034729 16.034729 0 0 0 0 22.68676z" fill="#4C4C4C" p-id="8617"></path></svg>