<?xml version="1.0" standalone="no"?><!DOCTYPE svg PUBLIC "-//W3C//DTD SVG 1.1//EN" "http://www.w3.org/Graphics/SVG/1.1/DTD/svg11.dtd"><svg t="1513245722373" class="icon" style="" viewBox="0 0 1024 1024" version="1.1" xmlns="http://www.w3.org/2000/svg" p-id="8469" xmlns:xlink="http://www.w3.org/1999/xlink" width="200" height="200"><defs><style type="text/css"></style></defs><path d="M950.51014 467.229767c0 248.093767-201.116775 449.210543-449.210543 449.210543-248.085829 0-449.202605-201.116775-449.202605-449.210543 0-248.085829 201.116775-449.202605 449.210543-449.202604 248.085829 0 449.202605 201.116775 449.202605 449.210542z" fill="#CFDFE2" p-id="8470"></path><path d="M680.983814 467.229767c0 248.093767-80.443535 449.210543-179.676279 449.210543-99.240682 0-179.684217-201.116775-179.684217-449.210543 0-248.085829 80.443535-449.202605 179.684217-449.202604 99.232744 0 179.684217 201.116775 179.684217 449.210542z" fill="#E9F2F4" p-id="8471"></path><path d="M112.211349 242.632434h778.192372c38.221395 66.067845 60.106419 142.780527 60.106419 224.605271 0 81.816806-21.885023 158.52155-60.106419 224.597334H112.211349C73.982016 625.767194 52.096992 549.054512 52.096992 467.237705c0-81.824744 21.885023-158.529488 60.114357-224.605271z" fill="#C1D1D3" p-id="8472"></path><path d="M345.667473 242.632434h311.272186c15.296496 66.067845 24.052093 142.780527 24.052093 224.605271 0 81.816806-8.763535 158.52155-24.052093 224.597334H345.667473c-15.288558-66.067845-24.052093-142.780527-24.052093-224.597334 0-81.824744 8.763535-158.529488 24.052093-224.605271z" fill="#CFDFE2" p-id="8473"></path><path d="M112.211349 691.835039C73.982016 625.767194 52.096992 549.054512 52.096992 467.237705h898.421086c0 81.816806-21.892961 158.52155-60.114357 224.597334H112.211349z" fill="#B5C4C6" p-id="8474"></path><path d="M680.983814 467.229767c0 81.824744-8.747659 158.537426-24.036217 224.605272H345.667473c-15.288558-66.067845-24.052093-142.780527-24.052093-224.597334H680.99969z" fill="#C1D1D3" p-id="8475"></path><path d="M289.212527 757.783814a16.010915 16.010915 0 0 1-22.543876 2.484589C177.199628 688.540775 125.896434 581.735194 125.896434 467.229767s51.303194-221.311008 140.772217-293.038635a16.042667 16.042667 0 0 1 20.067225 25.036403c-81.824744 65.599504-128.754109 163.284341-128.754109 267.994294 0 104.717891 46.929364 202.402729 128.754109 267.994295 6.913984 5.548651 8.017364 15.645767 2.484589 22.559752z" fill="#E9F2F4" p-id="8476"></path><path d="M971.903008 745.31324c0 141.764465-114.92614 256.690605-256.690605 256.690605S458.521798 887.069767 458.521798 745.31324 573.447938 488.622636 715.212403 488.622636s256.690605 114.92614 256.690605 256.690604z" fill="#E8BA52" p-id="8477"></path><path d="M929.117271 745.31324c0 118.141023-95.763845 213.904868-213.904868 213.904869-118.133085 0-213.904868-95.771783-213.904868-213.904869S597.079318 531.408372 715.212403 531.408372c118.141023 0 213.904868 95.771783 213.904868 213.904868z" fill="#FED766" p-id="8478"></path><path d="M837.449426 745.31324c0 67.50462-54.732403 122.229085-122.237023 122.229086s-122.229085-54.724465-122.229085-122.229086S647.707783 623.084155 715.212403 623.084155s122.237023 54.724465 122.237023 122.229085z" fill="#FFED80" p-id="8479"></path><path d="M853.492093 745.31324c0-59.900031-38.292837-111.004775-91.683721-130.175007v-40.952062a16.042667 16.042667 0 0 0-32.077395 0v33.617364a139.216372 139.216372 0 0 0-29.037148 0v-33.617364a16.042667 16.042667 0 0 0-32.085333 0v40.952062c-53.382946 19.170233-91.675783 70.274977-91.675783 130.175007 0 59.900031 38.292837 111.004775 91.683721 130.175008v40.952062a16.042667 16.042667 0 0 0 32.077395 0v-33.617364a139.216372 139.216372 0 0 0 29.037148 0v33.617364a16.042667 16.042667 0 0 0 32.085333 0v-40.952062c53.382946-19.170233 91.667845-70.274977 91.667845-130.175008z m-244.466109 0c0-41.841116 24.329922-78.101829 59.582512-95.390759v190.781519c-35.252589-17.28893-59.59045-53.549643-59.590449-95.39076zM715.212403 851.499659c-4.92155 0-9.763721-0.365147-14.518574-1.016062V640.134946a106.464248 106.464248 0 0 1 14.518574-1.016062c4.92155 0 9.763721 0.365147 14.518574 1.024v210.340713c-4.754853 0.650915-9.597023 1.016062-14.518574 1.016062z m46.595969-10.795659V649.914543c35.260527 17.296868 59.598388 53.557581 59.598388 95.398697 0 41.841116-24.33786 78.101829-59.59045 95.39076z" fill="#AD8653" p-id="8480"></path><path d="M946.842791 601.461085c0.15876-0.428651 0.309581-0.857302 0.444527-1.301829a465.586605 465.586605 0 0 0 19.265488-132.921551c0-124.277085-48.389953-241.108341-136.263442-328.981829C742.415876 50.382388 625.576682 1.984496 501.307535 1.984496c-124.277085 0-241.108341 48.389953-328.98183 136.263442C84.452217 226.121426 36.054326 342.968558 36.054326 467.237705c0 124.269147 48.397891 241.100403 136.271379 328.98183 87.873488 87.873488 204.704744 136.263442 328.98183 136.263442 5.151752 0 10.327318-0.07938 15.471132-0.254016 49.771163 52.803473 120.323969 85.81755 198.433736 85.817551 150.385116 0 272.733271-122.348155 272.733271-272.733272a271.12186 271.12186 0 0 0-41.102883-143.860093z m-12.669024-150.266046H696.923287c-0.94462-67.917395-7.810977-133.326388-20.003721-192.519938h203.958574a430.167318 430.167318 0 0 1 53.295627 192.512z m0 32.077395a433.945798 433.945798 0 0 1-11.573581 85.095194c-34.196837-40.01538-79.776744-70.076527-131.651473-85.095194h143.225054z m-72.862759-256.682667H669.648372c-7.398202-29.719814-16.22524-57.550388-26.38586-82.951938-17.495318-43.746233-38.181705-78.085953-61.027225-101.987224 115.918388 21.996155 215.643287 90.334264 279.083659 184.939162zM337.777116 451.187101c0.968434-71.664124 8.453953-136.477767 20.456186-192.512h286.148465c11.994295 56.026295 19.479814 120.847876 20.448249 192.512H337.785054z m301.706915 32.093271c-91.667845 26.528744-163.609798 99.978915-188.027039 192.512H358.233302c-12.002233-56.026295-19.479814-120.847876-20.456186-192.512H639.484031zM501.307535 34.061891c50.850729 0 104.019349 72.084837 135.469643 192.519938H365.837891c31.442357-120.435101 84.618915-192.519938 135.469644-192.519938z m-80.927752 7.580776c-22.845519 23.901271-43.523969 58.240992-61.027225 101.987224-10.16062 25.40155-18.979721 53.232124-26.377922 82.951938H141.296124C204.736496 131.97693 304.461395 63.64676 420.379783 41.650605z m-298.642853 217.024496h203.950636c-12.192744 59.19355-19.059101 124.594605-20.003721 192.512H68.441302a430.143504 430.143504 0 0 1 53.303566-192.512zM68.425426 483.264496H305.691783c0.936682 67.917395 7.803039 133.326388 20.003721 192.519938H121.728992A430.135566 430.135566 0 0 1 68.425426 483.280372zM141.296124 707.885643h191.670574c7.40614 29.719814 16.22524 57.550388 26.38586 82.951938 17.503256 43.746233 38.181705 78.085953 61.027225 101.987225-115.918388-21.996155-215.643287-90.334264-279.083659-184.939163z m224.541767 0h79.197272a274.416124 274.416124 0 0 0-2.556031 37.435535c0 57.074109 17.622326 110.107783 47.707287 153.949272-47.350078-9.597023-95.19231-79.697364-124.348528-191.384807zM715.212403 985.961178c-132.691349 0-240.647938-107.956589-240.647938-240.647938s107.956589-240.647938 240.647938-240.647938 240.647938 107.956589 240.647938 240.647938-107.956589 240.647938-240.647938 240.647938z" fill="#4C4C4C" p-id="8481"></path></svg>