<?xml version="1.0" encoding="utf-8"?>
<svg version="1.1" id="onface" xmlns="http://www.w3.org/2000/svg" xmlns:xlink="http://www.w3.org/1999/xlink" x="0px" y="0px"
	 viewBox="0 0 200 200" style="enable-background:new 0 0 200 200;" xml:space="preserve">
<style type="text/css">
	.st0{fill:url(#SVGID_1_);stroke-miterlimit:10;}
	.st1{fill:url(#SVGID_2_);}
</style>
<linearGradient id="SVGID_1_" gradientUnits="userSpaceOnUse" x1="97.05" y1="82" x2="97.05" y2="120">
	<stop  offset="0" style="stop-color:#2a91f1"/>
	<stop  offset="1" style="stop-color:#2c8aee"/>
</linearGradient>
<path class="st0" d="M88.5,97.4c0,11.5,5.3,19.9,8.6,19.9c3.3,0,8.5-8.4,8.5-19.9c0-11-4.4-18.2-8.5-18.2
	C92.9,79.3,88.5,86.4,88.5,97.4z"/>
<linearGradient id="SVGID_2_" gradientUnits="userSpaceOnUse" x1="98.25" y1="189" x2="98.25" y2="16.3472" gradientTransform="matrix(1 0 0 -1 0 202)">
	<stop  offset="0" style="stop-color:#249DF5"/>
	<stop  offset="1" style="stop-color:#317CE9"/>
</linearGradient>
<path class="st1" d="M150.4,10.9H46.1c-20,0-36.3,16.2-36.3,36.3v104.3c0,20,16.2,36.3,36.3,36.3h104.3c20,0,36.3-16.3,36.3-36.3
	V47.2C186.7,27.1,170.4,10.9,150.4,10.9L150.4,10.9z M47.6,101.6c-2.5,0.2-4.7-1.6-4.9-4.1v-0.1c-0.1-1.5-0.2-2.9-0.2-4.4
	C42.4,79.8,45.8,36,89,30.3c3-0.4,5.8-0.5,8.6-0.5c43.9,0.3,53.7,43.6,53.7,43.9l0,0c0.6,2.5-1,4.9-3.5,5.5s-4.9-1-5.5-3.4l0,0l0,0
	c-0.1,0-8.5-37.1-44.8-36.8c-2.4,0-4.8,0.1-7.5,0.5c-35.3,4-38.3,40.8-38.4,53.6c0,2.4,0.1,3.7,0.1,3.7
	C52,99.2,50.2,101.4,47.6,101.6L47.6,101.6z M81.2,168.5c-2.4,0.9-5-0.3-5.9-2.6l0,0c-0.1-0.2-13.6-35.4-13.6-67.2
	c-0.4-22.5,7.9-45.9,34.9-48.5c2.5-0.1,4.7,1.9,4.8,4.4c0.1,2.3-1.6,4.3-3.8,4.7C76.9,61.5,71.4,77.2,71,98.7
	c-0.1,29.2,13,63.9,13.1,63.9C84.8,164.9,83.6,167.6,81.2,168.5L81.2,168.5L81.2,168.5z M114.7,97.4c-0.3,12.7-4,28-17.7,29.1
	c-13.8-1.1-17.4-16.4-17.7-29.1c0.1-12,4-26.6,17.7-27.3C110.8,70.9,114.7,85.4,114.7,97.4z M89.2,143.9L89.2,143.9
	c-2.5-0.2-4.4-2.4-4.2-4.9l0,0c0.2-2.5,2.4-4.4,4.9-4.2l0,0l0,0c0,0,0.6,0.1,1.8,0.1c6.2,0,23.9-1.6,31-17.3c2.6-5.6,4-11.8,4-18
	C127,78.9,111.4,63,111.3,63c-1.8-1.8-1.8-4.7,0-6.5s4.7-1.8,6.5,0c0.3,0.4,18.1,17.8,18.3,43c0,7.5-1.7,15-4.9,21.8
	C121.2,142.4,99,144,91.8,144C90.3,144,89.3,143.9,89.2,143.9L89.2,143.9z M145.9,139c-13.5,24.1-44.6,24.6-48.4,24.8h-0.4H97
	c-2.5,0.1-4.6-1.9-4.8-4.4c-0.1-2.5,1.9-4.6,4.4-4.8l0,0H97c0.4,0.2,31-0.7,40.8-20c6-11,7.1-28.2,7.1-36.8c0-3.5-0.1-5.5-0.1-5.5
	c-0.2-2.5,1.7-4.7,4.2-4.9l0,0c2.5-0.2,4.7,1.7,4.9,4.3c0,0.1,0.1,2.4,0.1,6.1C154,107.2,153.2,125.2,145.9,139L145.9,139z"/>
</svg>
