<?xml version="1.0" standalone="no"?><!DOCTYPE svg PUBLIC "-//W3C//DTD SVG 1.1//EN" "http://www.w3.org/Graphics/SVG/1.1/DTD/svg11.dtd"><svg t="1513245713360" class="icon" style="" viewBox="0 0 1024 1024" version="1.1" xmlns="http://www.w3.org/2000/svg" p-id="8072" xmlns:xlink="http://www.w3.org/1999/xlink" width="200" height="200"><defs><style type="text/css"></style></defs><path d="M554.785736 617.884775v88.611721a42.785736 42.785736 0 0 1 42.777799 42.785737v213.904868a42.785736 42.785736 0 0 1-42.785737 42.785736H469.214264a42.785736 42.785736 0 0 1-42.777799-42.785736V749.282233a42.785736 42.785736 0 0 1 42.785737-42.785737V617.892713C324.092031 597.119008 212.523659 472.333891 212.523659 321.464558c0-165.387907 134.072558-299.468403 299.468403-299.468403s299.468403 134.072558 299.468403 299.468403c0 150.869333-111.560434 275.65445-256.690605 296.420217z" fill="#84A7B7" p-id="8073"></path><path d="M554.785736 706.496496H469.214264V617.892713a301.738667 301.738667 0 0 0 85.571472 0v88.611721z" fill="#256277" p-id="8074"></path><path d="M678.380155 487.852651c-91.890109 91.890109-240.870202 91.890109-332.76031 0s-91.890109-240.87814 0-332.768248 240.870202-91.890109 332.76031 0 91.890109 240.87814 0 332.76031z" fill="#C3E4ED" p-id="8075"></path><path d="M662.56769 140.653147c5.429581 4.532589 10.716279 9.33507 15.812465 14.431256a234.29755 234.29755 0 0 1 57.478946 93.771411L439.391256 545.339535a234.321364 234.321364 0 0 1-93.779349-57.486884 239.052403 239.052403 0 0 1-14.431256-15.820403L662.559752 140.661085z m-374.434729 253.420155a233.900651 233.900651 0 0 0 18.376434 42.134822L626.743566 115.973953a233.900651 233.900651 0 0 0-42.134822-18.368496L288.132961 394.073302z" fill="#DCF3F9" p-id="8076"></path><path d="M699.169736 321.464558a16.042667 16.042667 0 0 1-32.085333 0c0-85.515907-69.568496-155.084403-155.084403-155.084403a16.042667 16.042667 0 0 1 0-32.077395c103.201736 0 187.169736 83.960062 187.169736 187.161798z m-37.435534 67.385551a16.042667 16.042667 0 0 0-16.034729 16.034728v2.143256a16.042667 16.042667 0 0 0 32.077395 0v-2.143256a16.042667 16.042667 0 0 0-16.034728-16.034728z" fill="#FFFFFF" p-id="8077"></path><path d="M827.51107 321.464558C827.51107 147.49569 685.976806 5.953488 512 5.953488S196.48893 147.487752 196.48893 321.464558c0 153.877829 110.734884 282.377922 256.690605 310.017985v61.20186c-24.671256 7.001302-42.785736 29.719814-42.785737 56.59783v213.904868c0 32.442543 26.38586 58.820465 58.820466 58.820465h85.571472c32.434605 0 58.820465-26.377922 58.820466-58.820465V749.282233c0-26.878016-18.114481-49.596527-42.785737-56.59783v-61.20186c145.963659-27.640062 256.690605-156.140155 256.690605-310.017985zM581.520868 749.282233v213.904868a26.766884 26.766884 0 0 1-26.74307 26.74307H469.214264a26.766884 26.766884 0 0 1-26.735132-26.74307V749.282233a26.766884 26.766884 0 0 1 26.74307-26.735132H554.785736a26.766884 26.766884 0 0 1 26.735132 26.735132z m-96.263938-58.820466v-54.605395c17.630264 1.492341 35.847938 1.492341 53.478202 0v54.605395h-53.470264z m67.74276-88.524403a284.55293 284.55293 0 0 1-40.99969 2.960869 284.537054 284.537054 0 0 1-40.99969-2.960869c-136.930233-19.924341-242.426047-138.105054-242.426046-280.464868C228.574264 165.189457 355.716961 38.030884 512 38.030884S795.425736 165.189457 795.425736 321.472496c0 142.359814-105.495814 260.540527-242.426046 280.464868zM512 70.124155c-138.597209 0-251.340403 112.751132-251.340403 251.348341C260.659597 460.061767 373.402791 572.804961 512 572.804961c138.597209 0 251.340403-112.75907 251.340403-251.348341 0-138.589271-112.751132-251.340403-251.340403-251.340403z m0 470.595473c-120.895504 0-219.25507-98.351628-219.25507-219.247132S391.096558 102.209488 512 102.209488c120.895504 0 219.25507 98.359566 219.25507 219.25507 0 120.895504-98.351628 219.25507-219.25507 219.25507z" fill="#4C4C4C" p-id="8078"></path></svg>