<?xml version="1.0" standalone="no"?><!DOCTYPE svg PUBLIC "-//W3C//DTD SVG 1.1//EN" "http://www.w3.org/Graphics/SVG/1.1/DTD/svg11.dtd"><svg t="1513245694014" class="icon" style="" viewBox="0 0 1032 1024" version="1.1" xmlns="http://www.w3.org/2000/svg" p-id="7276" xmlns:xlink="http://www.w3.org/1999/xlink" width="201.5625" height="200"><defs><style type="text/css"></style></defs><path d="M1009.832 167.072v64.672H18.168v-64.672c0-47.624 38.608-86.232 86.232-86.232h819.2c47.624 0 86.232 38.608 86.232 86.24z" fill="#A5A5A5" p-id="7277"></path><path d="M1009.832 210.192v603.624c0 47.624-38.608 86.224-86.232 86.224H104.4c-47.624 0-86.232-38.6-86.232-86.224V210.184h129.344V59.28a43.12 43.12 0 0 1 43.12-43.112h172.464a43.12 43.12 0 0 1 43.12 43.12v150.904h603.616z" fill="#FFE6AE" p-id="7278"></path><path d="M406.208 59.28v150.912H147.52V59.28a43.12 43.12 0 0 1 43.12-43.112h172.464a43.12 43.12 0 0 1 43.12 43.12z" fill="#FCC159" p-id="7279"></path><path d="M363.096 91.624v43.12a21.56 21.56 0 0 1-21.56 21.552H212.184a21.56 21.56 0 0 1-21.552-21.56v-43.12a21.56 21.56 0 0 1 21.552-21.552h129.352a21.552 21.552 0 0 1 21.56 21.56z" fill="#FFA522" p-id="7280"></path><path d="M902.04 522.776V759.92a43.12 43.12 0 0 1-43.12 43.12h-689.84a43.12 43.12 0 0 1-43.12-43.12V522.776a43.12 43.12 0 0 1 43.12-43.12h689.84a43.12 43.12 0 0 1 43.12 43.12zM169.08 393.44h194.016a43.12 43.12 0 1 0 0-86.232H169.072a43.12 43.12 0 1 0 0 86.232z m344.92 0h344.928a43.12 43.12 0 1 0 0-86.232H514a43.12 43.12 0 1 0 0 86.232z" fill="#FFD880" p-id="7281"></path><path d="M902.04 524.936V921.6c0 47.624-38.608 86.232-86.232 86.232H550.48c-47.624 0-86.232-38.608-86.232-86.232V524.936c0-47.624 38.608-86.24 86.24-86.24h265.32c47.624 0.008 86.24 38.616 86.24 86.24z" fill="#D0F7D6" p-id="7282"></path><path d="M661.248 438.704l-197 422.472v-336.24c0-47.624 38.616-86.24 86.24-86.24h110.76v0.008z m229.248 43.152l-196.848 422.136H548.736l216.968-465.288h-56.144l-224.56 481.568H464.24v1.328c0 47.624 38.608 86.24 86.24 86.24h265.32c47.624 0 86.24-38.616 86.24-86.24V524.936c0-15.704-4.224-30.4-11.552-43.08z" fill="#A3CCAA" p-id="7283"></path><path d="M902.04 891.088v30.512c0 47.624-38.608 86.232-86.232 86.232H550.48c-47.624 0-86.232-38.608-86.232-86.232v-30.512h437.792z" fill="#777777" p-id="7284"></path><path d="M637.792 949.464a16.16 16.16 0 0 1 16.168-16.176h58.368a16.16 16.16 0 1 1 0 32.344h-58.368a16.168 16.168 0 0 1-16.168-16.168z m388.208-782.392v646.736c0 56.464-45.936 102.4-102.4 102.4h-5.392v5.392c0 56.464-45.936 102.4-102.4 102.4H550.48c-56.464 0-102.4-45.936-102.4-102.4v-5.392H104.4c-56.464 0-102.4-45.936-102.4-102.4V167.072c0-56.464 45.936-102.4 102.4-102.4h26.952v-5.384c0-32.696 26.592-59.288 59.28-59.288h172.464c32.688 0 59.28 26.6 59.28 59.28v5.392h501.224c56.464 0 102.4 45.936 102.4 102.4zM163.68 194.024h226.36V59.28a26.976 26.976 0 0 0-26.944-26.944H190.632a26.976 26.976 0 0 0-26.952 26.952v134.736z m-129.344 0h97.008V97.008H104.4c-38.632 0-70.064 31.432-70.064 70.064v26.952z m851.536 713.232H480.424v14.344c0 38.64 31.424 70.064 70.064 70.064h265.32c38.64 0 70.064-31.432 70.064-70.064v-14.344z m0-382.32c0-38.64-31.432-70.064-70.064-70.064H550.48c-38.632 0-70.064 31.424-70.064 70.064v349.984h405.456V524.936z m107.792-298.576H34.336v587.448c0 38.64 31.432 70.064 70.064 70.064h343.68V524.936c0-56.464 45.936-102.4 102.4-102.4h265.328c56.464 0 102.4 45.936 102.4 102.4v358.936h5.392c38.632 0 70.064-31.432 70.064-70.064V226.36z m0-59.28c0-38.64-31.432-70.072-70.064-70.072H422.376v97.016h571.28v-26.952h0.008z m-91.624-38.808a16.16 16.16 0 0 0-16.16 16.16v2.16a16.16 16.16 0 1 0 32.328 0v-2.16a16.16 16.16 0 0 0-16.16-16.16z m-64.672 0a16.16 16.16 0 0 0-16.168 16.16v2.16a16.16 16.16 0 1 0 32.336 0v-2.16a16.16 16.16 0 0 0-16.168-16.16z m-64.672 0a16.16 16.16 0 0 0-16.168 16.16v2.16a16.16 16.16 0 1 0 32.336 0v-2.16a16.16 16.16 0 0 0-16.168-16.16z" fill="#4C4C4C" p-id="7285"></path></svg>