<?xml version="1.0" standalone="no"?><!DOCTYPE svg PUBLIC "-//W3C//DTD SVG 1.1//EN" "http://www.w3.org/Graphics/SVG/1.1/DTD/svg11.dtd"><svg t="1513245678145" class="icon" style="" viewBox="0 0 1024 1024" version="1.1" xmlns="http://www.w3.org/2000/svg" p-id="6594" xmlns:xlink="http://www.w3.org/1999/xlink" width="200" height="200"><defs><style type="text/css"></style></defs><path d="M1007.832 512c0 273.84-221.992 495.832-495.832 495.832C238.16 1007.832 16.168 785.84 16.168 512 16.168 238.16 238.16 16.168 512 16.168c273.84 0 495.832 221.992 495.832 495.832z" fill="#E9F2F4" p-id="6595"></path><path d="M964.72 512c0 250.032-202.696 452.72-452.72 452.72-250.032 0-452.72-202.696-452.72-452.72C59.28 261.968 261.968 59.28 512 59.28c250.032 0 452.72 202.688 452.72 452.72z" fill="#CFDFE2" p-id="6596"></path><path d="M921.6 512a61.44 61.44 0 0 1-61.44 61.44h-26.256a325.84 325.84 0 0 1-50.848 122.72l18.576 18.584a61.44 61.44 0 0 1-86.888 86.888l-18.576-18.576a325.84 325.84 0 0 1-122.72 50.848v26.256a61.44 61.44 0 0 1-122.888 0v-26.256a325.84 325.84 0 0 1-122.72-50.848l-18.576 18.576a61.44 61.44 0 1 1-86.888-86.888l18.568-18.576a325.84 325.84 0 0 1-50.848-122.728H163.84a61.44 61.44 0 0 1 0-122.88h26.256a325.84 325.84 0 0 1 50.848-122.72l-18.576-18.576a61.44 61.44 0 1 1 86.888-86.888l18.576 18.568a325.856 325.856 0 0 1 122.728-50.848V163.84a61.44 61.44 0 0 1 122.88 0v26.256a325.84 325.84 0 0 1 122.72 50.848l18.584-18.576a61.44 61.44 0 0 1 86.888 86.888l-18.576 18.576a325.84 325.84 0 0 1 50.848 122.72h26.256A61.44 61.44 0 0 1 921.6 512z" fill="#A5A5A5" p-id="6597"></path><path d="M770.696 512c0 142.872-115.824 258.696-258.696 258.696S253.304 654.872 253.304 512 369.128 253.304 512 253.304 770.696 369.128 770.696 512z" fill="#777777" p-id="6598"></path><path d="M995.2 873.256l-186.144-186.624a43.12 43.12 0 0 0-60.976 0l-48.64-48.64c59.576-88.056 50.4-208.752-27.576-286.72-88.4-88.4-231.72-88.4-320.12 0-88.4 88.392-88.4 231.712 0 320.112 77.968 77.968 198.672 87.152 286.72 27.576l48.64 48.64a43.12 43.12 0 0 0 0 60.984l186.152 186.616a43.12 43.12 0 0 0 60.968 0l60.976-60.976a43.112 43.112 0 0 0 0-60.968z" fill="#84A7B7" p-id="6599"></path><path d="M699.44 637.984l48.64 48.64-60.968 60.984-48.64-48.648a227.568 227.568 0 0 0 60.968-60.976z" fill="#256277" p-id="6600"></path><path d="M662.712 511.328c0 83.344-67.56 150.904-150.904 150.904s-150.912-67.56-150.912-150.904 67.568-150.904 150.912-150.904c83.344 0 150.904 67.56 150.904 150.904z" fill="#C3E4ED" p-id="6601"></path><path d="M653.96 460.64L461.112 653.472a151.224 151.224 0 0 1-70.16-51.784l211.224-211.232a151.248 151.248 0 0 1 51.784 70.176zM562.496 369.176L369.656 562.016c2.52 7.088 5.552 13.92 9.064 20.472l204.24-204.24a150.04 150.04 0 0 0-20.464-9.072z" fill="#DCF3F9" p-id="6602"></path><path d="M512.48 398.48a43.12 43.12 0 1 1 0 86.24 43.12 43.12 0 0 1 0-86.24z" fill="#FFFFFF" p-id="6603"></path><path d="M905.432 512a45.328 45.328 0 0 0-45.272-45.272h-26.256a16.16 16.16 0 0 1-15.888-13.16 308.08 308.08 0 0 0-48.32-116.632 16.168 16.168 0 0 1 1.92-20.528l18.584-18.584a45.32 45.32 0 0 0 0-64.016 45.32 45.32 0 0 0-64.024 0l-18.576 18.576a16.176 16.176 0 0 1-20.528 1.928 308.072 308.072 0 0 0-116.64-48.328 16.16 16.16 0 0 1-13.16-15.888V163.84A45.328 45.328 0 0 0 512 118.568a45.32 45.32 0 0 0-45.272 45.272v26.256a16.16 16.16 0 0 1-13.152 15.888 308.064 308.064 0 0 0-116.64 48.328 16.16 16.16 0 0 1-20.528-1.936l-18.576-18.576a45.32 45.32 0 0 0-64.024 0 45.32 45.32 0 0 0 0 64.024l18.576 18.576a16.16 16.16 0 0 1 1.936 20.536 308.128 308.128 0 0 0-48.328 116.64 16.168 16.168 0 0 1-15.888 13.152H163.84A45.32 45.32 0 0 0 118.568 512a45.32 45.32 0 0 0 45.272 45.272h26.256c7.768 0 14.44 5.52 15.888 13.152a308.168 308.168 0 0 0 48.32 116.64 16.16 16.16 0 0 1-1.92 20.528l-18.584 18.576a45.32 45.32 0 0 0 0 64.024 45.32 45.32 0 0 0 64.024 0l18.576-18.576a16.16 16.16 0 0 1 20.536-1.928 308.112 308.112 0 0 0 116.64 48.32 16.16 16.16 0 0 1 13.144 15.888v26.264a45.32 45.32 0 0 0 45.28 45.272 45.328 45.328 0 0 0 45.272-45.28v-26.256c0-7.76 5.52-14.432 13.152-15.88a310.264 310.264 0 0 0 44.048-11.768 16.16 16.16 0 1 1 10.632 30.536c-11.6 4.04-23.496 7.464-35.496 10.24v13.136c0 42.8-34.816 77.608-77.608 77.608-42.8 0-77.608-34.816-77.608-77.608v-13.128a339.6 339.6 0 0 1-104.4-43.264l-9.304 9.296c-30.256 30.256-79.496 30.256-109.76 0-30.256-30.256-30.256-79.488 0-109.76l9.304-9.288a339.6 339.6 0 0 1-43.264-104.4H163.84c-42.8 0-77.608-34.816-77.608-77.616 0-42.792 34.816-77.6 77.608-77.6h13.128a339.6 339.6 0 0 1 43.264-104.408l-9.296-9.304c-30.264-30.256-30.264-79.488 0-109.752 30.256-30.256 79.496-30.256 109.76 0l9.288 9.296A339.568 339.568 0 0 1 434.4 176.976V163.84c0-42.8 34.816-77.608 77.608-77.608 42.8 0 77.608 34.816 77.608 77.608v13.128a339.616 339.616 0 0 1 104.4 43.264l9.296-9.296c30.264-30.264 79.496-30.264 109.76 0 30.256 30.256 30.256 79.488 0 109.76l-9.296 9.288a339.568 339.568 0 0 1 43.256 104.4h13.128c42.8 0 77.608 34.816 77.608 77.616 0 42.792-34.808 77.6-77.6 77.6h-13.144a342.28 342.28 0 0 1-10.24 35.504 16.168 16.168 0 0 1-30.536-10.64 309.992 309.992 0 0 0 11.768-44.04 16.168 16.168 0 0 1 15.888-13.152h26.256A45.32 45.32 0 0 0 905.44 512z m-387.224 479.624h-0.2c-2 0.024-4 0.04-6.008 0.04C247.512 991.664 32.336 776.48 32.336 512S247.512 32.336 512 32.336 991.664 247.512 991.664 512c0 73.088-16.008 143.248-47.576 208.536a16.16 16.16 0 1 0 29.112 14.08C1006.904 664.904 1024 590 1024 512c0-136.76-53.256-265.336-149.968-362.04C777.336 53.256 648.752 0 512 0 375.24 0 246.664 53.256 149.96 149.96 53.256 246.672 0 375.248 0 512c0 136.76 53.256 265.336 149.96 362.04C246.664 970.744 375.24 1024 512 1024c2.136 0 4.272-0.008 6.4-0.04a16.16 16.16 0 0 0-0.192-32.336z m56.032-3.96l-1.344 0.176a16.176 16.176 0 0 0 4.008 32.08l1.488-0.192a16.16 16.16 0 1 0-4.16-32.064z m432.416-125.832a58.888 58.888 0 0 1 17.344 41.904c0 15.84-6.16 30.72-17.36 41.92l-60.976 60.976a59.112 59.112 0 0 1-41.92 17.336 59.112 59.112 0 0 1-41.92-17.336l-186.16-186.64c-19.144-19.144-22.424-48.24-9.84-70.808l-29.576-29.584c-37.224 22.328-79.92 34.248-124.44 34.248-64.784 0-125.688-25.232-171.496-71.04-94.56-94.56-94.56-248.416 0-342.984 94.56-94.56 248.424-94.56 342.984 0 80.104 80.104 92.344 202.768 36.736 295.88l29.616 29.624a58.96 58.96 0 0 1 28.92-7.504 58.904 58.904 0 0 1 41.936 17.376l186.152 186.632zM660.432 659.952a210.56 210.56 0 0 0 25.504-30.864c0.056-0.096 0.128-0.184 0.192-0.28 55.104-81.704 46.536-193.872-25.696-266.104-40.976-40.984-94.8-61.472-148.632-61.472-53.816 0-107.648 20.488-148.624 61.472-81.952 81.952-81.952 215.296 0 297.248 39.704 39.704 92.48 61.568 148.624 61.568 42.176 0 82.448-12.336 116.712-35.296 0.584-0.464 1.2-0.88 1.832-1.248a212.336 212.336 0 0 0 30.088-25.024z m26.672 64.792l38.112-38.112-23.92-23.92a246.752 246.752 0 0 1-38.096 38.12l23.904 23.912z m304.56 179c0-7.2-2.8-13.968-7.888-19.056l-186.16-186.64a26.768 26.768 0 0 0-19.04-7.88c-7.2 0-13.968 2.8-19.056 7.896l-60.976 60.976a26.984 26.984 0 0 0 0 38.112l186.16 186.64a26.96 26.96 0 0 0 38.096-0.024l60.976-60.976a26.768 26.768 0 0 0 7.888-19.048z m-361.72-510.56c65.144 65.144 65.144 171.144 0 236.28-32.568 32.568-75.36 48.856-118.136 48.856-42.784 0-85.568-16.288-118.144-48.856-65.136-65.144-65.136-171.136 0-236.28 65.144-65.136 171.136-65.136 236.28 0z m-22.864 22.872c-52.528-52.536-138.016-52.536-190.552 0-52.528 52.528-52.528 138.016 0 190.544a134.36 134.36 0 0 0 95.28 39.4c34.504 0 69-13.128 95.272-39.4 52.536-52.536 52.536-138.016 0-190.544z m31.072 558.848l-1.712 0.464a16.168 16.168 0 0 0 8.4 31.232l1.808-0.496a16.168 16.168 0 0 0-8.496-31.2z m80.848-30.08a16.168 16.168 0 0 0 13.992 29.152l1.608-0.776-14.064-29.12-1.536 0.744z" fill="#4C4C4C" p-id="6604"></path></svg>