<?xml version="1.0" standalone="no"?><!DOCTYPE svg PUBLIC "-//W3C//DTD SVG 1.1//EN" "http://www.w3.org/Graphics/SVG/1.1/DTD/svg11.dtd"><svg t="1513245687992" class="icon" style="" viewBox="0 0 1138 1024" version="1.1" xmlns="http://www.w3.org/2000/svg" p-id="7003" xmlns:xlink="http://www.w3.org/1999/xlink" width="222.265625" height="200"><defs><style type="text/css"></style></defs><path d="M1116.504276 452.528552c0 183.931586-149.097931 333.038345-333.029517 333.038345S450.436414 636.460138 450.436414 452.528552c0-183.922759 149.106759-333.029517 333.029517-333.029518 183.931586 0 333.038345 149.097931 333.038345 333.029518z" fill="#E9F2F4" p-id="7004"></path><path d="M973.771034 452.528552c0 105.110069-85.195034 190.305103-190.305103 190.305103-105.101241 0-190.296276-85.195034-190.296276-190.305103 0-105.101241 85.195034-190.305103 190.305104-190.305104 105.101241 0 190.305103 85.203862 190.305103 190.305104z" fill="#CFDFE2" p-id="7005"></path><path d="M426.646069 999.653517h-127.911724a47.571862 47.571862 0 0 1-46.55669-37.782069l-87.198896-414.190345h309.248v404.391725a47.58069 47.58069 0 0 1-47.58069 47.580689z" fill="#BF5243" p-id="7006"></path><path d="M426.646069 999.653517h-8.968828a47.571862 47.571862 0 0 1-46.556689-37.782069l-87.198897-414.190345h190.305104v404.391725a47.58069 47.58069 0 0 1-47.58069 47.580689z" fill="#AD3A2D" p-id="7007"></path><path d="M331.502345 595.252966H164.987586c-78.830345 0-142.733241-63.894069-142.733241-142.724414S86.157241 309.79531 164.978759 309.79531h166.523586v285.457656z" fill="#FC8059" p-id="7008"></path><path d="M331.502345 476.318897H176.878345a83.252966 83.252966 0 1 1 0-166.514759h154.624v166.514759z" fill="#FF997D" p-id="7009"></path><path d="M712.103724 130.356966v644.343172h-23.781517L349.572414 664.240552A95.161379 95.161379 0 0 1 283.921655 573.793103V331.281655c0-41.189517 26.500414-77.700414 65.659586-90.465103l338.740966-110.459586h23.781517z" fill="#FED766" p-id="7010"></path><path d="M712.103724 130.356966v454.038068h-23.781517l-238.697931-77.832827a67.045517 67.045517 0 0 1-46.265379-63.744V271.942621a67.045517 67.045517 0 0 1 46.256551-63.744l238.697931-77.841655h23.790345z" fill="#FFDE8A" p-id="7011"></path><path d="M688.322207 809.348414V95.70869a71.362207 71.362207 0 0 1 71.362207-71.362207 71.362207 71.362207 0 0 1 71.362207 71.362207v713.639724a71.362207 71.362207 0 0 1-71.362207 71.362207 71.362207 71.362207 0 0 1-71.362207-71.362207z" fill="#FC8059" p-id="7012"></path><path d="M759.684414 880.719448a71.362207 71.362207 0 0 1-71.362207-71.371034V95.70869a71.362207 71.362207 0 0 1 71.362207-71.362207v856.364138z" fill="#BF5243" p-id="7013"></path><path d="M1134.344828 452.528552c0 72.448-21.892414 141.982897-63.329104 201.110069-40.492138 57.776552-96.591448 101.579034-162.224552 126.693517a17.831724 17.831724 0 0 1-23.04-10.284138 17.840552 17.840552 0 0 1 10.284138-23.04c121.202759-46.353655 202.628414-164.696276 202.628414-294.479448 0-129.774345-81.425655-248.116966-202.628414-294.470621a17.840552 17.840552 0 0 1 12.747035-33.332965c65.650759 25.114483 121.741241 68.916966 162.224552 126.702344 41.43669 59.118345 63.337931 128.662069 63.337931 201.101242zM848.887172 95.70869v713.639724c0 49.18731-40.015448 89.202759-89.202758 89.202758s-89.202759-40.015448-89.202759-89.202758v-21.698207l-164.634483-53.689379v218.112c0 36.069517-29.351724 65.412414-65.421241 65.412413h-127.911724c-30.75531 0-57.679448-21.839448-64.017655-51.932689l-74.20469-352.450207H164.987586C76.446897 613.102345 4.413793 541.069241 4.413793 452.528552c0-88.54069 72.033103-160.573793 160.573793-160.573793h108.102621a112.745931 112.745931 0 0 1 70.956138-68.104828L670.481655 117.406897v-21.698207C670.481655 46.521379 710.479448 6.505931 759.684414 6.505931c49.18731 0 89.202759 40.015448 89.202758 89.202759zM189.14869 577.421241h76.985379a110.848 110.848 0 0 1-0.052966-3.636965V331.281655c0-1.218207 0.017655-2.436414 0.052966-3.636965H164.987586c-68.855172 0-124.883862 56.019862-124.883862 124.883862 0 68.855172 56.02869 124.883862 124.883862 124.883862h24.169931zM470.157241 722.326069l-126.110896-41.118897a112.728276 112.728276 0 0 1-70.947311-68.113655h-62.340413l72.651034 345.105655a29.872552 29.872552 0 0 0 29.095724 23.613794h127.911724a29.766621 29.766621 0 0 0 29.740138-29.731311V722.326069z m200.324414-567.384276l-315.374345 102.841379a77.135448 77.135448 0 0 0-53.345103 73.498483v242.493793a77.135448 77.135448 0 0 0 53.345103 73.498483l315.374345 102.841379V154.950621z m142.724414-59.233103a53.583448 53.583448 0 0 0-53.521655-53.521656 53.583448 53.583448 0 0 0-53.530483 53.521656V774.285241c0.008828 0.273655 0.008828 0.556138 0 0.829793v34.23338a53.583448 53.583448 0 0 0 53.530483 53.530483 53.583448 53.583448 0 0 0 53.521655-53.530483V95.70869z m101.835034 491.414069a17.831724 17.831724 0 1 0 22.324966 27.833379c49.593379-39.768276 78.035862-98.974897 78.035862-162.427586 0-63.443862-28.442483-122.650483-78.035862-162.427586a17.840552 17.840552 0 0 0-22.333793 27.842206c41.110069 32.962207 64.688552 82.017103 64.688552 134.58538s-23.569655 101.623172-64.679725 134.594207z" fill="#4C4C4C" p-id="7014"></path></svg>