<?xml version="1.0" standalone="no"?><!DOCTYPE svg PUBLIC "-//W3C//DTD SVG 1.1//EN" "http://www.w3.org/Graphics/SVG/1.1/DTD/svg11.dtd"><svg t="1513245685426" class="icon" style="" viewBox="0 0 1024 1024" version="1.1" xmlns="http://www.w3.org/2000/svg" p-id="6867" xmlns:xlink="http://www.w3.org/1999/xlink" width="200" height="200"><defs><style type="text/css"></style></defs><path d="M1003.988341 852.269643c0 47.254822-38.308713 85.563535-85.563535 85.563535H105.575194c-47.254822 0-85.563535-38.308713-85.563535-85.571473 0-47.246884 38.308713-85.555597 85.563535-85.555596h812.849612c47.254822 0 85.563535 38.308713 85.563535 85.563534z" fill="#DBD8D2" p-id="6868"></path><path d="M790.075535 868.31231H576.170667V60.804961a42.785736 42.785736 0 0 1 42.785736-42.777798h128.341333a42.785736 42.785736 0 0 1 42.785737 42.785736v807.499411z" fill="#FC8059" p-id="6869"></path><path d="M661.734202 868.31231H447.829333V274.717767a42.785736 42.785736 0 0 1 42.785737-42.785736h128.341333a42.785736 42.785736 0 0 1 42.785737 42.785736v593.594543z" fill="#BF5243" p-id="6870"></path><path d="M618.956403 868.31231H405.043597V231.939969a42.785736 42.785736 0 0 1 42.785736-42.785736h128.341334a42.785736 42.785736 0 0 1 42.785736 42.785736v636.372341z" fill="#A3CCAA" p-id="6871"></path><path d="M490.607132 868.31231H276.702264v-465.245271a42.785736 42.785736 0 0 1 42.785736-42.785737h128.341333a42.785736 42.785736 0 0 1 42.785737 42.785737v465.245271z" fill="#80A886" p-id="6872"></path><path d="M447.829333 868.31231H233.924465v-508.031008a42.785736 42.785736 0 0 1 42.777799-42.785736h128.349271a42.785736 42.785736 0 0 1 42.777798 42.785736v508.031008z" fill="#FED766" p-id="6873"></path><path d="M383.650729 531.408372h470.603411a42.785736 42.785736 0 0 1 42.785736 42.785737v385.031938a42.785736 42.785736 0 0 1-42.785736 42.777798H383.642791a42.785736 42.785736 0 0 1-42.777799-42.785736V574.186171a42.785736 42.785736 0 0 1 42.785737-42.785737z" fill="#AD8653" p-id="6874"></path><path d="M554.785736 638.356837a42.785736 42.785736 0 1 1-85.571472 0 42.785736 42.785736 0 0 1 85.571472 0z m171.119132-42.777798a42.785736 42.785736 0 1 0 0 85.563535 42.785736 42.785736 0 0 0 0-85.563535z" fill="#7F5233" p-id="6875"></path><path d="M918.424806 750.663442h-5.350201V574.186171c0-32.434605-26.38586-58.820465-58.820465-58.820466h-48.135938V60.804961c0-32.434605-26.38586-58.820465-58.820466-58.820465H618.956403c-32.442543 0-58.828403 26.38586-58.828403 58.820465v112.306605H447.829333c-32.434605 0-58.820465 26.38586-58.820465 58.820465v69.520868H276.694326c-32.434605 0-58.820465 26.393798-58.820466 58.820465v390.390078H105.575194c-56.026295 0-101.606202 45.579907-101.606202 101.606201 0 56.026295 45.579907 101.606202 101.606202 101.606202h219.25507v5.350202c0 32.434605 26.393798 58.820465 58.820465 58.820465h470.603411c32.434605 0 58.820465-26.38586 58.820465-58.820465v-5.350202h5.350201c56.026295 0 101.606202-45.579907 101.606202-101.606202 0-56.026295-45.579907-101.606202-101.606202-101.606201zM592.213333 60.804961a26.766884 26.766884 0 0 1 26.74307-26.735132h128.341333a26.766884 26.766884 0 0 1 26.74307 26.74307v454.552806h-32.085333v-5.350201c0-62.392558-46.683287-114.068837-106.956403-121.959194V231.932031c0-26.878016-18.114481-49.596527-42.785737-56.597829V60.804961z m133.691535 593.602481a16.034729 16.034729 0 0 0 16.042667-16.050605v-21.376992a26.719256 26.719256 0 0 1-16.042667 48.120062 26.766884 26.766884 0 0 1-26.735132-26.74307c0-8.731783 4.207132-16.495132 10.692466-21.376992v21.38493c0 8.850853 7.183876 16.034729 16.042666 16.034729z m-16.034728-139.041737h-74.87107V420.522667c42.499969 7.604589 74.863132 44.833736 74.863132 89.492837v5.350201z m-288.783876-283.433674a26.766884 26.766884 0 0 1 26.743069-26.735132h128.341334a26.766884 26.766884 0 0 1 26.743069 26.735132v156.124279c-60.273116 7.890357-106.956403 59.574574-106.956403 121.959194v5.350201h-32.085333V360.281302c0-26.878016-18.114481-49.596527-42.785736-56.597829v-71.743504z m181.827472 188.590636v94.843038H528.034729v-5.350201c0-44.659101 32.363163-81.896186 74.871069-89.492837zM512 654.399504a16.034729 16.034729 0 0 0 16.042667-16.034729v-21.38493A26.719256 26.719256 0 0 1 512 665.099907a26.766884 26.766884 0 0 1-26.74307-26.74307c0-8.731783 4.207132-16.495132 10.692465-21.376992v21.38493c0.007938 8.850853 7.183876 16.034729 16.050605 16.034729z m-187.169736 267.391008H105.575194c-38.340465 0-69.520868-31.196279-69.520868-69.520869 0-38.340465 31.188341-69.520868 69.520868-69.520868h112.298666v53.470264H126.968062a16.034729 16.034729 0 1 0 0 32.093271H324.822326v53.478202z m0-347.604341v262.032868H249.967132V360.28924a26.766884 26.766884 0 0 1 26.735132-26.743069h128.349271a26.766884 26.766884 0 0 1 26.735132 26.743069v155.084403h-48.128c-32.442543 0-58.828403 26.38586-58.828403 58.820466z m556.159007 385.031938a26.766884 26.766884 0 0 1-26.735131 26.743069H383.642791a26.766884 26.766884 0 0 1-26.735132-26.735131V574.186171a26.766884 26.766884 0 0 1 26.735132-26.735132H495.965271v34.307969c-24.663318 7.001302-42.785736 29.727752-42.785736 56.597829 0 32.434605 26.393798 58.820465 58.820465 58.820465 32.442543 0 58.828403-26.38586 58.828403-58.820465 0-26.878016-18.114481-49.596527-42.785736-56.597829v-34.307969h181.827473v34.307969c-24.663318 7.001302-42.785736 29.727752-42.785737 56.597829 0 32.434605 26.393798 58.820465 58.828403 58.820465 32.434605 0 58.820465-26.38586 58.820465-58.820465 0-26.878016-18.114481-49.596527-42.777798-56.597829v-34.307969h112.298667a26.766884 26.766884 0 0 1 26.743069 26.735132v385.031938z m37.435535-37.427597h-5.350201V782.748775h5.350201c38.340465 0 69.520868 31.188341 69.520868 69.520868 0 38.332527-31.188341 69.520868-69.520868 69.520869z" fill="#4C4C4C" p-id="6876"></path></svg>