<?xml version="1.0" standalone="no"?><!DOCTYPE svg PUBLIC "-//W3C//DTD SVG 1.1//EN" "http://www.w3.org/Graphics/SVG/1.1/DTD/svg11.dtd"><svg t="1513245674461" class="icon" style="" viewBox="0 0 1024 1024" version="1.1" xmlns="http://www.w3.org/2000/svg" p-id="6458" xmlns:xlink="http://www.w3.org/1999/xlink" width="200" height="200"><defs><style type="text/css"></style></defs><path d="M843.966512 509.785302c0 212.761798-172.468589 385.230388-385.230388 385.230388-212.769736 0-385.246264-172.468589-385.246264-385.230388 0-212.75386 172.476527-385.230388 385.238326-385.230387 212.761798 0 385.246264 172.476527 385.246264 385.230387z" fill="#B5E5BC" p-id="6459"></path><path d="M481.04186 18.050977C735.15262 29.386419 939.142946 233.376744 950.494264 487.471628a21.400806 21.400806 0 0 1-21.408745 22.305736H458.736124V39.451783a21.400806 21.400806 0 0 1 22.305736-21.392868z" fill="#FC8059" p-id="6460"></path><path d="M937.968124 868.423442l-184.796279-185.272558a42.801612 42.801612 0 0 0-60.53507 0l-48.294697-48.294698c59.145922-87.413085 50.033116-207.229023-27.378109-284.640248-87.762357-87.754419-230.042791-87.754419-317.805147 0-87.762357 87.762357-87.762357 230.042791 0 317.797209 77.403287 77.411225 197.227163 86.524031 284.648186 27.386047l48.294697 48.286759a42.801612 42.801612 0 0 0 0 60.53507l184.796279 185.272558a42.80955 42.80955 0 0 0 60.543008 0l60.527132-60.535069a42.80955 42.80955 0 0 0 0-60.53507z" fill="#84A7B7" p-id="6461"></path><path d="M644.342078 634.864124l48.294697 48.294698-60.53507 60.527131-48.294697-48.294697a225.922977 225.922977 0 0 0 60.53507-60.527132z" fill="#256277" p-id="6462"></path><path d="M607.882915 509.118512c0 82.737612-67.075969 149.813581-149.82152 149.813581-82.737612 0-149.813581-67.075969-149.813581-149.813581 0-82.737612 67.075969-149.813581 149.813581-149.813582 82.74555 0 149.821519 67.075969 149.82152 149.813582z" fill="#C3E4ED" p-id="6463"></path><path d="M547.784434 389.135876a150.146977 150.146977 0 0 1 51.406388 69.663752L407.734574 650.24a150.162853 150.162853 0 0 1-69.663752-51.39845l209.713612-209.705674zM316.924031 559.445333c2.508403 7.033054 5.516899 13.820031 9.001674 20.321241l202.775814-202.767876a149.154729 149.154729 0 0 0-20.32124-9.001675L316.931969 559.445333z" fill="#DCF3F9" p-id="6464"></path><path d="M607.859101 509.785302h-127.722171a21.400806 21.400806 0 0 1-21.408744-21.400806V359.328744a149.321426 149.321426 0 0 1 105.265612 43.857365 149.337302 149.337302 0 0 1 43.865303 106.607131z" fill="#FED766" p-id="6465"></path><path d="M458.728186 397.097674a42.801612 42.801612 0 1 1 0 85.611163 42.801612 42.801612 0 0 1 0-85.611163z" fill="#FFFFFF" p-id="6466"></path><path d="M949.32738 857.095938l-144.233178-144.606264a399.915659 399.915659 0 0 0 54.605395-186.653767h69.385922a37.673674 37.673674 0 0 0 27.092341-11.589457 37.038636 37.038636 0 0 0 10.335256-27.481303c-5.659783-126.912496-58.344186-246.371225-148.36093-336.387969C728.127504 60.37631 608.660837 7.683969 481.756279 2.016248a36.959256 36.959256 0 0 0-27.48924 10.343194 37.665736 37.665736 0 0 0-11.589458 27.092341v69.377984C228.836217 117.291659 57.455132 293.911814 57.455132 509.79324c0 221.26338 180.017612 401.273054 401.280992 401.273055a400.241116 400.241116 0 0 0 202.577364-54.843535l144.256993 144.622139a58.661705 58.661705 0 0 0 41.610914 17.209551 58.661705 58.661705 0 0 0 41.610915-17.209551l60.53507-60.53507a58.463256 58.463256 0 0 0 17.233364-41.610914c0-15.717209-6.120186-30.497736-17.225426-41.595039zM781.597767 688.937674l-17.066666-17.114294-0.015876-0.015876a58.463256 58.463256 0 0 0-41.610915-17.233364 58.518822 58.518822 0 0 0-28.71169 7.445829l-29.362604-29.354667a238.615814 238.615814 0 0 0 33.43479-106.829395h129.317706a367.973209 367.973209 0 0 1-45.984745 163.101767z m-111.655689-5.78679L632.101705 721.007132l-23.758387-23.758388a245.005891 245.005891 0 0 0 37.864186-37.832434l23.734574 23.742512zM474.770853 39.451783c0-2.000372 1.047814-3.302202 1.674914-3.89755a5.072372 5.072372 0 0 1 3.881675-1.468528c247.839752 11.049674 443.082419 206.284403 454.132093 454.116217a5.374016 5.374016 0 0 1-5.374016 5.55659H698.352124c-3.667349-58.52676-28.211597-113.036899-70.044775-154.870078-42.690481-42.690481-97.565767-65.964651-153.536496-69.83045V39.451783z m-16.709458 261.096186c53.438512 0 106.877023 20.345054 147.559194 61.027225 39.412093 39.412093 61.122481 91.810729 61.122481 147.551256v0.142883a15.256806 15.256806 0 0 0 0 0.952558c-0.214326 41.475969-12.44676 81.05476-35.046202 114.775318-0.460403 0.579473-0.86524 1.18276-1.230387 1.801923a210.912248 210.912248 0 0 1-55.843721 55.438884 208.411783 208.411783 0 0 1-116.561365 35.466914c-53.430574 0-106.884961-20.345054-147.567131-61.027225-39.412093-39.412093-61.114543-91.810729-61.114543-147.551255s21.70245-108.139163 61.122481-147.551256c40.682171-40.682171 94.120682-61.027225 147.559193-61.027225z m0.666791 578.44093c-203.57755 0-369.195659-165.626047-369.195659-369.195659 0-198.187659 156.997457-360.40831 353.16093-368.838449v128.015876c-56.43907 3.572093-111.846202 26.878016-154.870077 69.909829-45.484651 45.476713-70.528992 105.940341-70.528992 170.245954 0 64.305612 25.044341 124.76924 70.521054 170.245953 79.530667 79.522729 201.299349 91.683721 293.745116 36.459163l29.410233 29.41817a58.518822 58.518822 0 0 0-7.44583 28.703752c0 15.717209 6.120186 30.497736 17.225427 41.595039l17.082542 17.130171a368.298667 368.298667 0 0 1-179.104744 46.302263z m467.904496 38.634171l-60.543008 60.527132a26.576372 26.576372 0 0 1-18.916217 7.83479c-7.152124 0-13.875597-2.778295-18.916217-7.818914l-152.909395-153.298357a13.812093 13.812093 0 0 0-0.476279-0.484217l-31.434419-31.505861a26.592248 26.592248 0 0 1-7.83479-18.916217c0-7.144186 2.786233-13.867659 7.842728-18.924155l60.53507-60.535069a26.78276 26.78276 0 0 1 37.840372 0l31.426481 31.50586c0.150822 0.15876 0.301643 0.317519 0.460403 0.460403l152.917333 153.306295a26.592248 26.592248 0 0 1 7.834791 18.924155c0 7.144186-2.778295 13.867659-7.826853 18.916217zM340.777674 626.394295c32.331411 32.323473 74.807566 48.501085 117.275783 48.501085s84.944372-16.177612 117.283721-48.501085a164.760806 164.760806 0 0 0 48.580465-117.283721 164.760806 164.760806 0 0 0-48.580465-117.275783c-64.67076-64.67076-169.896682-64.67076-234.567442 0a164.760806 164.760806 0 0 0-48.580465 117.275783c0 44.301891 17.257178 85.952496 48.580465 117.275783z m22.678822-211.864807a133.35814 133.35814 0 0 1 94.596961-39.126325 133.35814 133.35814 0 0 1 94.596962 39.118387 132.88186 132.88186 0 0 1 39.181891 94.589024c0 35.728868-13.923225 69.322419-39.181891 94.589023-52.160496 52.152558-137.033426 52.152558-189.185985 0a132.88186 132.88186 0 0 1-39.181891-94.581085 132.88186 132.88186 0 0 1 39.173953-94.596962z" fill="#4C4C4C" p-id="6467"></path></svg>