<?xml version="1.0" standalone="no"?><!DOCTYPE svg PUBLIC "-//W3C//DTD SVG 1.1//EN" "http://www.w3.org/Graphics/SVG/1.1/DTD/svg11.dtd"><svg t="1513245654949" class="icon" style="" viewBox="0 0 1024 1024" version="1.1" xmlns="http://www.w3.org/2000/svg" p-id="5649" xmlns:xlink="http://www.w3.org/1999/xlink" width="200" height="200"><defs><style type="text/css"></style></defs><path d="M172.794047 878.044279a37.499039 37.499039 0 0 1 8.358697 30.418357l-13.677147 82.213705a16.058543 16.058543 0 0 1-18.463752 13.216744 16.074419 16.074419 0 0 1-13.184992-18.503442l13.677147-82.221643a5.302574 5.302574 0 0 0-1.190698-4.342078 5.27876 5.27876 0 0 0-4.088062-1.897178H66.385364a5.27876 5.27876 0 0 0-4.080124 1.897178 5.310512 5.310512 0 0 0-1.198635 4.342078l13.677147 82.221643a16.074419 16.074419 0 0 1-13.184992 18.495504 16.050605 16.050605 0 0 1-18.463752-13.208806L29.449922 908.454698a37.506977 37.506977 0 0 1 36.927504-43.674791h26.512869V699.725395c0-8.882605 7.183876-16.082357 16.034728-16.082356h235.297737c8.866729 0 16.042667 7.199752 16.042666 16.074418a16.058543 16.058543 0 0 1-16.034728 16.082357H124.975628v148.972155h19.249612c11.017922 0 21.432558 4.842171 28.560869 13.27231z m486.955658 77.831938H360.281302a16.058543 16.058543 0 0 0-16.042666 16.074419c0 8.882605 7.183876 16.082357 16.034728 16.082356h299.476341a16.058543 16.058543 0 0 0 16.042667-16.074418 16.058543 16.058543 0 0 0-16.034729-16.082357z" fill="#84A7B7" p-id="5650"></path><path d="M753.409984 599.190822l-56.065984 224.756093a85.595287 85.595287 0 0 1-83.015442 64.948589H405.694512a85.595287 85.595287 0 0 1-83.007504-64.948589l-56.073923-224.756093c-6.747287-27.060589 13.669209-53.271814 41.499783-53.271814h403.789396c27.838512 0 48.262946 26.211225 41.515658 53.263876z" fill="#547D87" p-id="5651"></path><path d="M957.130419 709.274791a16.034729 16.034729 0 0 1-13.947039 8.128496H636.96769c-20.67845 51.223814-70.560744 85.746109-126.952186 85.746108-62.860899 0-117.648868-42.865116-132.897737-103.979659l-11.652961-46.7071c-13.494574-54.121178 27.346357-106.543628 83.015442-106.543628h232.662326L646.390078 685.25445h268.581705L766.539411 435.382574a84.992 84.992 0 0 1-42.611101 11.398945H296.110636c-47.254822 0-85.563535-38.388093-85.563535-85.73817v-42.873054c0-165.745116 134.072558-300.103442 299.468403-300.103442s299.476341 134.358326 299.476341 300.103442v42.865116c0 20.003721-6.858419 38.388093-18.304992 52.97017l165.776868 279.099535c2.95293 4.969178 3.016434 11.14493 0.15876 16.169675z" fill="#6B95A0" p-id="5652"></path><path d="M1002.003845 653.097674c0 35.514543-28.735504 64.305612-64.170667 64.305613-35.443101 0-64.170667-28.79107-64.170666-64.305613 0-35.514543 28.727566-64.305612 64.170666-64.305612s64.170667 28.79107 64.170667 64.305612zM82.197829 588.792062c-35.443101 0-64.170667 28.79107-64.170666 64.305612 0 35.514543 28.735504 64.305612 64.170666 64.305613 35.443101 0 64.170667-28.79107 64.170667-64.305613 0-35.514543-28.727566-64.305612-64.170667-64.305612z" fill="#547D87" p-id="5653"></path><path d="M103.590698 653.097674c0 11.835535-9.581147 21.432558-21.392869 21.432559a21.408744 21.408744 0 0 1-21.392868-21.432559c0-11.843473 9.581147-21.432558 21.392868-21.432558a21.416682 21.416682 0 0 1 21.392869 21.432558z m834.24248-21.432558a21.408744 21.408744 0 0 0-21.392868 21.432558c0 11.843473 9.573209 21.432558 21.392868 21.432559a21.408744 21.408744 0 0 0 21.392869-21.432559c0-11.835535-9.581147-21.432558-21.392869-21.432558z" fill="#6B95A0" p-id="5654"></path><path d="M397.716837 758.133085v2.143256a16.058543 16.058543 0 0 1-16.042666 16.074419 16.058543 16.058543 0 0 1-16.042667-16.074419v-2.143256c0-8.874667 7.183876-16.074419 16.034729-16.074418 8.866729 0 16.050605 7.199752 16.050604 16.074418z" fill="#FC8059" p-id="5655"></path><path d="M461.887504 758.133085v2.143256a16.058543 16.058543 0 0 1-16.042667 16.074419 16.058543 16.058543 0 0 1-16.042666-16.074419v-2.143256c0-8.874667 7.183876-16.074419 16.034728-16.074418 8.866729 0 16.050605 7.199752 16.050605 16.074418z" fill="#FFD880" p-id="5656"></path><path d="M633.014574 758.133085v2.143256a16.058543 16.058543 0 0 1-16.042667 16.074419 16.058543 16.058543 0 0 1-16.042667-16.074419v-2.143256c0-8.874667 7.183876-16.074419 16.034729-16.074418 8.866729 0 16.050605 7.199752 16.050605 16.074418z" fill="#B5E5BC" p-id="5657"></path><path d="M424.451969 695.970729h-42.785736a21.392868 21.392868 0 0 1-21.384931-21.392869v-42.960372a21.392868 21.392868 0 0 1 21.384931-21.392868h42.785736a21.392868 21.392868 0 0 1 21.392868 21.392868v42.960372a21.392868 21.392868 0 0 1-21.392868 21.392869z" fill="#CFDFE2" p-id="5658"></path><path d="M317.495566 243.140465c0-59.19355 47.88986-107.178667 106.956403-107.178667s106.956403 47.985116 106.956403 107.178667c0 59.19355-47.88986 107.178667-106.956403 107.178667S317.495566 302.334016 317.495566 243.140465z" fill="#547D87" p-id="5659"></path><path d="M360.281302 243.140465c0-35.514543 28.727566-64.305612 64.170667-64.305612s64.170667 28.79107 64.170667 64.297674c0 35.522481-28.727566 64.31355-64.170667 64.313551s-64.170667-28.79107-64.170667-64.305613z" fill="#CFDFE2" p-id="5660"></path><path d="M424.451969 243.140465c0-17.765209 14.367752-32.156775 32.085333-32.156775a32.117085 32.117085 0 0 1 32.085334 32.148837c0 17.765209-14.367752 32.164713-32.085334 32.164713a32.117085 32.117085 0 0 1-32.085333-32.156775z" fill="#FFFFFF" p-id="5661"></path><path d="M850.650295 83.983876c87.714729 87.897302 87.714729 230.407938 0 318.313178-87.714729 87.889364-229.923721 87.889364-317.630512 0-87.714729-87.90524-87.714729-230.415876 0-318.313178s229.923721-87.897302 317.630512 0z" fill="#84A7B7" p-id="5662"></path><path d="M841.577178 243.140465c0 82.872558-67.044217 150.043783-149.742139 150.043783-82.697922 0-149.734202-67.171225-149.734202-150.043783 0-82.872558 67.036279-150.051721 149.734202-150.051721S841.585116 160.267907 841.585116 243.140465z" fill="#C3E4ED" p-id="5663"></path><path d="M781.51045 122.95938a150.361302 150.361302 0 0 1 51.374635 69.774884L641.547907 384.492155a150.091411 150.091411 0 0 1-69.624062-51.493705l209.594543-210.03907zM550.784992 293.546667c2.508403 7.040992 5.516899 13.835907 9.001675 20.352992l202.656744-203.093333c-6.501209-3.492713-13.280248-6.509147-20.305364-9.017551L550.784992 293.546667z" fill="#DCF3F9" p-id="5664"></path><path d="M692.509767 130.937054a42.825426 42.825426 0 0 1 42.777799 42.865117c0 23.679008-19.154357 42.880992-42.785737 42.880992a42.825426 42.825426 0 0 1-42.785736-42.873054c0-23.679008 19.162295-42.873054 42.785736-42.873055z" fill="#FFFFFF" p-id="5665"></path><path d="M675.792372 996.074171a16.058543 16.058543 0 0 1-16.034729 16.074418H360.273364a16.058543 16.058543 0 0 1-16.042666-16.074418c0-8.874667 7.175938-16.074419 16.034728-16.074419h299.476341c8.866729 0 16.042667 7.191814 16.042667 16.074419z m342.25414-342.976497c0 44.325705-35.982884 80.387969-80.213334 80.387969-30.72 0-57.46307-17.400062-70.933829-42.873054H552.80124a16.058543 16.058543 0 0 1-16.050604-16.074418c0-8.882605 7.183876-16.074419 16.050604-16.074419h169.293396l15.756899-63.170481a26.671628 26.671628 0 0 0-4.858047-22.988403 26.552558 26.552558 0 0 0-21.083286-10.303504H308.120806a26.552558 26.552558 0 0 0-21.075349 10.303504 26.66369 26.66369 0 0 0-4.865984 22.988403l56.073922 224.756093a69.441488 69.441488 0 0 0 67.441117 52.763783h208.641984a69.441488 69.441488 0 0 0 67.441116-52.763783l26.58431-106.543628a16.058543 16.058543 0 0 1 19.456-11.700589 16.082357 16.082357 0 0 1 11.668838 19.503628l-26.576372 106.53569a101.503008 101.503008 0 0 1-98.573892 77.125457H405.694512a101.503008 101.503008 0 0 1-98.573892-77.125457l-32.760062-131.341891H153.123721a80.530853 80.530853 0 0 1-54.891163 41.261643v140.938915h22.877271a37.491101 37.491101 0 0 1 36.927504 43.67479l-13.677147 82.229582a16.058543 16.058543 0 0 1-18.463752 13.208806 16.074419 16.074419 0 0 1-13.184992-18.495504l13.677147-82.221643a5.302574 5.302574 0 0 0-1.190698-4.342078 5.27876 5.27876 0 0 0-4.088062-1.905116H43.277891a5.27876 5.27876 0 0 0-4.080124 1.905116 5.302574 5.302574 0 0 0-1.190697 4.342078l13.669209 82.221643a16.074419 16.074419 0 0 1-13.177054 18.495504 16.026791 16.026791 0 0 1-18.47169-13.208806L6.350388 922.38586a37.499039 37.499039 0 0 1 36.927503-43.682728h22.877272V737.764217C29.584868 730.294574 1.984496 697.804403 1.984496 658.987659c0-44.325705 35.982884-80.387969 80.213333-80.387969S162.411163 614.669891 162.411163 658.995597c0 1.801922-0.055566 3.587969-0.174636 5.358139h104.098729l-15.28062-61.265364a58.677581 58.677581 0 0 1 10.700403-50.572899 58.415628 58.415628 0 0 1 46.357829-22.670884h403.805272a58.423566 58.423566 0 0 1 46.357829 22.670884 58.677581 58.677581 0 0 1 10.708341 50.572899l-13.812093 55.367442h102.622264a80.364155 80.364155 0 0 1 31.871007-69.59231l-80.332403-135.239442c-66.750512 37.387907-147.630636 40.467845-216.706976 9.231876H296.110636c-56.026295 0-101.606202-45.675163-101.606202-101.820527v-42.865116C194.504434 143.812465 336.038698 1.984496 510.015504 1.984496c33.260155 0 65.972589 5.15969 97.343504 15.36C692.986047-14.685271 793.266605 3.746729 862.00955 72.616682c93.826977 94.025426 93.826977 247.014202 0 341.039628a241.695752 241.695752 0 0 1-25.750821 22.40893l82.523287 138.946481c6.112248-1.508217 12.494388-2.302016 19.051162-2.302016 44.238388 0 80.221271 36.070202 80.221272 80.387969zM540.560868 430.699163a243.561178 243.561178 0 0 1-18.892403-17.042853c-29.942078-30.005581-51.025364-66.52031-61.916279-106.368992a79.983132 79.983132 0 0 1-35.300217 8.199938c-44.23045 0-80.213333-36.062264-80.213333-80.387969 0-44.325705 35.982884-80.380031 80.213333-80.380031 13.947039 0 27.56862 3.683225 39.531163 10.470201a240.298667 240.298667 0 0 1 57.693271-92.572775 240.743194 240.743194 0 0 1 41.722047-33.442729 284.005209 284.005209 0 0 0-53.382946-5.032682c-156.283039 0-283.425736 127.412589-283.425737 284.021086v42.873054c0 38.419845 31.180403 69.663752 69.520869 69.663752h244.450232zM451.195039 243.140465c0-15.272682 1.405023-30.323101 4.159504-45.01631a47.485023 47.485023 0 0 0-30.902574-11.256062c-26.536682 0-48.128 21.638946-48.128 48.231194 0 26.592248 21.591318 48.231194 48.128 48.231194 10.367008 0 20.40062-3.349829 28.656124-9.49383a244.831256 244.831256 0 0 1-1.920992-30.696186z m388.111876 147.781457c39.396217-39.467659 61.090729-91.953612 61.090728-147.781457 0-55.827845-21.694512-108.313798-61.090728-147.789395C799.918636 55.883411 747.543814 34.133333 691.835039 34.133333c-26.774822 0-52.771721 5.024744-76.934946 14.621768-0.793798 0.396899-1.619349 0.738233-2.476651 1.000186a208.157767 208.157767 0 0 0-68.060279 45.595783c-39.388279 39.475597-61.082791 91.96155-61.082791 147.781457 0 55.827845 21.694512 108.313798 61.082791 147.789395 81.316713 81.491349 213.634977 81.491349 294.943752 0zM130.325829 658.995597c0-26.592248-21.591318-48.231194-48.128-48.231194-26.536682 0-48.128 21.638946-48.128 48.231194 0 26.592248 21.591318 48.231194 48.128 48.231194 26.536682 0 48.135938-21.638946 48.135938-48.231194z m855.635349-5.897923c0-26.592248-21.591318-48.231194-48.128-48.231193a47.786667 47.786667 0 0 0-19.884651 4.310325 48.302636 48.302636 0 0 0-25.6 59.701582l0.19845 0.571534c6.699659 18.574884 24.464868 31.878946 45.278263 31.878946 26.54462 0 48.135938-21.631008 48.135938-48.231194zM857.619845 243.140465c0 44.373333-17.24924 86.087442-48.556651 117.466295a164.514729 164.514729 0 0 1-117.228155 48.659845c-44.278078 0-85.912806-17.280992-117.220217-48.659845A165.221209 165.221209 0 0 1 526.050233 243.140465c0-44.373333 17.241302-86.09538 48.556651-117.474232a164.514729 164.514729 0 0 1 117.220217-48.659845c44.286016 0 85.912806 17.28893 117.228155 48.659845a165.205333 165.205333 0 0 1 48.556651 117.474232z m-32.093271 0c0-35.784434-13.899411-69.43355-39.158078-94.731907a132.643721 132.643721 0 0 0-94.533457-39.245395 132.659597 132.659597 0 0 0-94.533458 39.237457 133.223194 133.223194 0 0 0-39.158077 94.739845c0 35.784434 13.907349 69.425612 39.158077 94.731907a132.651659 132.651659 0 0 0 94.541396 39.237457c35.705054 0 69.274791-13.931163 94.525519-39.237457a133.215256 133.215256 0 0 0 39.158078-94.731907zM424.451969 594.15814c20.63876 0 37.435535 16.828527 37.435535 37.506976v42.865117a37.514915 37.514915 0 0 1-37.435535 37.522852h-42.785736c-20.63876 0-37.427597-16.828527-37.427597-37.514914v-42.873055a37.514915 37.514915 0 0 1 37.427597-37.514914h42.785736z m0 32.148837h-42.785736a5.35814 5.35814 0 0 0-5.342264 5.350201v42.873055c0 2.960868 2.397271 5.35814 5.342264 5.358139h42.785736a5.35814 5.35814 0 0 0 5.350202-5.358139v-42.865117a5.35814 5.35814 0 0 0-5.350202-5.358139z" fill="#4C4C4C" p-id="5666"></path></svg>