<?xml version="1.0" standalone="no"?><!DOCTYPE svg PUBLIC "-//W3C//DTD SVG 1.1//EN" "http://www.w3.org/Graphics/SVG/1.1/DTD/svg11.dtd"><svg t="1513245668388" class="icon" style="" viewBox="0 0 1024 1024" version="1.1" xmlns="http://www.w3.org/2000/svg" p-id="6188" xmlns:xlink="http://www.w3.org/1999/xlink" width="200" height="200"><defs><style type="text/css"></style></defs><path d="M362.26556 510.015504c0 94.509643-76.617426 171.12707-171.127069 171.12707S20.011421 604.525147 20.011421 510.015504s76.617426-171.12707 171.12707-171.12707 171.12707 76.617426 171.127069 171.12707z" fill="#D0F7D6" p-id="6189"></path><path d="M276.702025 510.015504c0 47.254822-38.308713 85.563535-85.563534 85.563535S105.574956 557.270326 105.574956 510.015504s38.308713-85.563535 85.571473-85.563535c47.254822 0 85.555597 38.308713 85.555596 85.563535z" fill="#80A886" p-id="6190"></path><path d="M1003.980165 189.162171c0 94.501705-76.609488 171.119132-171.119132 171.119131-94.517581 0-171.12707-76.617426-171.12707-171.127069S738.343452 18.027163 832.853095 18.027163c94.501705 0 171.119132 76.617426 171.119132 171.12707z" fill="#DCF3F9" p-id="6191"></path><path d="M918.424568 189.162171c0 47.246884-38.316651 85.555597-85.571473 85.555596-47.254822 0-85.563535-38.308713-85.563535-85.563534s38.308713-85.563535 85.571473-85.563535c47.254822 0 85.555597 38.308713 85.555597 85.571473z" fill="#84A7B7" p-id="6192"></path><path d="M1003.980165 830.868837c0 94.509643-76.609488 171.12707-171.119132 171.12707-94.517581 0-171.12707-76.609488-171.12707-171.119132 0-94.517581 76.609488-171.12707 171.12707-171.12707 94.501705 0 171.119132 76.609488 171.119132 171.12707z" fill="#DBCFFF" p-id="6193"></path><path d="M918.424568 830.868837c0 47.26276-38.316651 85.571473-85.571473 85.571473-47.254822 0-85.563535-38.308713-85.563535-85.571473 0-47.254822 38.308713-85.563535 85.571473-85.563535 47.254822 0 85.555597 38.308713 85.555597 85.571473z" fill="#A384E2" p-id="6194"></path><path d="M645.754801 194.139287C643.008258 90.969302 724.705994 4.802481 827.875979 2.055938c49.898171-1.365333 97.47845 16.884093 133.755039 51.27938A185.947287 185.947287 0 0 1 1019.95139 184.16124a185.955225 185.955225 0 0 1-51.27938 133.762977 185.947287 185.947287 0 0 1-135.874481 58.391814 186.550574 186.550574 0 0 1-123.078449-46.214946 16.034729 16.034729 0 1 1 21.115038-24.155287 154.798636 154.798636 0 0 0 106.146729 38.229334 154.076279 154.076279 0 0 0 108.416992-48.32645 154.076279 154.076279 0 0 0 42.484093-110.830139 154.076279 154.076279 0 0 0-48.326449-108.416993A153.996899 153.996899 0 0 0 828.725343 34.133333c-85.484155 2.270264-153.171349 73.672434-150.901085 159.156589a16.042667 16.042667 0 0 1-32.069457 0.857303z m85.492093 636.72955c0-10.628961 1.643163-20.884837 4.68341-30.52155L273.669715 569.209054c-18.455814 25.671442-48.580465 42.404713-82.531224 42.404713-56.026295 0-101.606202-45.579907-101.606202-101.606201 0-56.026295 45.579907-101.606202 101.606202-101.606202 33.95076 0 64.067473 16.749147 82.531224 42.404714L735.930304 219.675783a101.17755 101.17755 0 0 1-4.68341-30.52155c0-56.026295 45.587845-101.606202 101.606201-101.606202 56.026295 0 101.606202 45.579907 101.606202 101.606202 0 56.026295-45.579907 101.606202-101.606202 101.606201-33.95076 0-64.067473-16.749147-82.531225-42.404713L288.069219 479.486016c3.040248 9.636713 4.683411 19.892589 4.683411 30.52155 0 10.636899-1.643163 20.884837-4.683411 30.529488l462.260589 231.130295c18.463752-25.663504 48.580465-42.404713 82.531225-42.404713 56.026295 0 101.606202 45.579907 101.606202 101.606201 0 56.026295-45.579907 101.606202-101.606202 101.606202-56.026295 0-101.606202-45.579907-101.606201-101.606202z m32.085333 0c0 38.340465 31.196279 69.520868 69.520868 69.520868 38.340465 0 69.520868-31.188341 69.520868-69.520868 0-38.332527-31.188341-69.520868-69.520868-69.520868-38.332527 0-69.520868 31.196279-69.520868 69.520868z m0-641.706666c0 38.324589 31.196279 69.51293 69.520868 69.51293 38.340465 0 69.520868-31.188341 69.520868-69.520868 0-38.332527-31.188341-69.520868-69.520868-69.520869-38.332527 0-69.520868 31.188341-69.520868 69.520869zM260.659359 510.015504c0-38.340465-31.188341-69.520868-69.520868-69.520868-38.332527 0-69.520868 31.188341-69.520869 69.520868 0 38.332527 31.196279 69.520868 69.520869 69.520868 38.332527 0 69.520868-31.196279 69.520868-69.520868z m581.901891 133.937612a186.955411 186.955411 0 0 0-126.063132 40.309086 16.042667 16.042667 0 0 0 19.956093 25.131658 154.917705 154.917705 0 0 1 104.440062-33.3951c85.404775 4.437333 151.266233 77.522357 146.8289 162.919193a154.052465 154.052465 0 0 1-51.041241 107.154853 154.012775 154.012775 0 0 1-111.870015 39.674047 154.068341 154.068341 0 0 1-107.162791-51.057117 154.060403 154.060403 0 0 1-39.666108-111.862077 16.042667 16.042667 0 0 0-15.193303-16.852341 16.098233 16.098233 0 0 0-16.852341 15.185364 185.955225 185.955225 0 0 0 47.873985 135.017178 185.931411 185.931411 0 0 0 129.333581 61.606698c3.318078 0.174636 6.628217 0.254016 9.930419 0.254016 46.326078 0 90.413643-16.892031 125.078821-48.135938a185.947287 185.947287 0 0 0 61.614636-129.317706c5.35814-103.066791-74.140775-191.273674-177.207566-196.623876z m-582.084465 4.762791a153.433302 153.433302 0 0 1-69.338294 16.376062c-85.515907 0-155.084403-69.568496-155.084404-155.084403 0-85.507969 69.568496-155.076465 155.084404-155.076465 24.321984 0 47.651721 5.508961 69.338294 16.368124a16.034729 16.034729 0 1 0 14.367752-28.687876 185.248744 185.248744 0 0 0-83.706046-19.765582C87.928816 322.837829 3.968754 406.797891 3.968754 510.015504 3.968754 613.209302 87.928816 697.177302 191.138491 697.177302c29.354667 0 57.526574-6.652031 83.706046-19.765581a16.042667 16.042667 0 0 0-14.367752-28.687876z" fill="#4C4C4C" p-id="6195"></path></svg>