<?xml version="1.0" standalone="no"?><!DOCTYPE svg PUBLIC "-//W3C//DTD SVG 1.1//EN" "http://www.w3.org/Graphics/SVG/1.1/DTD/svg11.dtd"><svg t="1513245661674" class="icon" style="" viewBox="0 0 1024 1024" version="1.1" xmlns="http://www.w3.org/2000/svg" p-id="5924" xmlns:xlink="http://www.w3.org/1999/xlink" width="200" height="200"><defs><style type="text/css"></style></defs><path d="M834.845767 253.324899v663.115411c0 47.254822-38.308713 85.563535-85.563534 85.563535H278.68676c-47.254822 0-85.563535-38.308713-85.563535-85.563535V253.324899c0-47.254822 38.308713-85.563535 85.563535-85.563535h470.595473c47.254822 0 85.563535 38.308713 85.563534 85.571473z" fill="#E8BA52" p-id="5925"></path><path d="M825.732961 214.912992l-307.176186 658.74952h-212.420465l329.164403-705.901148h113.989458c33.434791 0 62.368744 19.194047 76.44279 47.151628z m-343.841736-47.151628L193.115287 787.019411v86.643101h30.40248l329.172342-705.901148h-70.806822z" fill="#FED766" p-id="5926"></path><path d="M834.845767 830.876775v85.563535c0 47.254822-38.308713 85.563535-85.563534 85.563535H278.68676c-47.254822 0-85.563535-38.308713-85.563535-85.563535v-85.563535h641.722542z" fill="#AD8653" p-id="5927"></path><path d="M449.813829 296.110636a42.785736 42.785736 0 1 1-85.563534 0 42.785736 42.785736 0 0 1 85.563534 0z m171.12707-42.785737a42.785736 42.785736 0 1 0 0 85.563535 42.785736 42.785736 0 0 0 0-85.563535z" fill="#7F5233" p-id="5928"></path><path d="M749.282233 151.718698H636.983566v-26.735132C636.983566 57.153488 581.806636 1.984496 513.984496 1.984496S390.985426 57.153488 390.985426 124.983566v26.735132H278.68676c-56.026295 0-101.606202 45.579907-101.606202 101.606201v663.115411c0 56.026295 45.579907 101.606202 101.606202 101.606202h470.595473c56.026295 0 101.606202-45.579907 101.606201-101.606202V253.324899c0-56.026295-45.579907-101.606202-101.606201-101.606201z m-128.341334 160.426666a16.034729 16.034729 0 0 0 16.034729-16.034728V274.733643a26.711318 26.711318 0 0 1 10.700403 21.376993 26.766884 26.766884 0 0 1-26.735132 26.735131 26.766884 26.766884 0 0 1-26.74307-26.735131c0-8.731783 4.207132-16.495132 10.692466-21.376993v21.376993c0 8.858791 7.191814 16.034729 16.050604 16.034728zM423.07076 124.991504c0-50.128372 40.785364-90.913736 90.913736-90.913737 50.128372 0 90.913736 40.785364 90.913737 90.913737v26.735132H423.07076v-26.735132z m-16.034729 187.169736a16.034729 16.034729 0 0 0 16.034729-16.042666V274.733643a26.711318 26.711318 0 0 1 10.700403 21.376993 26.766884 26.766884 0 0 1-26.74307 26.735131 26.766884 26.766884 0 0 1-26.74307-26.735131c0-8.731783 4.207132-16.495132 10.700403-21.376993v21.376993c0 8.858791 7.183876 16.034729 16.042667 16.034728zM818.803101 916.44031c0 38.340465-31.188341 69.520868-69.520868 69.520868H278.68676c-38.332527 0-69.520868-31.188341-69.520869-69.520868v-69.520868h609.63721v69.520868z m0-101.606201H209.165891V253.324899c0-38.332527 31.188341-69.520868 69.520869-69.520868h112.298666v55.700837c-24.663318 7.001302-42.785736 29.719814-42.785736 56.59783 0 32.442543 26.393798 58.828403 58.828403 58.828403 32.434605 0 58.820465-26.393798 58.820465-58.820465 0-26.878016-18.114481-49.604465-42.777798-56.605768v-55.700837h181.819535v55.700837c-24.65538 7.001302-42.777798 29.719814-42.777799 56.59783 0 32.442543 26.38586 58.828403 58.820465 58.828403 32.442543 0 58.828403-26.393798 58.828403-58.820465 0-26.878016-18.114481-49.604465-42.785736-56.605768v-55.700837h112.306605c38.332527 0 69.520868 31.188341 69.520868 69.520868v561.50921z m-363.63907 101.606201a16.034729 16.034729 0 0 1 16.034729-16.042667h85.571473a16.034729 16.034729 0 1 1 0 32.085334H471.19876a16.034729 16.034729 0 0 1-16.034729-16.042667z" fill="#4C4C4C" p-id="5929"></path></svg>