<?xml version="1.0" standalone="no"?><!DOCTYPE svg PUBLIC "-//W3C//DTD SVG 1.1//EN" "http://www.w3.org/Graphics/SVG/1.1/DTD/svg11.dtd"><svg t="1513245651638" class="icon" style="" viewBox="0 0 1024 1024" version="1.1" xmlns="http://www.w3.org/2000/svg" p-id="5513" xmlns:xlink="http://www.w3.org/1999/xlink" width="200" height="200"><defs><style type="text/css"></style></defs><path d="M608.256 750.584062H415.744V89.857984a42.785736 42.785736 0 0 1 33.498295-41.761736l132.985054-29.553116a21.392868 21.392868 0 0 1 26.028651 20.876899v711.156093z" fill="#FED766" p-id="5514"></path><path d="M415.744 616.971907V218.207256a42.785736 42.785736 0 0 1 33.498295-41.761737l132.985054-29.553116a21.392868 21.392868 0 0 1 26.036589 20.876899v449.202605H415.736062z" fill="#FF9D00" p-id="5515"></path><path d="M415.744 745.31324V346.556527a42.785736 42.785736 0 0 1 33.498295-41.769674l132.985054-29.553117a21.392868 21.392868 0 0 1 26.036589 20.884838v449.194666H415.736062z" fill="#AD3C1E" p-id="5516"></path><path d="M512 1002.003845c-165.395845 0-299.468403-134.072558-299.468403-299.468403S346.604155 403.067039 512 403.067039s299.468403 134.072558 299.468403 299.468403c0 165.387907-134.072558 299.468403-299.468403 299.468403z" fill="#84A7B7" p-id="5517"></path><path d="M512 937.833178c-129.944806 0-235.297736-105.344992-235.297736-235.297736S382.047256 467.229767 512 467.229767c129.944806 0 235.297736 105.337054 235.297736 235.297737 0 129.944806-105.344992 235.297736-235.297736 235.297736z" fill="#CFDFE2" p-id="5518"></path><path d="M665.36186 765.840868c-1.293891 3.127566-2.683039 6.239256-4.151565 9.263628a16.042667 16.042667 0 1 1-28.87045-14.002605c1.18276-2.436961 2.302016-4.945364 3.333953-7.461705a16.042667 16.042667 0 0 1 29.688062 12.200682z m-64.615193 36.935442a132.683411 132.683411 0 0 1-98.049985 33.395101c-73.537488-5.127938-129.198636-69.131907-124.070698-142.669395a132.818357 132.818357 0 0 1 45.627535-91.580528 132.834233 132.834233 0 0 1 97.033923-32.49017 133.834419 133.834419 0 0 1 37.72924 8.176124 16.050605 16.050605 0 0 0 11.264-30.045271 165.903876 165.903876 0 0 0-46.762666-10.144745c-91.191566-6.326574-170.555535 62.670388-176.905923 153.861954-6.350388 91.183628 62.66245 170.539659 153.854016 176.897984 3.953116 0.269891 7.890357 0.412775 11.81172 0.412776 40.539287 0 79.141705-14.629705 109.774388-41.817303a16.042667 16.042667 0 0 0-21.297612-23.996527z" fill="#FFFFFF" p-id="5519"></path><path d="M769.865426 510.904558l-205.649364 248.935194c-29.211783 35.379597-82.547101 37.911814-114.989643 5.469271-32.442543-32.442543-29.910326-85.769922 5.461333-114.997581l248.935194-205.649364a47.056372 47.056372 0 0 1 66.234542 66.24248h0.007938z" fill="#FC8059" p-id="5520"></path><path d="M512 743.177922a40.642481 40.642481 0 1 1 0-81.284961 40.642481 40.642481 0 0 1 0 81.284961z" fill="#AD3C1E" p-id="5521"></path><path d="M775.628403 529.122233l6.604403-7.993551a62.837085 62.837085 0 0 0-4.024558-84.79355 62.845023 62.845023 0 0 0-84.801488-4.032496l-7.993551 6.604403a314.256868 314.256868 0 0 0-61.106604-31.331225V39.427969a37.252961 37.252961 0 0 0-14.010543-29.195907 37.237085 37.237085 0 0 0-31.54555-7.342636L445.765457 32.442543a58.471194 58.471194 0 0 0-46.064124 57.423379v317.805148C281.004651 453.020775 196.48893 568.097736 196.48893 702.535442c0 173.968868 141.534264 315.51107 315.51107 315.51107s315.51107-141.534264 315.51107-315.51107c0-62.122667-17.916031-121.89569-51.882667-173.413209z m-61.781333-72.084838a30.87876 30.87876 0 0 1 41.674418 1.976558 30.87876 30.87876 0 0 1 1.976559 41.674419L610.700899 678.380155a101.971349 101.971349 0 0 0-74.55355-74.55355l177.699721-146.78921zM484.812403 604.620403c-42.865116 11.922853-74.418605 51.303194-74.418605 97.915039 0 56.026295 45.579907 101.606202 101.606202 101.606201 46.611845 0 85.992186-31.54555 97.907101-74.410666L710.100341 608.446512a219.318574 219.318574 0 0 1 21.162667 94.080992c0 120.895504-98.351628 219.25507-219.25507 219.25507-120.895504 0-219.25507-98.359566-219.25507-219.25507 0-120.895504 98.351628-219.25507 219.25507-219.25507 32.656868 0 64.845395 7.271194 94.080992 21.162667l-121.268589 100.177364z m27.187597 28.394171c38.332527 0 69.520868 31.188341 69.520868 69.520868v0.063504a69.759008 69.759008 0 0 1-2.016248 16.574511c-7.469643 30.323101-34.903318 52.874915-67.50462 52.874915-38.332527 0-69.520868-31.180403-69.520868-69.520868 0-32.585426 22.543876-60.011163 52.866977-67.496682l0.58741-0.127008a70.068589 70.068589 0 0 1 16.002977-1.897178c0.023814 0.015876 0.03969 0.007938 0.063504 0.007938zM431.786667 89.865922a26.576372 26.576372 0 0 1 20.932465-26.100093L585.704186 34.212713a5.286698 5.286698 0 0 1 4.508775 1.047814 5.262884 5.262884 0 0 1 2.000372 4.17538v91.270946a37.562543 37.562543 0 0 0-13.462821 0.523907l-132.985055 29.553116a59.812713 59.812713 0 0 0-13.97879 4.977116v-75.89507z m0 128.341334a26.576372 26.576372 0 0 1 20.932465-26.100093l132.985054-29.553116a5.254946 5.254946 0 0 1 4.508775 1.047813 5.262884 5.262884 0 0 1 2.000372 4.17538v91.278884a37.562543 37.562543 0 0 0-13.462821 0.523907l-132.985055 29.553116a59.725395 59.725395 0 0 0-13.97879 4.977117v-75.903008z m0 128.341333a26.576372 26.576372 0 0 1 20.932465-26.100093l132.985054-29.545178a5.254946 5.254946 0 0 1 4.508775 1.047814 5.262884 5.262884 0 0 1 2.000372 4.167442v101.169612A316.344558 316.344558 0 0 0 512 387.016434c-27.703566 0-54.597457 3.595907-80.213333 10.335256v-50.803101z m80.213333 639.404651c-156.283039 0-283.425736-127.13476-283.425736-283.417798 0-156.283039 127.142698-283.425736 283.425736-283.425737 31.045457 0 61.44 4.977116 90.27076 14.65352 0.547721 0.222264 1.111318 0.412775 1.682852 0.571535 19.289302 6.612341 37.864186 15.32031 55.446822 26.068341l-26.393798 21.797705A251.372155 251.372155 0 0 0 512 451.195039c-138.597209 0-251.340403 112.751132-251.340403 251.340403 0 138.597209 112.751132 251.340403 251.340403 251.340403 138.597209 0 251.340403-112.751132 251.340403-251.340403a251.205457 251.205457 0 0 0-30.997829-121.014574l21.797705-26.38586c27.068527 44.317767 41.285457 94.922419 41.285457 147.400434 0 156.283039-127.142698 283.425736-283.425736 283.425736z" fill="#4C4C4C" p-id="5522"></path></svg>