<?xml version="1.0" standalone="no"?><!DOCTYPE svg PUBLIC "-//W3C//DTD SVG 1.1//EN" "http://www.w3.org/Graphics/SVG/1.1/DTD/svg11.dtd"><svg t="1513245642215" class="icon" style="" viewBox="0 0 1024 1024" version="1.1" xmlns="http://www.w3.org/2000/svg" p-id="5115" xmlns:xlink="http://www.w3.org/1999/xlink" width="200" height="200"><defs><style type="text/css"></style></defs><path d="M937.333085 544.339349c0 252.761302-205.347721 457.664496-458.656744 457.664496s-458.656744-204.903194-458.656744-457.664496c0-252.753364 205.347721-457.664496 458.656744-457.664496s458.656744 204.903194 458.656744 457.664496z" fill="#D0F7D6" p-id="5116"></path><path d="M473.421395 773.167628a16.042667 16.042667 0 0 1-16.034728 16.050605H159.243907a16.042667 16.042667 0 0 1 0-32.093272h298.126884a16.034729 16.034729 0 0 1 16.042666 16.050605z m51.120621-16.034729h-2.294078a16.042667 16.042667 0 0 0 0 32.077396h2.294078a16.042667 16.042667 0 0 0 0-32.077396z" fill="#A3CCAA" p-id="5117"></path><path d="M413.156217 661.273798v127.936497H180.541519V661.273798c0-59.907969 48.580465-108.480496 108.480497-108.480496h15.645767c59.915907 0 108.488434 48.580465 108.488434 108.480496zM296.848868 496.671752c37.467287 0 67.845953-30.307225 67.845954-67.687194 0-37.387907-30.378667-67.695132-67.845954-67.695132-37.467287 0-67.845953 30.307225-67.845953 67.695132 0 37.387907 30.378667 67.695132 67.845953 67.695132z" fill="#80A886" p-id="5118"></path><path d="M528.796775 20.376806c251.300713 23.63138 451.298233 223.19231 474.993116 473.953241 2.532217 26.830388-18.678078 50.009302-45.691038 50.009302H524.542016c-25.330109 0-45.865674-20.487938-45.865675-45.762481v-432.620155c0-26.949457 23.226543-48.112124 50.120434-45.579907z" fill="#FC8059" p-id="5119"></path><path d="M884.57724 429.92124a16.042667 16.042667 0 0 1-16.034728 16.042667H570.399752a16.042667 16.042667 0 0 1 0-32.085333h298.126884c8.858791 0 16.042667 7.183876 16.042666 16.042666z m51.12062-16.034728h-2.294077a16.042667 16.042667 0 0 0 0 32.077395h2.294077a16.042667 16.042667 0 0 0 0-32.085333z" fill="#BF5243" p-id="5120"></path><path d="M824.312062 319.027597v126.81724H591.697364V319.027597c0-59.915907 48.564589-108.480496 108.480496-108.480496h15.63783c59.915907 0 108.488434 48.564589 108.488434 108.480496zM708.004713 153.425364c37.467287 0 67.845953-30.315163 67.845954-67.695131 0-37.387907-30.378667-67.70307-67.845954-67.70307-37.467287 0-67.838016 30.315163-67.838015 67.695132 0 37.387907 30.370729 67.70307 67.838015 67.703069z" fill="#FED766" p-id="5121"></path><path d="M296.848868 512.714419c46.254636 0 83.88862-37.570481 83.88862-83.745737 0-46.167318-37.626047-83.72986-83.88862-83.72986-46.254636 0-83.88862 37.562543-83.88862 83.737798 0 46.167318 37.633984 83.737798 83.88862 83.737799z m0-135.398202c28.560868 0 51.803287 23.178915 51.803287 51.652465 0 28.481488-23.242419 51.652465-51.803287 51.652465s-51.803287-23.170977-51.803287-51.652465c0-28.47355 23.242419-51.652465 51.803287-51.652465zM457.378729 757.124961h-28.179845V675.705054c0-68.663566-55.867535-124.523163-124.531101-124.523163h-15.63783c-68.663566 0-124.531101 55.859597-124.5311 124.523163V757.124961h-5.247008a16.042667 16.042667 0 0 0 0 32.093272h298.126884a16.042667 16.042667 0 0 0 0-32.093272z m-60.273117 0h-200.513488V675.705054c0-50.969798 41.468031-92.437829 92.437829-92.437829h15.63783c50.969798 0 92.437829 41.468031 92.437829 92.437829V757.124961z m127.436404 0a16.042667 16.042667 0 0 1 0 32.093272h-2.294078a16.042667 16.042667 0 0 1 0-32.093272h2.294078z m427.198511-327.203721a16.042667 16.042667 0 0 1-16.042667 16.042667h-2.294077a16.042667 16.042667 0 0 1 0-32.085333h2.294077c8.858791 0 16.042667 7.183876 16.042667 16.042666z m68.020589 62.900589c-14.978977-158.569178-98.288124-301.040124-229.121984-392.636527a83.745736 83.745736 0 0 0 1.254201-14.463007C791.893333 39.554977 754.267287 1.984496 708.004713 1.984496a83.745736 83.745736 0 0 0-61.154232 26.481116A542.950202 542.950202 0 0 0 530.297054 4.397643a62.043287 62.043287 0 0 0-47.453271 15.852155 61.948031 61.948031 0 0 0-20.210109 45.706915v4.937427c-120.776434 3.97693-233.749829 52.787597-319.615007 138.470201C53.351194 298.841302 3.968992 417.799938 3.968992 544.339349c0 126.531473 49.382202 245.498047 139.049675 334.975008 89.659535 89.461085 208.864248 138.732155 335.657674 138.732155 126.793426 0 245.99814-49.27107 335.657675-138.732155 85.865178-85.682605 134.786977-198.401984 138.779782-318.932341h4.985055c17.423876 0 34.133333-7.382326 45.857736-20.257737a61.805147 61.805147 0 0 0 15.796589-47.310388zM708.004713 34.069829c28.568806 0 51.803287 23.178915 51.803287 51.652466a51.311132 51.311132 0 0 1-2.810047 16.780899 51.882667 51.882667 0 0 1-48.99324 34.871566c-28.560868 0-51.795349-23.170977-51.795349-51.652465 0-28.481488 23.234481-51.652465 51.795349-51.652466z m-229.328372 951.891349c-244.061271 0-442.622016-198.108279-442.622015-441.621829 0-238.139535 189.932155-432.866233 426.579348-441.336062V498.584806c0 34.077767 27.76707 61.805147 61.908342 61.805147h396.462635c-8.485705 236.115349-203.648992 425.579163-442.32831 425.579163z m501.545675-467.436155a29.57693 29.57693 0 0 1-22.123163 9.771659H524.542016a29.807132 29.807132 0 0 1-29.823008-29.719814v-432.620155c0-8.461891 3.453023-16.26493 9.724031-21.972341a29.465798 29.465798 0 0 1 22.853457-7.636341 510.960124 510.960124 0 0 1 102.058667 20.24186 83.229767 83.229767 0 0 0-5.23907 29.132404c0 46.175256 37.633984 83.745736 83.88862 83.745736 29.57693 0 55.621457-15.352062 70.560744-38.499225 119.466667 86.317643 195.401426 218.294574 209.245272 364.869458 0.793798 8.382512-1.905116 16.431628-7.588713 22.686759z m-111.687442-104.646449h-28.179845V332.458667c0-68.663566-55.859597-124.523163-124.531101-124.523163h-15.63783c-68.663566 0-124.531101 55.859597-124.5311 124.523163v81.419907h-5.247008a16.042667 16.042667 0 0 0 0 32.085333h298.126884a16.042667 16.042667 0 0 0 0-32.085333z m-60.265179 0H607.747969V332.458667c0-50.969798 41.468031-92.437829 92.437829-92.43783h15.63783c50.977736 0 92.437829 41.468031 92.437829 92.43783v81.419907z" fill="#4C4C4C" p-id="5122"></path></svg>