<?xml version="1.0" standalone="no"?><!DOCTYPE svg PUBLIC "-//W3C//DTD SVG 1.1//EN" "http://www.w3.org/Graphics/SVG/1.1/DTD/svg11.dtd"><svg t="1513245647974" class="icon" style="" viewBox="0 0 1024 1024" version="1.1" xmlns="http://www.w3.org/2000/svg" p-id="5382" xmlns:xlink="http://www.w3.org/1999/xlink" width="200" height="200"><defs><style type="text/css"></style></defs><path d="M1001.622822 399.701333c0-60.011163-47.30245-109.163163-106.57538-112.163721V105.575194c0-47.254822-38.308713-85.563535-85.563535-85.563535H210.547101c-47.254822 0-85.571473 38.308713-85.571473 85.563535v438.676837C65.718574 547.244651 18.416124 596.380775 18.416124 656.384c0 60.011163 47.30245 109.171101 106.57538 112.163721V918.424806c0 47.254822 38.308713 85.563535 85.563535 85.563535h598.944744c47.254822 0 85.555597-38.308713 85.555597-85.563535V511.84124c59.27293-3.000558 106.57538-52.14462 106.57538-112.139907zM50.493519 656.384c0-42.293581 32.918822-77.030202 74.490047-79.975194v159.966264c-41.563287-2.95293-74.490047-37.68955-74.490047-79.99107z m844.553923-176.699535V319.710264c41.571225 2.944992 74.490047 37.681612 74.490046 79.991069 0 42.301519-32.918822 77.030202-74.490046 79.975194z" fill="#F2EFE2" p-id="5383"></path><path d="M194.504434 287.394729c0-8.858791 7.183876-16.034729 16.034729-16.034729h192.519938a16.042667 16.042667 0 0 1 0 32.077395H210.547101a16.034729 16.034729 0 0 1-16.042667-16.034728z m614.979473 433.167876H616.971907a16.042667 16.042667 0 0 0 0 32.085333h192.512a16.042667 16.042667 0 0 0 0-32.085333zM424.451969 570.820465H210.547101a16.042667 16.042667 0 0 0 0 32.093271H424.444031a16.042667 16.042667 0 0 0 0-32.093271z m385.031938 0H616.971907a16.042667 16.042667 0 0 0 0 32.093271h192.512a16.042667 16.042667 0 0 0 0-32.093271zM408.409302 437.144806c0 8.858791 7.183876 16.034729 16.042667 16.034729h385.031938a16.042667 16.042667 0 0 0 0-32.077395H424.451969a16.034729 16.034729 0 0 0-16.042667 16.034728z m-197.862201 16.034729h85.563535a16.042667 16.042667 0 0 0 0-32.077395h-85.571473a16.042667 16.042667 0 0 0 0 32.077395z m147.590946-32.085333a16.042667 16.042667 0 0 0 0 32.085333h2.143255a16.042667 16.042667 0 0 0 0-32.085333h-2.143255z m132.627844 149.742139h-2.143255a16.042667 16.042667 0 0 0 0 32.077395h2.143255a16.042667 16.042667 0 0 0 0-32.077395z m62.027411 0h-2.135318a16.042667 16.042667 0 0 0 0 32.077395h2.143256a16.042667 16.042667 0 0 0 0-32.077395z" fill="#BFBBA3" p-id="5384"></path><path d="M525.145302 748.544l-83.190077 65.647132c-4.183318 3.294264-10.954419 3.294264-15.129799 0-2.00831-1.587597-3.135504-3.730853-3.135504-5.969365v-39.531162H130.714791c-61.916279 0-112.298667-50.37445-112.298667-112.298667 0-60.130233 47.508837-109.36955 106.956403-112.163721v32.148837c-41.74586 2.754481-74.863132 37.578419-74.863132 80.014884 0 44.23045 35.982884 80.213333 80.213334 80.213333h292.983069v-71.624434c0-2.230574 1.127194-4.381767 3.127566-5.961426 4.17538-3.294264 10.954419-3.294264 15.129799 0l83.190077 65.647132c8.35076 6.588527 8.35076 17.280992 0 23.877457z m364.170915-461.149271H595.586977v-71.616496c0-2.238512-1.127194-4.381767-3.127566-5.969365-4.183318-3.294264-10.954419-3.294264-15.129799 0l-83.190077 65.647132c-8.35076 6.596465-8.35076 17.28893 0 23.877457l83.190077 65.647132c4.17538 3.302202 10.954419 3.302202 15.129799 0 2.000372-1.579659 3.127566-3.730853 3.127566-5.961426v-39.531163h293.737178c44.238388 0 80.221271 35.982884 80.221271 80.213333 0 42.428527-33.125209 77.252465-74.871069 80.014884v32.148837c59.455504-2.802109 106.956403-52.033488 106.956403-112.163721 0-61.924217-50.37445-112.306605-112.298667-112.306604z" fill="#FC8059" p-id="5385"></path><path d="M910.709085 271.463194V105.575194c0-56.026295-45.579907-101.606202-101.606201-101.606202H210.166078c-56.026295 0-101.606202 45.579907-101.606202 101.606202v422.610356C49.279008 531.178171 1.984496 580.338109 1.984496 640.349271c0 61.916279 50.37445 112.298667 112.298667 112.298667h292.991008v55.565891c0 7.168 3.357767 13.931163 9.223938 18.566946 9.985984 7.874481 25.028465 7.874481 35.006511 0l83.190078-65.647132c7.858605-6.207504 12.375318-15.145674 12.375318-24.528372s-4.508775-18.320868-12.375318-24.528372l-83.190078-65.647132c-9.970109-7.882419-25.020527-7.882419-35.006511 0-5.866171 4.627845-9.231876 11.398946-9.231876 18.559008v55.565892H140.645209V105.575194c0-38.332527 31.188341-69.520868 69.520869-69.520868h598.944744c38.332527 0 69.51293 31.188341 69.51293 69.520868v165.776868H611.240682v-55.565891c0-7.175938-3.365705-13.939101-9.239814-18.574884-9.978047-7.866543-25.020527-7.866543-34.998573 0l-83.190078 65.65507c-7.858605 6.207504-12.36738 15.145674-12.36738 24.528372 0 9.390636 4.508775 18.328806 12.36738 24.528372l83.190078 65.647132c9.978047 7.882419 25.028465 7.882419 34.990635 0.007938 5.874109-4.627845 9.247752-11.398946 9.247752-18.566946v-55.565892h294.499225c44.238388 0 80.221271 35.974946 80.221271 80.213334 0 42.555535-33.323659 77.482667-75.252093 80.062511V383.642791a16.034729 16.034729 0 1 0-32.085333 0V918.424806c0 38.332527-31.188341 69.520868-69.520868 69.520868H210.166078c-38.340465 0-69.520868-31.188341-69.520869-69.520868v-85.563535a16.042667 16.042667 0 0 0-32.085333 0V918.424806c0 56.026295 45.579907 101.606202 101.606202 101.606202h598.944744c56.018357 0 101.606202-45.579907 101.606201-101.606202V495.846202c59.622202-2.603659 107.329488-51.930295 107.329489-112.195473 0-60.25724-47.707287-109.583876-107.337427-112.187535zM108.559876 720.356217c-41.571225-2.944992-74.490047-37.705426-74.490047-80.014884s32.918822-77.061953 74.490047-80.014883v160.029767z m330.79169-42.650791l74.640868 58.899845-74.640868 58.899845v-117.79969z m139.803783-331.410852l-74.63293-58.899845 74.63293-58.899845v117.79969z" fill="#4C4C4C" p-id="5386"></path></svg>