<?xml version="1.0" standalone="no"?><!DOCTYPE svg PUBLIC "-//W3C//DTD SVG 1.1//EN" "http://www.w3.org/Graphics/SVG/1.1/DTD/svg11.dtd"><svg t="1513245638777" class="icon" style="" viewBox="0 0 1024 1024" version="1.1" xmlns="http://www.w3.org/2000/svg" p-id="4983" xmlns:xlink="http://www.w3.org/1999/xlink" width="200" height="200"><defs><style type="text/css"></style></defs><path d="M1003.988341 918.424806c0 47.254822-38.308713 85.563535-85.563535 85.563535H105.575194c-47.254822 0-85.563535-38.308713-85.563535-85.563535s38.308713-85.563535 85.563535-85.563535h812.849612c47.254822 0 85.563535 38.308713 85.563535 85.563535z" fill="#DBD8D2" p-id="4984"></path><path d="M661.734202 169.74586c0 82.697922-67.036279 149.74214-149.734202 149.74214s-149.734202-67.044217-149.734202-149.74214c0-82.697922 67.036279-149.734202 149.734202-149.734201s149.734202 67.036279 149.734202 149.734201z" fill="#A384E2" p-id="4985"></path><path d="M768.690605 661.734202v272.733271H255.309395V661.734202c0-141.764465 114.92614-256.690605 256.690605-256.690605s256.690605 114.92614 256.690605 256.690605zM490.607132 62.789457c-47.254822 0-85.563535 38.308713-85.563535 85.571473 0 47.246884 38.308713 85.555597 85.571473 85.555597 47.246884 0 85.555597-38.308713 85.555597-85.563535S537.861953 62.789457 490.607132 62.789457z" fill="#B69CF7" p-id="4986"></path><path d="M765.817054 623.219101c1.897178 12.565829 2.87355 25.425364 2.873551 38.515101v272.733271H255.309395V743.035039c35.324031 54.081488 96.367132 89.826233 165.776869 89.826232 109.282233 0 197.87014-88.587907 197.870139-197.862201 0-90.953426 133.326388-101.717333 146.860651-11.779969z" fill="#A384E2" p-id="4987"></path><path d="M512 335.530667c91.413829 0 165.776868-74.378915 165.776868-165.784807C677.776868 78.347907 603.413829 3.968992 512 3.968992S346.223132 78.339969 346.223132 169.74586C346.223132 261.15969 420.586171 335.538605 512 335.538605z m0-299.476341c73.720062 0 133.691535 59.979411 133.691535 133.691534 0 73.720062-59.971473 133.691535-133.691535 133.691535-73.712124 0-133.691535-59.971473-133.691535-133.691535 0-73.712124 59.979411-133.691535 133.691535-133.691534z m406.424806 780.764279H784.733271V661.734202c0-150.385116-122.348155-272.733271-272.733271-272.733272-150.385116 0-272.733271 122.348155-272.733271 272.733272V816.818605H105.575194c-56.026295 0-101.606202 45.579907-101.606202 101.606201 0 56.026295 45.579907 101.606202 101.606202 101.606202h812.849612c56.026295 0 101.606202-45.579907 101.606202-101.606202 0-56.026295-45.579907-101.606202-101.606202-101.606201zM271.352062 661.734202c0-132.691349 107.956589-240.647938 240.647938-240.647938s240.647938 107.956589 240.647938 240.647938v240.647938H271.352062V661.734202z m647.072744 326.211472H105.575194c-38.332527 0-69.520868-31.188341-69.520868-69.520868 0-38.332527 31.188341-69.520868 69.520868-69.520868h133.691535v53.478202H126.968062a16.042667 16.042667 0 0 0 0 32.085333h770.063876a16.042667 16.042667 0 0 0 0-32.085333H784.733271v-53.478202H918.424806c38.332527 0 69.520868 31.188341 69.520868 69.520868 0 38.332527-31.188341 69.520868-69.520868 69.520868z" fill="#4C4C4C" p-id="4988"></path></svg>