<?xml version="1.0" standalone="no"?><!DOCTYPE svg PUBLIC "-//W3C//DTD SVG 1.1//EN" "http://www.w3.org/Graphics/SVG/1.1/DTD/svg11.dtd"><svg t="1513245619934" class="icon" style="" viewBox="0 0 1024 1024" version="1.1" xmlns="http://www.w3.org/2000/svg" p-id="4711" xmlns:xlink="http://www.w3.org/1999/xlink" width="200" height="200"><defs><style type="text/css"></style></defs><path d="M918.424806 469.214264c0 248.093767-201.116775 449.210543-449.210542 449.210542-248.085829 0-449.202605-201.116775-449.202605-449.210542 0-248.085829 201.116775-449.202605 449.210543-449.202605 248.085829 0 449.202605 201.116775 449.202604 449.210543z" fill="#CFDFE2" p-id="4712"></path><path d="M648.898481 469.214264c0 248.093767-80.443535 449.210543-179.676279 449.210542-99.240682 0-179.684217-201.116775-179.684218-449.210542 0-248.085829 80.443535-449.202605 179.684218-449.202605 99.232744 0 179.676279 201.116775 179.676279 449.210543z" fill="#E9F2F4" p-id="4713"></path><path d="M80.126016 244.61693h778.184434c38.229333 66.067845 60.114357 142.780527 60.114356 224.605272 0 81.816806-21.885023 158.52155-60.114356 224.597333H80.126016C41.896682 627.75169 20.003721 551.039008 20.003721 469.222202c0-81.824744 21.885023-158.529488 60.114357-224.605272z" fill="#C1D1D3" p-id="4714"></path><path d="M313.58214 244.61693h311.272186c15.288558 66.067845 24.044155 142.780527 24.044155 224.605272 0 81.816806-8.755597 158.52155-24.044155 224.597333H313.58214c-15.296496-66.067845-24.052093-142.780527-24.052093-224.597333 0-81.824744 8.763535-158.529488 24.052093-224.605272z" fill="#CFDFE2" p-id="4715"></path><path d="M80.126016 693.819535C41.896682 627.75169 20.003721 551.039008 20.003721 469.222202H918.424806c0 81.816806-21.885023 158.52155-60.114356 224.597333H80.126016z" fill="#B5C4C6" p-id="4716"></path><path d="M648.898481 469.214264c0 81.824744-8.755597 158.537426-24.044155 224.605271H313.58214c-15.296496-66.067845-24.052093-142.780527-24.052093-224.597333h359.368434z" fill="#C1D1D3" p-id="4717"></path><path d="M257.127194 759.76831a16.010915 16.010915 0 0 1-22.543876 2.484589c-89.461085-71.727628-140.772217-178.525271-140.772217-293.030697s51.311132-221.311008 140.772217-293.038636a16.042667 16.042667 0 0 1 20.067225 25.036403c-81.824744 65.599504-128.754109 163.284341-128.754109 267.994295 0 104.717891 46.929364 202.402729 128.754109 268.002232 6.906047 5.540713 8.017364 15.637829 2.484589 22.543876z" fill="#E9F2F4" p-id="4718"></path><path d="M1003.988341 512v106.956403H383.650729V512a42.785736 42.785736 0 0 1 42.785736-42.785736h534.774078a42.785736 42.785736 0 0 1 42.777798 42.785736z" fill="#A5A5A5" p-id="4719"></path><path d="M1003.988341 576.170667v385.031938a42.785736 42.785736 0 0 1-42.785736 42.785736H426.444403a42.785736 42.785736 0 0 1-42.785736-42.785736V576.170667h85.571473V447.829333a21.392868 21.392868 0 0 1 21.38493-21.392868h128.349271a21.392868 21.392868 0 0 1 21.38493 21.392868v128.341334h363.647008z" fill="#F2EFE2" p-id="4720"></path><path d="M939.817674 757.99814v171.127069c0 5.897922-4.786605 10.692465-10.692465 10.692465H458.521798a10.692465 10.692465 0 0 1-10.692465-10.692465V757.99814c0-5.90586 4.786605-10.700403 10.692465-10.700404h470.603411c5.897922 0 10.692465 4.794543 10.692465 10.700404z m-481.295876-53.478202h128.349272c5.90586 0 10.692465-4.794543 10.692465-10.700403V672.426667c0-5.897922-4.786605-10.692465-10.692465-10.692465H458.521798c-5.90586 0-10.692465 4.786605-10.692465 10.692465v21.392868c0 5.90586 4.786605 10.692465 10.692465 10.692465z m470.595473-42.785736H651.041736c-5.90586 0-10.700403 4.786605-10.700403 10.692465v21.392868c0 5.90586 4.794543 10.692465 10.700403 10.692465h278.075535c5.90586 0 10.692465-4.786605 10.692465-10.692465V672.426667c0-5.897922-4.786605-10.692465-10.692465-10.692465zM640.341333 447.829333v128.341334H469.214264V447.829333a21.392868 21.392868 0 0 1 21.392868-21.392868h128.349271a21.392868 21.392868 0 0 1 21.38493 21.392868z" fill="#E2DFD7" p-id="4721"></path><path d="M586.863132 512h-64.170667a10.692465 10.692465 0 0 1-10.692465-10.692465v-21.392868c0-5.90586 4.786605-10.692465 10.692465-10.692465h64.178605c5.897922 0 10.692465 4.786605 10.692465 10.692465v21.392868c0 5.90586-4.786605 10.692465-10.692465 10.692465z" fill="#CCCAC4" p-id="4722"></path><path d="M961.210543 453.179535h-27.012962c-3.97693-118.260093-51.914419-228.860031-135.99355-312.947101C710.322605 52.358946 593.491349 3.968992 469.214264 3.968992 344.953054 3.968992 228.121798 52.358946 140.232434 140.232434 52.358946 228.105922 3.968992 344.953054 3.968992 469.222202c0 218.135814 152.131473 407.004279 363.63907 454.076527v37.903876c0 32.442543 26.393798 58.820465 58.828403 58.820465h534.774078c32.426667 0.007938 58.820465-26.377922 58.820465-58.820465V512c0-32.434605-26.393798-58.820465-58.820465-58.820465z m-59.122109 0H664.830016c-0.936682-67.917395-7.803039-133.326388-20.003721-192.519938h203.958573a430.15938 430.15938 0 0 1 53.303566 192.512z m-72.86276-224.605271H637.555101c-7.398202-29.719814-16.22524-57.550388-26.385861-82.951938-17.495318-43.746233-38.181705-78.085953-61.027224-101.987225 115.918388 21.996155 215.643287 90.326326 279.083658 184.939163zM469.222202 36.054326c50.850729 0 104.019349 72.084837 135.461705 192.519938H333.752558C365.194915 108.139163 418.371473 36.054326 469.214264 36.054326z m-80.927752 7.580775c-22.845519 23.901271-43.523969 58.240992-61.027225 101.987225-10.16062 25.40155-18.979721 53.232124-26.385861 82.951938H109.210791C172.651163 133.961426 272.376062 65.631256 388.29445 43.635101z m-298.642853 217.024496h203.950636c-12.184806 59.19355-19.059101 124.594605-20.003721 192.512H36.355969a430.15938 430.15938 0 0 1 53.303566-192.512zM36.348031 485.248992h237.258419c0.952558 68.028527 8.001488 133.556589 20.154542 192.519938H89.643659a431.715225 431.715225 0 0 1-53.295628-192.512z m331.260031 405.115039c-108.30586-25.996899-199.338667-92.096496-258.460775-180.509767h191.884899c16.14586 65.012093 38.840558 120.300155 66.575876 159.632868v20.876899z m0-84.968186c-13.11355-27.655938-24.433116-59.900031-33.680868-95.541581h33.680868v95.533643z m0-293.403783v165.776868h-41.245767c-12.44676-58.304496-19.686202-123.951628-20.670512-192.512h68.353984a58.495008 58.495008 0 0 0-6.429767 26.735132z m-61.916279-58.820465c0.968434-71.672062 8.453953-136.485705 20.456186-192.519938h286.140527c9.684341 45.238574 16.431628 96.208372 19.186109 151.885395a37.252961 37.252961 0 0 0-12.52614-2.151194H490.61507a37.475225 37.475225 0 0 0-37.435535 37.435535v5.350202H305.691783z m318.606884-5.350202v112.298667H485.25693V447.829333c0-2.944992 2.405209-5.350202 5.350202-5.350201h128.349271c2.944992 0 5.342264 2.405209 5.342264 5.350201zM453.179535 485.264868v74.863132h-53.470264V512a26.766884 26.766884 0 0 1 26.735132-26.735132h26.74307z m534.774077 475.945675a26.766884 26.766884 0 0 1-26.735131 26.735131H426.428527a26.766884 26.766884 0 0 1-26.735132-26.735131v-50.668155V864.478264 592.213333h588.244341v368.989272z m0-401.082543H656.384v-74.863132h304.818605a26.766884 26.766884 0 0 1 26.743069 26.735132v48.128z m-32.085333-38.499225v2.143256a16.034729 16.034729 0 1 1-32.085333 0v-2.143256a16.034729 16.034729 0 1 1 32.085333 0z m-64.170667 0v2.143256a16.034729 16.034729 0 1 1-32.085333 0v-2.143256a16.034729 16.034729 0 1 1 32.077395 0z m-64.178604 0v2.143256a16.034729 16.034729 0 1 1-32.085334 0v-2.143256a16.034729 16.034729 0 1 1 32.085334 0z" fill="#4C4C4C" p-id="4723"></path></svg>