<?xml version="1.0" standalone="no"?><!DOCTYPE svg PUBLIC "-//W3C//DTD SVG 1.1//EN" "http://www.w3.org/Graphics/SVG/1.1/DTD/svg11.dtd"><svg t="1513245703065" class="icon" style="" viewBox="0 0 1138 1024" version="1.1" xmlns="http://www.w3.org/2000/svg" p-id="7674" xmlns:xlink="http://www.w3.org/1999/xlink" width="222.265625" height="200"><defs><style type="text/css"></style></defs><path d="M1114.297379 902.294069c0 52.550621-42.601931 95.161379-95.152551 95.161379H115.2c-52.550621 0-95.152552-42.610759-95.152552-95.161379 0-52.550621 42.601931-95.152552 95.152552-95.152552h903.944828c52.550621 0 95.152552 42.601931 95.152551 95.16138z" fill="#A5A5A5" p-id="7675"></path><path d="M1042.935172 236.226207v523.343448c0 52.550621-42.601931 95.152552-95.161379 95.152552h-761.202759c-52.559448 0-95.161379-42.601931-95.161379-95.161379V236.243862c0-52.550621 42.601931-95.161379 95.161379-95.161379h761.202759c52.559448 0 95.161379 42.610759 95.161379 95.161379z" fill="#CCCAC4" p-id="7676"></path><path d="M947.782621 807.141517H186.562207a47.58069 47.58069 0 0 1-47.58069-47.580689V236.243862a47.58069 47.58069 0 0 1 47.58069-47.58069h761.220414a47.58069 47.58069 0 0 1 47.580689 47.58069v523.334621a47.58069 47.58069 0 0 1-47.580689 47.580689z" fill="#F2EFE2" p-id="7677"></path><path d="M828.839724 640.626759H305.505103c-78.830345 0-142.724414-63.902897-142.724413-142.724414 0-78.830345 63.894069-142.733241 142.724413-142.733242h523.334621c78.830345 0 142.733241 63.902897 142.733242 142.733242S907.652414 640.617931 828.839724 640.617931z" fill="#CFDFE2" p-id="7678"></path><path d="M945.028414 637.14869l-73.004138 92.513103c-7.326897 9.286621-19.217655 9.286621-26.553379 0l-73.004138-92.513103c-3.663448-4.652138-3.663448-12.182069 0-16.82538 1.765517-2.233379 4.148966-3.486897 6.638344-3.486896h49.734621v-469.804138c0-49.196138-40.015448-89.211586-89.202758-89.211586-47.192276 0-85.910069 36.837517-88.982069 83.252965h-35.751725c3.116138-66.109793 57.864828-118.934069 124.733794-118.934069 68.864 0 124.883862 56.019862 124.883862 124.883862v469.812966h73.869241c2.489379 0 4.881655 1.253517 6.638345 3.478069 3.663448 4.652138 3.663448 12.182069 0 16.834207z" fill="#FC8059" p-id="7679"></path><path d="M1055.002483 795.144828c3.725241-11.202207 5.773241-23.154759 5.773241-35.575173V236.226207c0-62.296276-50.688-112.993103-112.993103-112.993104h-71.344552C873.321931 57.12331 818.582069 4.299034 751.704276 4.299034c-66.868966 0-121.626483 52.824276-124.733793 118.934069h-440.408276c-62.305103 0-112.993103 50.696828-112.993104 112.993104v523.343448c0 12.420414 2.048 24.372966 5.773242 35.575173A112.843034 112.843034 0 0 0 2.206897 902.294069c0 62.305103 50.688 112.993103 112.993103 112.993103h903.944828c62.305103 0 112.993103-50.688 112.993103-112.993103 0-49.513931-31.867586-92.089379-77.135448-107.149241z m-130.763035-160.467862L858.747586 717.682759l-65.500689-82.996966h131.001379zM109.259034 236.226207c0-42.628414 34.692414-77.312 77.312-77.312h594.696828a17.831724 17.831724 0 1 0 0-35.672276H662.731034c3.072-46.433103 41.789793-83.261793 88.982069-83.261793 49.18731 0 89.202759 40.015448 89.202759 89.202759v469.812965h-61.801931c-7.97131 0-15.492414 3.742897-20.638897 10.266483-8.765793 11.096276-8.765793 27.833379 0 38.929655l73.004138 92.513103c6.894345 8.73931 16.834207 13.753379 27.277242 13.75338 10.443034 0 20.374069-5.005241 27.277241-13.744552l73.004138-92.513103c8.756966-11.105103 8.756966-27.833379 0.008828-38.920828-5.146483-6.532414-12.676414-10.284138-20.656552-10.284138h-61.793103V158.923034h71.185655c42.637241 0 77.312 34.674759 77.312 77.312v523.334621c0 42.637241-34.674759 77.312-77.312 77.312h-761.202759c-42.637241 0-77.320828-34.683586-77.320828-77.312V236.226207z m909.894621 743.379862H115.2c-42.628414 0-77.312-34.683586-77.312-77.312a77.179586 77.179586 0 0 1 58.33269-74.946207c20.630069 27.436138 53.442207 45.214897 90.341517 45.214897h761.211586c36.89931 0 69.720276-17.778759 90.350345-45.214897a77.179586 77.179586 0 0 1 58.33269 74.946207c0 42.637241-34.683586 77.312-77.312 77.312z m-636.327724-53.521655a17.831724 17.831724 0 0 1-17.840552 17.840552H174.671448a17.831724 17.831724 0 1 1 0-35.681104h190.305104a17.831724 17.831724 0 0 1 17.831724 17.840552z m594.696828 0a17.831724 17.831724 0 0 1-17.831725 17.840552H602.84469a17.831724 17.831724 0 1 1 0-35.681104h356.819862a17.831724 17.831724 0 0 1 17.840551 17.840552z m-437.698207 0a17.831724 17.831724 0 0 1-17.840552 17.840552h-2.383448a17.831724 17.831724 0 1 1 0-35.681104h2.383448a17.831724 17.831724 0 0 1 17.840552 17.840552z m-73.745655 0a17.831724 17.831724 0 0 1-17.831725 17.840552h-2.383448a17.831724 17.831724 0 1 1 0-35.681104h2.383448a17.831724 17.831724 0 0 1 17.831725 17.840552zM282.924138 478.870069a17.831724 17.831724 0 0 1 17.831724 17.831724v2.383448a17.831724 17.831724 0 1 1-35.672276 0v-2.383448a17.831724 17.831724 0 0 1 17.831724-17.831724z m53.521655 20.215172v-2.383448a17.831724 17.831724 0 1 1 35.681104 0v2.383448a17.831724 17.831724 0 1 1-35.681104 0z m187.912828 0v-2.383448a17.831724 17.831724 0 1 1 35.681103 0v2.383448a17.831724 17.831724 0 1 1-35.681103 0z m89.202758 17.84938a17.831724 17.831724 0 0 1-17.840551-17.840552v-2.383448a17.831724 17.831724 0 1 1 35.681103 0v2.383448a17.831724 17.831724 0 0 1-17.840552 17.831724z m-425.666207 27.224276c-25.511724-25.511724-25.511724-67.010207 0-92.521931L302.397793 337.125517a17.840552 17.840552 0 0 1 25.229241 25.229242L213.115586 476.866207a29.766621 29.766621 0 0 0 0 42.054621l114.511448 114.511448a17.840552 17.840552 0 0 1-25.229241 25.229241L187.886345 544.158897z m380.954483 89.273379l114.511448-114.502621a29.766621 29.766621 0 0 0 0-42.054621L568.840828 362.363586a17.840552 17.840552 0 0 1 25.238069-25.229241l114.50262 114.502621c25.511724 25.511724 25.511724 67.019034 0 92.521931L594.078897 658.670345a17.796414 17.796414 0 0 1-12.623449 5.225931 17.831724 17.831724 0 0 1-12.61462-30.455173zM383.346759 683.873103l95.161379-380.601379a17.840552 17.840552 0 0 1 34.612965 8.651035l-95.161379 380.610207a17.849379 17.849379 0 0 1-21.627586 12.976551 17.840552 17.840552 0 0 1-12.976552-21.627586z" fill="#4C4C4C" p-id="7680"></path></svg>