<?xml version="1.0" standalone="no"?><!DOCTYPE svg PUBLIC "-//W3C//DTD SVG 1.1//EN" "http://www.w3.org/Graphics/SVG/1.1/DTD/svg11.dtd"><svg t="1513245690843" class="icon" style="" viewBox="0 0 1024 1024" version="1.1" xmlns="http://www.w3.org/2000/svg" p-id="7141" xmlns:xlink="http://www.w3.org/1999/xlink" width="200" height="200"><defs><style type="text/css"></style></defs><path d="M1007.832 167.072v64.672H16.168v-64.672c0-47.624 38.608-86.232 86.232-86.232h819.2c47.624 0 86.232 38.608 86.232 86.24z" fill="#A5A5A5" p-id="7142"></path><path d="M1007.832 210.192v603.624c0 47.624-38.608 86.224-86.232 86.224H102.4c-47.624 0-86.232-38.6-86.232-86.224V210.184h129.344V59.28a43.12 43.12 0 0 1 43.12-43.112h172.464a43.12 43.12 0 0 1 43.12 43.12v150.904h603.616z" fill="#E9F2F4" p-id="7143"></path><path d="M404.208 59.28v150.912H145.52V59.28a43.12 43.12 0 0 1 43.12-43.112h172.464a43.12 43.12 0 0 1 43.12 43.12z" fill="#C3E4ED" p-id="7144"></path><path d="M361.096 91.624v43.12a21.56 21.56 0 0 1-21.56 21.552H210.184a21.56 21.56 0 0 1-21.552-21.56v-43.12a21.56 21.56 0 0 1 21.552-21.552h129.352a21.552 21.552 0 0 1 21.56 21.56z" fill="#B2D1D8" p-id="7145"></path><path d="M900.04 522.776V759.92a43.12 43.12 0 0 1-43.12 43.12h-689.84a43.12 43.12 0 0 1-43.12-43.12V522.776a43.12 43.12 0 0 1 43.12-43.12h689.84a43.12 43.12 0 0 1 43.12 43.12zM167.08 393.44h194.016a43.12 43.12 0 1 0 0-86.232H167.072a43.12 43.12 0 1 0 0 86.232z m344.92 0h344.928a43.12 43.12 0 1 0 0-86.232H512a43.12 43.12 0 1 0 0 86.232z" fill="#CFDFE2" p-id="7146"></path><path d="M900.04 770.696a43.12 43.12 0 0 1-43.12 43.12h-6.464l-39.768 132.56a86.232 86.232 0 0 1-82.592 61.456H533.04a86.24 86.24 0 0 1-82.592-61.456l-39.768-132.56h-6.472a43.12 43.12 0 1 1 0-86.232h452.72a43.12 43.12 0 0 1 43.12 43.112z" fill="#FC8059" p-id="7147"></path><path d="M900.04 770.696a43.12 43.12 0 0 1-43.12 43.12H404.216a43.12 43.12 0 1 1 0-86.232h452.72a43.12 43.12 0 0 1 43.12 43.112z" fill="#AD3C1E" p-id="7148"></path><path d="M754.528 146.592v-2.16a16.168 16.168 0 0 1 32.336 0v2.16a16.168 16.168 0 0 1-32.336 0z m80.84 16.168a16.168 16.168 0 0 0 16.168-16.16v-2.16a16.168 16.168 0 0 0-32.336 0v2.16c0 8.92 7.24 16.16 16.168 16.16z m64.672 0a16.168 16.168 0 0 0 16.168-16.16v-2.16a16.168 16.168 0 0 0-32.336 0v2.16c0 8.92 7.24 16.16 16.168 16.16z m123.96 4.32v646.736c0 56.456-45.936 102.4-102.4 102.4h-84.984l-10.44 34.808c-13.096 43.648-52.512 72.976-98.08 72.976H533.04c-45.568 0-84.984-29.328-98.08-72.976l-10.44-34.816H102.4c-56.464 0-102.4-45.936-102.4-102.4V167.072c0-56.464 45.936-102.4 102.4-102.4h26.952v-5.384c0-32.696 26.592-59.288 59.28-59.288h172.464c32.688 0 59.28 26.592 59.28 59.28v5.392H921.6c56.464 0 102.4 45.936 102.4 102.4z m-603.624-70.072v97.016h571.28v-26.952c0-38.632-31.424-70.064-70.056-70.064H420.376zM161.68 194.024h226.36V59.28a26.976 26.976 0 0 0-26.944-26.944H188.632a26.976 26.976 0 0 0-26.952 26.952v134.736zM32.336 167.072v26.952h97.008V97.008H102.4c-38.632 0-70.064 31.44-70.064 70.064z m668.296 474.272c0-38.632-31.432-70.064-70.064-70.064-38.632 0-70.064 31.44-70.064 70.064v70.064h140.128v-70.064z m-140.128 102.4v53.896h296.424a26.976 26.976 0 0 0 26.944-26.944 26.976 26.976 0 0 0-26.944-26.952H560.504z m-32.336 0H404.208a26.976 26.976 0 0 0-26.944 26.952 26.976 26.976 0 0 0 26.944 26.944H528.168V743.76z m300.56 86.24h-396.32l1.216 4.048 18.408 61.36v0.016l13.904 46.32a69.632 69.632 0 0 0 67.104 49.936h195.056a69.632 69.632 0 0 0 67.104-49.936l33.528-111.752z m162.936-603.624H32.336v587.448c0 38.64 31.432 70.064 70.064 70.064h312.416l-16.248-54.168c-30.056-2.848-53.64-28.224-53.64-59.008 0-32.688 26.592-59.28 59.28-59.28h123.96v-70.072c0-56.456 45.936-102.4 102.4-102.4 56.464 0 102.4 45.944 102.4 102.4v70.064h123.96c32.688 0 59.28 26.6 59.28 59.288 0 30.784-23.584 56.16-53.632 59.008l-16.256 54.168h75.28c38.632 0 70.064-31.432 70.064-70.064V226.36zM630.568 862.32a16.168 16.168 0 0 0-16.168 16.16v64.68a16.168 16.168 0 0 0 32.336 0v-64.672a16.16 16.16 0 0 0-16.168-16.176z m-86.232 0a16.168 16.168 0 0 0-16.168 16.16v64.68a16.168 16.168 0 0 0 32.336 0v-64.672a16.16 16.16 0 0 0-16.168-16.176z m172.464 0a16.168 16.168 0 0 0-16.168 16.16v64.68a16.168 16.168 0 0 0 32.336 0v-64.672a16.16 16.16 0 0 0-16.168-16.176z" fill="#4C4C4C" p-id="7149"></path></svg>