<?xml version="1.0" standalone="no"?><!DOCTYPE svg PUBLIC "-//W3C//DTD SVG 1.1//EN" "http://www.w3.org/Graphics/SVG/1.1/DTD/svg11.dtd"><svg t="1513245671414" class="icon" style="" viewBox="0 0 1518 1024" version="1.1" xmlns="http://www.w3.org/2000/svg" p-id="6322" xmlns:xlink="http://www.w3.org/1999/xlink" width="296.484375" height="200"><defs><style type="text/css"></style></defs><path d="M1358.85977 485.705563H153.6c-70.067494 0-126.870069-56.802575-126.870069-126.881839V216.05223c0-70.067494 56.802575-126.870069 126.870069-126.870069h1205.25977c70.067494 0 126.870069 56.802575 126.870069 126.870069v142.795034c0 70.067494-56.802575 126.870069-126.870069 126.870069z" fill="#F4EECB" p-id="6323"></path><path d="M209.107862 285.849011v3.177932a23.787402 23.787402 0 1 1-47.574805 0v-3.177932a23.787402 23.787402 0 1 1 47.574805 0z m71.362207-23.787402a23.787402 23.787402 0 0 0-23.787402 23.787402v3.177932a23.787402 23.787402 0 1 0 47.574804 0v-3.177932a23.787402 23.787402 0 0 0-23.787402-23.787402z m95.149609 0a23.787402 23.787402 0 0 0-23.775632 23.787402v3.177932a23.787402 23.787402 0 1 0 47.563034 0v-3.177932a23.787402 23.787402 0 0 0-23.775632-23.787402z" fill="#BFBBA3" p-id="6324"></path><path d="M553.572046 89.170391h593.637517c99.987126 110.321287 127.493885 262.920828 82.590897 396.535172h-758.819311c-44.902989-133.614345-17.38446-286.213885 82.590897-396.535172z" fill="#E2DCBC" p-id="6325"></path><path d="M1467.144828 795.236046l-179.423633-179.458943a63.417379 63.417379 0 0 0-89.700046 0l-71.562298-71.574069h-0.011771c87.663816-129.565425 74.151724-307.17646-40.571586-421.91154-130.05977-130.08331-340.921379-130.08331-470.969379 0-130.05977 130.08331-130.05977 340.98023 0 471.05177 114.71154 114.73508 292.287264 128.247172 421.840919 40.571587l71.562299 71.585839a63.46446 63.46446 0 0 0 0 89.723586l179.423633 179.447172a63.417379 63.417379 0 0 0 89.700045 0l89.711817-89.723586a63.44092 63.44092 0 0 0 0-89.723586z" fill="#84A7B7" p-id="6326"></path><path d="M1126.44708 544.203034l71.562299 71.58584-89.700046 89.723586-71.562299-71.585839a334.694989 334.694989 0 0 0 89.700046-89.723587z" fill="#256277" p-id="6327"></path><path d="M1072.410483 357.811494c0 122.644598-99.398621 222.066759-222.019678 222.066759S628.371126 480.456092 628.371126 357.811494c0-122.644598 99.398621-222.054989 222.019679-222.054988S1072.410483 235.166897 1072.410483 357.811494z" fill="#C3E4ED" p-id="6328"></path><path d="M983.357793 179.976828a222.572874 222.572874 0 0 1 76.176184 103.259218L775.815356 567.001747a222.549333 222.549333 0 0 1-103.235678-76.199724l310.778115-310.825195zM641.235862 432.410483c3.719356 10.428322 8.18023 20.48 13.33554 30.131494l300.502805-300.549885a220.748506 220.748506 0 0 0-30.107954-13.34731L641.235862 432.434023z" fill="#DCF3F9" p-id="6329"></path><path d="M851.379494 191.770483a63.44092 63.44092 0 1 1 0 126.881839 63.44092 63.44092 0 0 1 0-126.881839z" fill="#FFFFFF" p-id="6330"></path><path d="M209.107862 286.072644v3.177931a23.799172 23.799172 0 0 1-23.787402 23.810942 23.799172 23.799172 0 0 1-23.787403-23.810942v-3.177931c0-13.147218 10.651954-23.810943 23.775633-23.810943 13.147218 0 23.799172 10.663724 23.799172 23.810943z m71.362207-23.810943a23.799172 23.799172 0 0 0-23.787402 23.822713v3.166161c0 13.147218 10.651954 23.822713 23.787402 23.822712a23.799172 23.799172 0 0 0 23.787402-23.822712v-3.177931a23.799172 23.799172 0 0 0-23.787402-23.810943z m95.149609 0a23.799172 23.799172 0 0 0-23.775632 23.822713v3.166161c0 13.147218 10.640184 23.822713 23.775632 23.822712a23.799172 23.799172 0 0 0 23.787402-23.822712v-3.177931a23.799172 23.799172 0 0 0-23.775632-23.810943zM1173.598161 509.540046c-5.037609 10.710805-10.628414 21.162667-16.737104 31.355586l43.490575 43.455265c33.191724-18.514391 76.023172-13.688644 104.200828 14.465471l179.411862 179.25885a86.604506 86.604506 0 0 1 25.564689 61.675403c0 23.304828-9.074759 45.197241-25.564689 61.675402l-89.711816 89.629425a86.957609 86.957609 0 0 1-61.651862 25.482299 86.957609 86.957609 0 0 1-61.663633-25.482299l-179.411862-179.25885a86.604506 86.604506 0 0 1-25.564689-61.675403c0-15.124598 3.825287-29.66069 11.016827-42.501885l-43.549425-43.514115c-136.992368 81.755218-317.45177 63.758713-435.305931-53.989517a356.705103 356.705103 0 0 1-70.903172-100.575632H153.6c-83.073471 0-150.657471-67.56046-150.657471-150.57508V216.346483c0-83.026391 67.584-150.57508 150.657471-150.575081h492.226207c122.326805-85.604046 286.802391-85.604046 409.129195 0h303.904368c83.073471 0 150.657471 67.54869 150.657471 150.575081v142.594942c0 83.026391-67.584 150.586851-150.657471 150.586851H1173.574621zM1110.05131 113.416828c62.734713 66.418759 97.150529 152.846713 97.150529 244.559448a357.458391 357.458391 0 0 1-15.312919 103.930115h166.95908c56.837885 0 103.082667-46.174161 103.082667-102.941425V216.358253c0-56.767264-46.244782-102.941425-103.082667-102.941425H1110.06308zM493.568 357.976276c0-91.712736 34.427586-178.15246 97.150529-244.559448H153.6c-56.837885 0-103.082667 46.185931-103.082667 102.941425v142.606713c0 56.767264 46.244782 102.941425 103.082667 102.941425h355.29269a357.529011 357.529011 0 0 1-15.32469-103.930115z m631.549057 364.179126a39.265103 39.265103 0 0 0-11.605333 27.965793c0 10.557793 4.11954 20.48 11.605333 27.954023l179.411863 179.270621a39.747678 39.747678 0 0 0 56.108137 0l89.700046-89.629425a39.265103 39.265103 0 0 0 11.605334-27.954023c0-10.569563-4.11954-20.49177-11.605334-27.965793l-179.411862-179.258851a39.735908 39.735908 0 0 0-56.096367 0l-89.711817 89.617655z m4.08423-141.594482a363.155126 363.155126 0 0 1-56.037517 55.978666l35.145563 35.122023 56.025747-55.990437-35.133793-35.110252z m30.425747-222.584644c0-82.508506-32.155954-160.073563-90.547494-218.429793-120.584828-120.478897-316.792644-120.478897-437.377471 0-58.39154 58.34446-90.559264 135.921287-90.559264 218.429793a308.377011 308.377011 0 0 0 22.692781 116.606529c0.682667 1.294713 1.247632 2.648276 1.683127 4.048919a308.565333 308.565333 0 0 0 66.183356 97.774345c106.284138 106.201747 271.33646 118.784 391.556414 37.758529l0.400184-0.270713a312.720184 312.720184 0 0 0 82.237793-81.731678c0.529655-0.918069 1.141701-1.812598 1.812597-2.671816a305.540414 305.540414 0 0 0 27.542069-50.858667c0.447264-1.412414 1.01223-2.765977 1.683127-4.048919a308.18869 308.18869 0 0 0 22.692781-116.606529zM1024.188322 184.261149a243.947402 243.947402 0 0 1 72.009563 173.715127 243.935632 243.935632 0 0 1-72.009563 173.715126c-47.904368 47.869057-110.874483 71.797701-173.797517 71.809472-62.946575 0-125.869609-23.928644-173.797518-71.809472a243.947402 243.947402 0 0 1-72.009563-173.726896 243.923862 243.923862 0 0 1 72.009563-173.703357c95.832276-95.749885 251.762759-95.749885 347.595035 0z m24.434758 173.715127c0-52.883126-20.609471-102.600092-58.038436-140.005517a197.737931 197.737931 0 0 0-140.193839-57.920736c-50.776276 0-101.540782 19.302989-140.182069 57.920736a196.61977 196.61977 0 0 0-58.050207 140.005517c0 52.883126 20.609471 102.600092 58.038437 140.005517 77.306115 77.235494 203.081563 77.235494 280.387678 0a196.608 196.608 0 0 0 58.038436-140.005517z" fill="#4C4C4C" p-id="6331"></path></svg>